<?xml version="1.0" encoding="utf-8"?>
<!-- Generator: Adobe Illustrator 18.1.1, SVG Export Plug-In . SVG Version: 6.00 Build 0)  -->
<!DOCTYPE svg PUBLIC "-//W3C//DTD SVG 1.1//EN" "http://www.w3.org/Graphics/SVG/1.1/DTD/svg11.dtd">
<svg version="1.1" xmlns="http://www.w3.org/2000/svg" xmlns:xlink="http://www.w3.org/1999/xlink" x="0px" y="0px"
	 viewBox="0 0 186 186" style="enable-background:new 0 0 186 186;" xml:space="preserve">
<style type="text/css">
	.st0{display:none;}
	.st1{fill:#333333;}
	.st2{display:inline;}
	.st3{fill:#FFFFFF;}
</style>
<g id="CIRCLE_sm_copy">
	<g id="BG_copy_3" class="st0">
	</g>
	<g id="circle_copy_2" class="st0">
	</g>
	<g>
		<path class="st1" d="M93,2C42.7,2,2,42.7,2,93c0,50.3,40.7,91,91,91s91-40.7,91-91C184,42.7,143.3,2,93,2z M53.6,91.2
			c-0.5,3.6-5,6.8-12.5,6.8c-0.9,6,1,7.7,3.5,7.7c2.6,0,4.7-2.9,5.2-4.9l2.4,0.5c-0.9,3.2-3.7,7.3-9.3,7.3c-6.1,0-9.6-5.5-8.7-11.6
			C35.1,90.6,40.1,85,46.7,85C52.4,85,54,88.5,53.6,91.2z M65.5,103.5c-0.4,2.9-3.1,5.2-5.9,5.2c-2.9,0-4.8-2.3-4.5-5.2l3.7-26.2h6
			l-3.7,26.2c-0.1,0.7,0.4,1.2,1.1,1.2c0.6,0,1.4-0.6,1.4-1.2l0.3-2h1.9L65.5,103.5z M102,103.5c-0.4,2.9-3.1,5.2-5.9,5.2
			c-2.9,0-4.8-2.3-4.5-5.2l1.9-13.3c0.1-0.7-0.4-1.2-1.1-1.2c-1,0-2.5,1.9-4.4,4.4l-2.1,14.6h-6l2.5-17.8c0.1-0.7-0.4-1.2-1.1-1.2
			c-1,0-2.5,1.9-4.4,4.4l-2.1,14.6h-6l2.4-17.1c0.1-0.7-0.4-1.2-1.1-1.2c-0.7,0-1.4,0.6-1.5,1.2l-0.3,1.9h-1.9l0.3-1.9
			c0.4-2.9,3.1-5.2,5.9-5.2c2.3,0,4.1,1.6,4.5,3.7c1.5-1.9,3.8-4.3,6.6-4.3c2.4,0,4.4,1.8,4.5,4.1c1.5-1.8,3.9-4.1,6.5-4.1
			c2.9,0,4.9,2.3,4.5,5.2l-1.9,13.3c-0.1,0.7,0.4,1.2,1.1,1.2c0.6,0,1.4-0.6,1.4-1.2l0.3-2h1.9L102,103.5z M128.7,103.5
			c-0.4,2.9-3.1,5.2-5.9,5.2c-2.9,0-4.9-2.3-4.5-5.2l1.8-12.4c0.2-1-0.6-1.8-1.6-1.8c-1,0-1.9,0.8-3.7,3.2l-1.6,2l-1.8,13.4h-6
			l2.4-17.1c0.1-0.7-0.4-1.2-1.1-1.2c-0.7,0-1.3,0.6-1.5,1.2l-0.3,1.9h-1.9l0.3-1.9c0.4-2.9,3.1-5.2,5.9-5.2c2.7,0,4.6,2,4.5,4.6
			l0.7-0.9c1.4-1.9,3.4-4.3,6.5-4.3c3.2,0,5.5,2.6,5,5.8l-1.8,12.7c-0.1,0.7,0.4,1.2,1.1,1.2c0.6,0,1.3-0.6,1.4-1.2l0.3-2h1.9
			L128.7,103.5z M142,103.5c-0.4,2.9-3.1,5.2-5.9,5.2c-2.9,0-4.8-2.3-4.5-5.2l2-14.5H129l0.4-3.1h4.6l0.7-5.2h6l-0.7,5.2h6l-0.5,3.1
			h-6l-2,14.5c-0.1,0.7,0.4,1.2,1.1,1.2c0.6,0,1.3-0.6,1.4-1.2l0.3-2h1.9L142,103.5z M151.9,104.9c-0.3,1.9-2,3.4-3.9,3.4
			c-1.9,0-3.2-1.6-3-3.4c0.3-1.9,2-3.5,3.9-3.5C150.8,101.4,152.1,103,151.9,104.9z"/>
		<path class="st1" d="M46.5,87.7c-2.9,0-4.6,4.8-5,7.8c4.3,0,6.1-3.3,6.4-5.1C48,88.7,47.6,87.7,46.5,87.7z"/>
	</g>
</g>
<g id="elmnt_only" class="st0">
	<g id="elmnt_1_" class="st2">
		<path class="st3" d="M41.1,97.9c-0.9,6,1,7.7,3.5,7.7c2.6,0,4.7-2.9,5.2-4.9l2.4,0.5c-0.9,3.2-3.7,7.3-9.3,7.3
			c-6.1,0-9.6-5.5-8.7-11.6C35.1,90.6,40.1,85,46.7,85c5.8,0,7.3,3.5,7,6.2C53.2,94.8,48.6,97.9,41.1,97.9z M47.8,90.4
			c0.2-1.7-0.3-2.7-1.3-2.7c-2.9,0-4.6,4.8-5,7.8C45.7,95.6,47.6,92.3,47.8,90.4z"/>
		<path class="st3" d="M59.6,108.7c-2.9,0-4.8-2.3-4.5-5.2l3.7-26.2h6l-3.7,26.2c-0.1,0.7,0.4,1.2,1.1,1.2c0.6,0,1.4-0.6,1.4-1.2
			l0.3-2h1.9l-0.3,2C65.2,106.4,62.5,108.7,59.6,108.7z"/>
		<path class="st3" d="M84,85c2.4,0,4.4,1.8,4.5,4.1c1.5-1.8,3.9-4.1,6.5-4.1c2.9,0,4.9,2.3,4.5,5.2l-1.9,13.3
			c-0.1,0.7,0.4,1.2,1.1,1.2c0.6,0,1.4-0.6,1.4-1.2l0.3-2h1.9l-0.3,2c-0.4,2.9-3.1,5.2-5.9,5.2c-2.9,0-4.8-2.3-4.5-5.2l1.9-13.3
			c0.1-0.7-0.4-1.2-1.1-1.2c-1,0-2.5,1.9-4.4,4.4l-2.1,14.6h-6l2.5-17.8c0.1-0.7-0.4-1.2-1.1-1.2c-1,0-2.5,1.9-4.4,4.4l-2.1,14.6h-6
			l2.4-17.1c0.1-0.7-0.4-1.2-1.1-1.2c-0.7,0-1.4,0.6-1.5,1.2l-0.3,1.9h-1.9l0.3-1.9c0.4-2.9,3.1-5.2,5.9-5.2c2.3,0,4.1,1.6,4.5,3.7
			C78.8,87.4,81.2,85,84,85z"/>
		<path class="st3" d="M114.5,89.2c1.4-1.9,3.4-4.3,6.5-4.3c3.2,0,5.5,2.6,5,5.8l-1.8,12.7c-0.1,0.7,0.4,1.2,1.1,1.2
			c0.6,0,1.3-0.6,1.4-1.2l0.3-2h1.9l-0.3,2c-0.4,2.9-3.1,5.2-5.9,5.2s-4.9-2.3-4.5-5.2l1.8-12.4c0.2-1-0.6-1.8-1.6-1.8
			c-1,0-1.9,0.8-3.7,3.2l-1.6,2l-1.8,13.4h-6l2.4-17.1c0.1-0.7-0.4-1.2-1.1-1.2c-0.7,0-1.3,0.6-1.5,1.2l-0.3,1.9h-1.9l0.3-1.9
			c0.4-2.9,3.1-5.2,5.9-5.2c2.7,0,4.6,2,4.5,4.6L114.5,89.2z"/>
		<path class="st3" d="M129,89l0.4-3.1h4.6l0.7-5.2h6l-0.7,5.2h6l-0.5,3.1h-6l-2,14.5c-0.1,0.7,0.4,1.2,1.1,1.2
			c0.6,0,1.3-0.6,1.4-1.2l0.3-2h1.9l-0.3,2c-0.4,2.9-3.1,5.2-5.9,5.2c-2.9,0-4.8-2.3-4.5-5.2l2-14.5H129z"/>
		<path class="st3" d="M144.9,104.9c0.3-1.9,2-3.5,3.9-3.5c1.9,0,3.2,1.6,3,3.5c-0.3,1.9-2,3.4-3.9,3.4
			C146,108.3,144.7,106.8,144.9,104.9z"/>
	</g>
</g>
</svg>
