<?xml version="1.0" encoding="utf-8"?>
<!-- Generator: Adobe Illustrator 18.1.1, SVG Export Plug-In . SVG Version: 6.00 Build 0)  -->
<!DOCTYPE svg PUBLIC "-//W3C//DTD SVG 1.1//EN" "http://www.w3.org/Graphics/SVG/1.1/DTD/svg11.dtd">
<svg version="1.1" xmlns="http://www.w3.org/2000/svg" xmlns:xlink="http://www.w3.org/1999/xlink" x="0px" y="0px"
	 viewBox="0 0 120 34" style="enable-background:new 0 0 120 34;" xml:space="preserve">
<style type="text/css">
	.st0{display:none;}
	.st1{display:inline;}
	.st2{fill:#B3572C;}
	.st3{fill:#FFFFFF;}
</style>
<g id="CIRCLE_sm_copy" class="st0">
	<g id="BG_copy_3">
	</g>
	<g id="circle_copy_2" class="st1">
		<circle class="st2" cx="60" cy="17" r="91"/>
	</g>
	<g id="elmnt_2_" class="st1">
		<path class="st3" d="M8.1,21.9c-0.9,6,1,7.7,3.5,7.7c2.6,0,4.7-2.9,5.2-4.9l2.4,0.5c-0.9,3.2-3.7,7.3-9.3,7.3
			c-6.1,0-9.6-5.5-8.7-11.6C2.1,14.6,7.1,9,13.7,9c5.8,0,7.3,3.5,7,6.2C20.2,18.8,15.6,21.9,8.1,21.9z M14.8,14.4
			c0.2-1.7-0.3-2.7-1.3-2.7c-2.9,0-4.6,4.8-5,7.8C12.7,19.6,14.6,16.3,14.8,14.4z"/>
		<path class="st3" d="M26.6,32.7c-2.9,0-4.8-2.3-4.5-5.2l3.7-26.2h6l-3.7,26.2c-0.1,0.7,0.4,1.2,1.1,1.2c0.6,0,1.4-0.6,1.4-1.2
			l0.3-2h1.9l-0.3,2C32.2,30.4,29.5,32.7,26.6,32.7z"/>
		<path class="st3" d="M51,9c2.4,0,4.4,1.8,4.5,4.1C56.9,11.3,59.3,9,62,9c2.9,0,4.9,2.3,4.5,5.2l-1.9,13.3
			c-0.1,0.7,0.4,1.2,1.1,1.2c0.6,0,1.4-0.6,1.4-1.2l0.3-2h1.9l-0.3,2c-0.4,2.9-3.1,5.2-5.9,5.2c-2.9,0-4.8-2.3-4.5-5.2l1.9-13.3
			c0.1-0.7-0.4-1.2-1.1-1.2c-1,0-2.5,1.9-4.4,4.4l-2.1,14.6h-6l2.5-17.8c0.1-0.7-0.4-1.2-1.1-1.2c-1,0-2.5,1.9-4.4,4.4l-2.1,14.6h-6
			l2.4-17.1c0.1-0.7-0.4-1.2-1.1-1.2c-0.7,0-1.4,0.6-1.5,1.2l-0.3,1.9h-1.9l0.3-1.9c0.4-2.9,3.1-5.2,5.9-5.2c2.3,0,4.1,1.6,4.5,3.7
			C45.8,11.4,48.2,9,51,9z"/>
		<path class="st3" d="M81.5,13.2C82.9,11.3,84.9,9,88,9c3.2,0,5.5,2.6,5,5.8l-1.8,12.7c-0.1,0.7,0.4,1.2,1.1,1.2
			c0.6,0,1.3-0.6,1.4-1.2l0.3-2H96l-0.3,2c-0.4,2.9-3.1,5.2-5.9,5.2s-4.9-2.3-4.5-5.2l1.8-12.4c0.2-1-0.6-1.8-1.6-1.8
			c-1,0-1.9,0.8-3.7,3.2l-1.6,2l-1.8,13.4h-6l2.4-17.1c0.1-0.7-0.4-1.2-1.1-1.2c-0.7,0-1.3,0.6-1.5,1.2l-0.3,1.9h-1.9l0.3-1.9
			c0.4-2.9,3.1-5.2,5.9-5.2c2.7,0,4.6,2,4.5,4.6L81.5,13.2z"/>
		<path class="st3" d="M96,13l0.4-3.1h4.6l0.7-5.2h6l-0.7,5.2h6l-0.5,3.1h-6l-2,14.5c-0.1,0.7,0.4,1.2,1.1,1.2
			c0.6,0,1.3-0.6,1.4-1.2l0.3-2h1.9l-0.3,2c-0.4,2.9-3.1,5.2-5.9,5.2c-2.9,0-4.8-2.3-4.5-5.2l2-14.5H96z"/>
		<path class="st3" d="M111.9,28.9c0.3-1.9,2-3.5,3.9-3.5c1.9,0,3.2,1.6,3,3.5c-0.3,1.9-2,3.4-3.9,3.4
			C113,32.3,111.7,30.8,111.9,28.9z"/>
	</g>
</g>
<g id="elmnt_only">
	<g id="elmnt_1_">
		<path class="st3" d="M8.1,21.9c-0.9,6,1,7.7,3.5,7.7c2.6,0,4.7-2.9,5.2-4.9l2.4,0.5c-0.9,3.2-3.7,7.3-9.3,7.3
			c-6.1,0-9.6-5.5-8.7-11.6C2.1,14.6,7.1,9,13.7,9c5.8,0,7.3,3.5,7,6.2C20.2,18.8,15.6,21.9,8.1,21.9z M14.8,14.4
			c0.2-1.7-0.3-2.7-1.3-2.7c-2.9,0-4.6,4.8-5,7.8C12.7,19.6,14.6,16.3,14.8,14.4z"/>
		<path class="st3" d="M26.6,32.7c-2.9,0-4.8-2.3-4.5-5.2l3.7-26.2h6l-3.7,26.2c-0.1,0.7,0.4,1.2,1.1,1.2c0.6,0,1.4-0.6,1.4-1.2
			l0.3-2h1.9l-0.3,2C32.2,30.4,29.5,32.7,26.6,32.7z"/>
		<path class="st3" d="M51,9c2.4,0,4.4,1.8,4.5,4.1C56.9,11.3,59.3,9,62,9c2.9,0,4.9,2.3,4.5,5.2l-1.9,13.3
			c-0.1,0.7,0.4,1.2,1.1,1.2c0.6,0,1.4-0.6,1.4-1.2l0.3-2h1.9l-0.3,2c-0.4,2.9-3.1,5.2-5.9,5.2c-2.9,0-4.8-2.3-4.5-5.2l1.9-13.3
			c0.1-0.7-0.4-1.2-1.1-1.2c-1,0-2.5,1.9-4.4,4.4l-2.1,14.6h-6l2.5-17.8c0.1-0.7-0.4-1.2-1.1-1.2c-1,0-2.5,1.9-4.4,4.4l-2.1,14.6h-6
			l2.4-17.1c0.1-0.7-0.4-1.2-1.1-1.2c-0.7,0-1.4,0.6-1.5,1.2l-0.3,1.9h-1.9l0.3-1.9c0.4-2.9,3.1-5.2,5.9-5.2c2.3,0,4.1,1.6,4.5,3.7
			C45.8,11.4,48.2,9,51,9z"/>
		<path class="st3" d="M81.5,13.2C82.9,11.3,84.9,9,88,9c3.2,0,5.5,2.6,5,5.8l-1.8,12.7c-0.1,0.7,0.4,1.2,1.1,1.2
			c0.6,0,1.3-0.6,1.4-1.2l0.3-2H96l-0.3,2c-0.4,2.9-3.1,5.2-5.9,5.2s-4.9-2.3-4.5-5.2l1.8-12.4c0.2-1-0.6-1.8-1.6-1.8
			c-1,0-1.9,0.8-3.7,3.2l-1.6,2l-1.8,13.4h-6l2.4-17.1c0.1-0.7-0.4-1.2-1.1-1.2c-0.7,0-1.3,0.6-1.5,1.2l-0.3,1.9h-1.9l0.3-1.9
			c0.4-2.9,3.1-5.2,5.9-5.2c2.7,0,4.6,2,4.5,4.6L81.5,13.2z"/>
		<path class="st3" d="M96,13l0.4-3.1h4.6l0.7-5.2h6l-0.7,5.2h6l-0.5,3.1h-6l-2,14.5c-0.1,0.7,0.4,1.2,1.1,1.2
			c0.6,0,1.3-0.6,1.4-1.2l0.3-2h1.9l-0.3,2c-0.4,2.9-3.1,5.2-5.9,5.2c-2.9,0-4.8-2.3-4.5-5.2l2-14.5H96z"/>
		<path class="st3" d="M111.9,28.9c0.3-1.9,2-3.5,3.9-3.5c1.9,0,3.2,1.6,3,3.5c-0.3,1.9-2,3.4-3.9,3.4
			C113,32.3,111.7,30.8,111.9,28.9z"/>
	</g>
</g>
</svg>
