<svg id="Layer_1" data-name="Layer 1" xmlns="http://www.w3.org/2000/svg" viewBox="0 0 200 200"><defs><style>.cls-1{fill:#547980;}</style></defs><title>typewriter</title><path class="cls-1" d="M60.25,141.5A6.24,6.24,0,0,0,54,135.25H41.5a6.25,6.25,0,0,0,0,12.5H54a6.24,6.24,0,0,0,6.25-6.25" transform="translate(-4 -4)"/><path class="cls-1" d="M72.75,160.25H60.25a6.25,6.25,0,0,0,0,12.5h12.5a6.25,6.25,0,0,0,0-12.5" transform="translate(-4 -4)"/><path class="cls-1" d="M97.75,141.5a6.24,6.24,0,0,0-6.25-6.25H79a6.25,6.25,0,0,0,0,12.5H91.5a6.24,6.24,0,0,0,6.25-6.25" transform="translate(-4 -4)"/><path class="cls-1" d="M110.25,160.25H97.75a6.25,6.25,0,0,0,0,12.5h12.5a6.25,6.25,0,0,0,0-12.5" transform="translate(-4 -4)"/><path class="cls-1" d="M135.25,141.5a6.24,6.24,0,0,0-6.25-6.25H116.5a6.25,6.25,0,0,0,0,12.5H129a6.24,6.24,0,0,0,6.25-6.25" transform="translate(-4 -4)"/><path class="cls-1" d="M147.75,160.25h-12.5a6.25,6.25,0,0,0,0,12.5h12.5a6.25,6.25,0,0,0,0-12.5" transform="translate(-4 -4)"/><path class="cls-1" d="M166.49,135.25H154a6.25,6.25,0,0,0,0,12.5h12.5a6.25,6.25,0,0,0,0-12.5" transform="translate(-4 -4)"/><path class="cls-1" d="M138.36,29H69.62a3.13,3.13,0,0,0,0,6.25h68.75a3.13,3.13,0,0,0,0-6.25" transform="translate(-4 -4)"/><path class="cls-1" d="M138.36,54H69.62a3.13,3.13,0,0,0,0,6.25h68.75a3.13,3.13,0,0,0,0-6.25" transform="translate(-4 -4)"/><path class="cls-1" d="M190.41,109.44a18.7,18.7,0,0,0-5.17-36.69h-12.5V16.5A12.5,12.5,0,0,0,160.25,4H47.75a12.5,12.5,0,0,0-12.5,12.5V72.75H22.75a18.7,18.7,0,0,0-5.15,36.69L4,166.5c0,25,16.06,37.5,37.5,37.5h125c21.44,0,37.5-12.5,37.5-37.5ZM47.75,16.5h112.5V79H47.75ZM16.5,91.5a6.25,6.25,0,0,1,6.25-6.25H185.24a6.25,6.25,0,0,1,0,12.5H22.75A6.25,6.25,0,0,1,16.5,91.5M128.83,104a30.93,30.93,0,0,1-49.68,0Zm37.67,87.5h-125c-11.14,0-24.38-4.14-25-23.62L31.75,104H71.57a37.41,37.41,0,0,0,64.85,0h39.85l15.21,63.88c-.59,19.47-13.84,23.62-25,23.62" transform="translate(-4 -4)"/></svg>