<?xml version="1.0" encoding="utf-8"?>
<!-- Generator: Adobe Illustrator 16.0.0, SVG Export Plug-In . SVG Version: 6.00 Build 0)  -->
<!DOCTYPE svg PUBLIC "-//W3C//DTD SVG 1.1//EN" "http://www.w3.org/Graphics/SVG/1.1/DTD/svg11.dtd">
<svg version="1.1" id="Layer_1" xmlns="http://www.w3.org/2000/svg" xmlns:xlink="http://www.w3.org/1999/xlink" x="0px" y="0px"
	 width="36" height="36" viewBox="0 0 36 36" enable-background="new 0 0 36 36" xml:space="preserve">
<g>
	<defs>
		<rect id="SVGID_1_" width="36" height="36"/>
	</defs>
	<clipPath id="SVGID_2_">
		<use xlink:href="#SVGID_1_"  overflow="visible"/>
	</clipPath>
	<g clip-path="url(#SVGID_2_)">
		<defs>
			<rect id="SVGID_3_" width="36" height="36"/>
		</defs>
		<clipPath id="SVGID_4_">
			<use xlink:href="#SVGID_3_"  overflow="visible"/>
		</clipPath>
		<path clip-path="url(#SVGID_4_)" fill="indianred" d="M31.721,20.407c-1.216-1.216-2.756-1.982-4.424-2.237l4.736-4.717
			c2.618-2.617,2.618-6.873,0.003-9.488C30.769,2.697,29.085,2,27.294,2c-1.792,0-3.477,0.697-4.744,1.965l-4.733,4.753
			c-0.252-1.64-0.993-3.208-2.224-4.439C14.084,2.771,12.079,1.94,9.943,1.94c-0.699,0-1.397,0.092-2.071,0.272
			C7.181,2.396,6.641,2.935,6.456,3.626C6.27,4.316,6.466,5.052,6.973,5.558l2.913,2.913L9.649,9.65L8.472,9.886L5.558,6.972
			c-0.38-0.38-0.89-0.586-1.414-0.586c-0.173,0-0.348,0.023-0.519,0.069C2.934,6.64,2.395,7.181,2.21,7.873
			c-0.732,2.754,0.06,5.713,2.068,7.719c1.223,1.225,2.778,1.994,4.46,2.243l-4.017,4.034c-0.258,0.258-0.439,0.582-0.525,0.935
			l-2.138,8.719c-0.167,0.681,0.034,1.397,0.528,1.892C2.965,33.795,3.478,34,4.001,34c0.158,0,0.318-0.019,0.476-0.058l8.717-2.137
			c0.353-0.088,0.678-0.269,0.935-0.524l4.048-4.031c0.247,1.651,0.99,3.231,2.229,4.471c1.509,1.508,3.515,2.339,5.649,2.339
			c0.699,0,1.396-0.092,2.071-0.271c0.691-0.186,1.231-0.724,1.417-1.414c0.186-0.691-0.012-1.427-0.518-1.934l-2.913-2.913
			l0.236-1.18l1.178-0.234l2.913,2.912c0.38,0.381,0.891,0.587,1.414,0.587c0.173,0,0.348-0.022,0.519-0.068
			c0.691-0.187,1.229-0.727,1.414-1.417C34.522,25.374,33.729,22.416,31.721,20.407 M23.964,5.379C24.884,4.459,26.089,4,27.294,4
			c1.204,0,2.408,0.459,3.328,1.379c1.838,1.838,1.838,4.82,0,6.658l-0.559,0.556l-6.656-6.656L23.964,5.379z M22.702,6.646
			l6.652,6.653l-6.21,6.182l-6.625-6.625L22.702,6.646z M4.001,32l1.979-8.075l6.097,6.096L4.001,32z M13.026,29.556l-6.582-6.582
			l6.421-6.448l6.608,6.61L13.026,29.556z M31.855,27.613l-3.67-3.671l-3.535,0.707l-0.707,3.536l3.67,3.67
			c-0.51,0.137-1.033,0.204-1.557,0.204c-1.533,0-3.064-0.583-4.235-1.753c-1.367-1.368-1.915-3.228-1.685-5.007
			c0.099-0.763,0.326-1.512,0.717-2.199l-7.283-7.284l-0.671-0.671c-0.687,0.391-1.436,0.617-2.197,0.717
			c0,0-0.524,0.068-0.777,0.068c-1.532,0-3.063-0.583-4.233-1.753c-1.569-1.569-2.081-3.79-1.549-5.792l3.671,3.671l3.535-0.707
			l0.707-3.536l-3.67-3.67C8.896,4.009,9.419,3.94,9.943,3.94c1.533,0,3.064,0.583,4.235,1.753c1.361,1.361,1.909,3.211,1.688,4.984
			c-0.097,0.77-0.324,1.528-0.719,2.222l0.666,0.666l6.622,6.622l0.666,0.666c0.694-0.395,1.451-0.623,2.223-0.719
			c0,0,0.505-0.066,0.749-0.066c1.532,0,3.063,0.584,4.233,1.755C31.877,23.391,32.389,25.611,31.855,27.613"/>
	</g>
</g>
</svg>
