<svg id="BG" xmlns="http://www.w3.org/2000/svg" xmlns:xlink="http://www.w3.org/1999/xlink" viewBox="0 0 2048 1496"><defs><style>.cls-1,.cls-16,.cls-17,.cls-18,.cls-41,.cls-57,.cls-62,.cls-74,.cls-79{fill:#fff;}.cls-2,.cls-34,.cls-46,.cls-64{fill:#00bce4;}.cls-2,.cls-37,.cls-41,.cls-67,.cls-7{opacity:0.1;}.cls-11,.cls-14,.cls-15,.cls-29,.cls-3,.cls-34,.cls-38,.cls-39,.cls-54,.cls-55,.cls-68{opacity:0.3;}.cls-3{fill:url(#linear-gradient);}.cls-4{fill:#006325;}.cls-5{fill:#dee1bd;}.cls-28,.cls-32,.cls-44,.cls-5,.cls-56,.cls-57,.cls-82{opacity:0.5;}.cls-6{fill:#8dc63f;}.cls-12,.cls-30,.cls-33,.cls-42,.cls-46,.cls-6,.cls-60,.cls-62,.cls-8{opacity:0.2;}.cls-27,.cls-39,.cls-40,.cls-50,.cls-7,.cls-8{fill:#172934;}.cls-9{fill:#004a61;}.cls-10{fill:#72cdf4;}.cls-11,.cls-12{fill:#004990;}.cls-13,.cls-14,.cls-15,.cls-19,.cls-25,.cls-26,.cls-52,.cls-58,.cls-63,.cls-75,.cls-76,.cls-78{fill:none;}.cls-13,.cls-78{stroke:#00abdf;}.cls-13,.cls-14,.cls-15,.cls-19,.cls-25,.cls-26,.cls-52,.cls-58,.cls-63,.cls-65,.cls-75,.cls-78{stroke-linecap:round;stroke-linejoin:round;}.cls-13,.cls-14{stroke-width:1.8px;}.cls-13,.cls-18,.cls-31,.cls-51,.cls-69{opacity:0.4;}.cls-14,.cls-15,.cls-65{stroke:#fff;}.cls-15{stroke-width:2.21px;}.cls-16{opacity:0.8;}.cls-17,.cls-35,.cls-61{opacity:0.6;}.cls-19,.cls-75,.cls-76{stroke:#007db1;}.cls-19,.cls-26,.cls-65{stroke-width:2.65px;}.cls-20{fill:#95a0a9;}.cls-21,.cls-22,.cls-23,.cls-28,.cls-42,.cls-68,.cls-69,.cls-73{fill:#5c6f7c;}.cls-21{opacity:0.45;}.cls-22,.cls-40,.cls-66,.cls-79{opacity:0.7;}.cls-24,.cls-29,.cls-33,.cls-43,.cls-67{fill:#eaeff2;}.cls-24,.cls-47,.cls-73{opacity:0.25;}.cls-25,.cls-26{stroke:#172934;}.cls-25,.cls-52,.cls-58,.cls-63{stroke-width:3.54px;}.cls-30,.cls-31,.cls-32,.cls-36,.cls-37,.cls-38,.cls-47,.cls-66{fill:#425968;}.cls-35{fill:#84939d;}.cls-36,.cls-43,.cls-45,.cls-50{opacity:0.15;}.cls-44{fill:url(#linear-gradient-2);}.cls-45,.cls-49{fill:#06a5ca;}.cls-48{fill:#a7b1b9;}.cls-51,.cls-56{fill:#fffac4;}.cls-52{stroke:#0073ae;}.cls-53{fill:#ffd200;}.cls-54{fill:#bb8d0b;}.cls-55{fill:#fff203;}.cls-58{stroke:#e7a614;}.cls-59,.cls-61{fill:#f16d9a;}.cls-60{fill:#8e0c3a;}.cls-63{stroke:#ef5091;}.cls-65{fill:url(#linear-gradient-3);}.cls-70{fill:#aab4bb;}.cls-71{fill:url(#linear-gradient-4);}.cls-72{fill:#74848f;}.cls-74{opacity:0.9;}.cls-75,.cls-76,.cls-78{stroke-width:1.77px;}.cls-76{stroke-miterlimit:10;}.cls-77{fill:#b9e0f7;}.cls-80{fill:#8cd2f4;}.cls-81{fill:#0073ae;}</style><linearGradient id="linear-gradient" x1="1024" y1="1496" x2="1024" gradientUnits="userSpaceOnUse"><stop offset="0" stop-color="#fff"/><stop offset="0.08" stop-color="#f6fafd"/><stop offset="0.22" stop-color="#deedf7"/><stop offset="0.4" stop-color="#b6d9ed"/><stop offset="0.6" stop-color="#7fbce0"/><stop offset="0.83" stop-color="#3997cf"/><stop offset="1" stop-color="#0079c1"/></linearGradient><linearGradient id="linear-gradient-2" x1="1519.79" y1="683.74" x2="1542.51" y2="706.46" gradientUnits="userSpaceOnUse"><stop offset="0" stop-color="#fff"/><stop offset="0.23" stop-color="#fcfefe"/><stop offset="0.37" stop-color="#f4fbfd"/><stop offset="0.48" stop-color="#e6f6fa"/><stop offset="0.58" stop-color="#d1eff5"/><stop offset="0.67" stop-color="#b7e5f0"/><stop offset="0.76" stop-color="#97d9e9"/><stop offset="0.84" stop-color="#70cbe1"/><stop offset="0.91" stop-color="#44bbd7"/><stop offset="0.98" stop-color="#13aacd"/><stop offset="1" stop-color="#06a5ca"/></linearGradient><linearGradient id="linear-gradient-3" x1="895.3" y1="1174.49" x2="895.3" y2="1219.85" gradientUnits="userSpaceOnUse"><stop offset="0" stop-color="#fff"/><stop offset="0.16" stop-color="#c2eff9"/><stop offset="0.32" stop-color="#88e0f2"/><stop offset="0.49" stop-color="#57d3ed"/><stop offset="0.64" stop-color="#31c9e9"/><stop offset="0.78" stop-color="#16c2e6"/><stop offset="0.9" stop-color="#06bee5"/><stop offset="1" stop-color="#00bce4"/></linearGradient><linearGradient id="linear-gradient-4" x1="729.54" y1="878.3" x2="789.18" y2="937.95" gradientUnits="userSpaceOnUse"><stop offset="0" stop-color="#95a1aa"/><stop offset="1" stop-color="#84929c"/></linearGradient></defs><title>3-elephants</title><g id="BG_white" data-name="BG white"><rect class="cls-1" width="2048" height="1496"/></g><g id="BG-2" data-name="BG"><rect class="cls-2" width="2048" height="1496"/></g><g id="BG_2" data-name="BG 2"><rect class="cls-3" width="2048" height="1496"/></g><g id="GRASS"><rect class="cls-4" y="1066" width="2048" height="430"/><rect id="neutral_green" data-name="neutral green" class="cls-5" y="1066" width="2048" height="430"/><rect id="bright_green" data-name="bright green" class="cls-6" y="1066" width="2048" height="430"/></g><g id="shadow"><path id="gradient" class="cls-7" d="M1956.61,1342.71c-36.34,7.55-44.3,1.48-44.3,1.48-35.91-22.52-66.88-35.79-93.06-43.13a11.43,11.43,0,0,0,1.16-4.91c0-7.68-8.33-14.82-22.62-20.76,14.17,3.93,29.08,12,50.86,10.53,36.48-2.5,12.79-24.15-12.42-22.26s4-13.13-79.28-27.62c-32.42-5.64-55.73,6.17-72.11,22.69-53.66.09-99.88,8.89-121.25,21.58-9.5-.76-19.53-1.17-29.9-1.17-33.7,0-63.81,4.31-83.78,11.07a220.18,220.18,0,0,0-20.93-8.58s-65.09-49.92-203.25,36.7c0,0-8,6.08-44.3-1.48-20.6-4.28-26.73,5.1-24.21,17.9-55.95-5.08-121.33-8-191.2-8-206.48,0-423.88,22.05-423.88,53.49S721.86,1451,928.34,1451s411.56-35.88,411.56-67.31a11.36,11.36,0,0,0-3-7.3c38.22,4.17,101.15,3.63,175,5.58,12.54,0.33-21.3,15.86,39.76,22.47,139.44,15.09,254.19-19.83,254.19-44.28,0-9.61-17.57-18.5-47.41-25.75,62.53-5.24,108.1,32,108.1,32s-7,41.55,8.86,32.41c24.83-14.33,65.35,13.71,87.12-7.49S1992.95,1335.16,1956.61,1342.71Zm-658.7,14.73c-7.49-2.19-15.89-4.3-25.12-6.32-0.45-5.87-1.23-10.55-1.23-10.55s55.51-45.4,128.07-28.94c11.09,2.52,20.41,4.22,28.24,5.29a25.27,25.27,0,0,0,4.62,4.11C1356.45,1328.07,1303.38,1341.64,1297.91,1357.45Z"/><path class="cls-7" d="M1742.06,1342.11c5.64,12.29,7.79,46.47-95.13,48.93-22.2.53-52.43,0.66-84.51-4.53-37.8-6.12-10.62-23.7-34.29-21.35-139.26,13.82-177.25.27-177.25-13.76,0-15.84,94.59-28.68,211.27-28.68S1733.26,1322.93,1742.06,1342.11Z"/><ellipse class="cls-8" cx="904.44" cy="1369.58" rx="347.79" ry="54.87"/></g><g id="snout_water_behind" data-name="snout water behind"><path class="cls-1" d="M931.1,672c3.94-2.24,4-7.73,8.28-6.11,5.4,2,8.21,4.85,15.08,2.81,5.23,10.68,10.11,12.07,16.16,12.66,4.49,0.44,21.8-4.77,18.38-13.4-3-7.52-3.09-8.07-8.8-13.2-5-4.46-11.92-1.25-16.86-7.38-6.08-7.55-11.82-2.62-22.62-.4-7.39,1.52-5.91,6.46-11.84,11.06-3.84,3-5.1-4.86-11.39,2.71C913.76,665.25,924.66,675.67,931.1,672Z"/></g><g id="water_resize_move" data-name="water resize &amp; move"><path id="behind" class="cls-9" d="M913.87,527.85s-15.12,2.09-19.89,19c-4.37,15.45-.6,25.06,6,28.21,11,5.26,17.56-11.35,23.86-12.53a104.13,104.13,0,0,1,11.24-1.5s-12.39,19.8-4.05,26.65c7.17,5.89,11.42-2.9,17-4.89s9.79-3.24,9.79-3.24l7.22-26.6-19-18.62Z"/><path id="behind-2" data-name="behind" class="cls-9" d="M973.46,582.79s18.62-24,39.85-10.42c10.36,6.65,9.91-20.16,9.91-20.16l-27-1.31L973.71,562Z"/><path id="behind-3" data-name="behind" class="cls-9" d="M1087.73,544.24s16.4,28.37,2,38.5-34.17-16.52-34.17-16.52l4.63-25Z"/><path class="cls-10" d="M1116.75,541.92c0-9.45-4.87-36.22-40.86-45.29-41.8-10.53-71.27,12.14-71.27,12.14s-2.06-16.95-17-20.71-27.26,11.71-27.26,11.71-15.25-9.31-26.82-5.18a32.1,32.1,0,0,0-16.5,13.05l-5.25-3.58s-27.49-17.74-44.55-23.58-32.37-7-43,2.2c-3.38,2.93-9.82,8.85-6.57,17.8,3.45,9.5,14.07,2,18.58,3.41s7,6,7,6-14.84,3.64-21.3,13.27-10.84,26-1.35,32.29c11.91,7.93,43-13.29,43-13.29s-10.81,10.79-14.31,18.06-6,17.59,3.77,22.25c5.36,2.56,15.88-8.65,15.88-8.65s-2.75,9.57-3.06,16.87c-0.36,8.54,4.31,13.37,10.5,10.39,8-3.87,3-14.67,2.62-19.69s-1-34.46,22.31-47.09,58.32,10.17,54.46,36.37c-1.82,12.38-4.38,20-6.49,33.8-1.86,12.2-4.72,41.39-8.44,71.07l22.27,1.61c2.23-12,6.94-37.34,6.85-37.92-0.11-.75,6-46.64,7-55.67s10.23-27,23.35-25.31c20.72,2.68,8.33,15.21,19.42,20.64s13.54-3.55,13.54-3.55-2.09,21,8.14,22.75c7.29,1.24,8.37-5,8.37-5s5.36,11.13,11.76,8.35c14.63-6.36,13.32-17.36,13.21-20.21-0.41-10.81-7-30.72-7-30.72s5.15-1.93,7.32-1.44,6.59,5,10.93,7.48S1116.7,566.57,1116.75,541.92Z"/><g id="shadows_copy" data-name="shadows copy"><path class="cls-11" d="M832.4,503.83l4.16,0,6.45,5.86s1.82-.67,12.09-2.94,29.65,0.78,29.65.78-18-8-24.24-8.16-6.7,3.5-12.83,3.67-13.66-6.48-18.12-3.94S832.4,503.83,832.4,503.83Z"/><path class="cls-11" d="M840,554.32c0.46,0.2,21.52-10.25,21.52-10.25l6.81-6.29,8.11-4.6s4.18-8.07-1.48-5.62-18.56,8.67-21.34,11.38-3.29,6.4-7.29,8.4-9.57-.41-11.7,2.77S840,554.32,840,554.32Z"/><path class="cls-11" d="M872.15,562.11s-4.82-2.53-7.79,3.43-1.73,13.74-1.73,13.74l6.58-4.25Z"/><path class="cls-12" d="M1018.61,525.56c-5.6.63-6.6,3.63-10.93,4S991,523.23,981,532.69c-3,2.85-3.16,4.78-5.28,7.34-1.31-3.38-.58-7.07-1.27-9.74-1.56-6-1.33-7.88-9.34-11.78s-24.43-2-15.65.19,2.77,6.81,7.09,7.9,11.83,1.49,12.79,11,2.08,16.22.28,20.17c-3.09,6.8,6.61-.11,8.53-5.77a9.68,9.68,0,0,0,.24-4.5,16,16,0,0,0,2.14-2.49c5.61-7.83,10.32-8.25,16.67-10.46s13.33,6.3,17.56,5.8,3.87-7.64,11.5-11.59S1024.21,524.93,1018.61,525.56Z"/><path class="cls-11" d="M1058.67,532.51s9.89,17.19,9.82,18.27c0,0,6-2.89,6.81-2,0,0-4.52-14.32-8.39-16A13.64,13.64,0,0,0,1058.67,532.51Z"/><path class="cls-11" d="M1027.51,544.9s10.39,15,6.39,27.69c0,0,5.88-8,7.41-12.65s-7.21-13.56-9.39-18S1027.51,544.9,1027.51,544.9Z"/></g><g id="shadow_lines_copy" data-name="shadow lines copy"><path class="cls-13" d="M957.24,604.2s-5.71,36.74-5.68,52.67"/><path class="cls-13" d="M963.13,631.93s-3.66,25.74-10.7,44.49"/></g><g id="highlight_lines_copy" data-name="highlight lines copy"><path class="cls-14" d="M961.39,594.16s-5.71,36.74-5.68,52.67"/><path class="cls-15" d="M968.36,607.38s-4.47,31.47-13.08,54.4"/></g><g id="highlights_copy" data-name="highlights copy"><path class="cls-16" d="M881.2,486.76S863.3,476.51,846.05,476s-20,5.5-22.79,7.71c-10.57,8.33-4.73,17.74-4.73,17.74s7.93-10,18.76-9.13,10.29,4.07,17.28,3.19c7.26-.92-1.76-6.16,6.89-8.22S881.06,486.86,881.2,486.76Z"/><path class="cls-17" d="M867.17,506.1s-25.94,1.8-37.16,9.65a37.25,37.25,0,0,0-10.58,12s-7.2,15-3.25,22.64A11.77,11.77,0,0,0,828,556.79s-5.85-7.22-2.86-11.84,14.94-1.72,18.9-8.49-5.22-5.89,0-13.05,18.68-12.2,28.21-13S867.17,506.1,867.17,506.1Z"/><path class="cls-17" d="M959.88,499.93s-6.68-6.63-20.27-6.38-22.28,14-22.28,14l10.74,4.27s4.62-7.76,15.91-1.68C952.25,514.61,959.88,499.93,959.88,499.93Z"/><path class="cls-16" d="M1004.12,506s-2.28-14.55-16.12-17.88-25.65,9.42-25.65,9.42,1.18,8.13,13.29,7.27,10.46,7.4,16.31,7.42S1004.12,506,1004.12,506Z"/><path class="cls-16" d="M1025.33,499s26-10.59,53.55-1.25,34,27.28,34,27.28,6.52,19.78.92,29-25.39,4.34-25.39,4.34,2.22-11.58-9.64-20.8,4.85-15.21-1.64-21.15c-7.71-7.05-16.11,2.87-33.73,2.43S1025.33,499,1025.33,499Z"/><path class="cls-18" d="M1059.54,533.88s11.78,23.25,14,36,1.57,10.15.78,18.32S1062,600.94,1062,600.94a13.6,13.6,0,0,1-1.74-9.82c1.11-5.79,9.26-2.08,9.11-7.6s-7-9.62-13-23.21-3.11-21.15-1-23.6A8.24,8.24,0,0,1,1059.54,533.88Z"/><path class="cls-18" d="M1033.81,586.73s0.36,10.07,7,11.32,9.07-3.82,9.07-3.82a12.09,12.09,0,0,0-6.09-5.8A20.61,20.61,0,0,0,1033.81,586.73Z"/><path class="cls-18" d="M1033,555.72s2.81,17.2,0,20.87-7.77,4.78-7.47,4.46-8.45-2.66-9.85-6a24.56,24.56,0,0,1-1.68-6.63s8.81,4.19,12.76.34-2.69-10.71.73-14.28S1033,555.72,1033,555.72Z"/><path class="cls-18" d="M851,557.29s-7,9.55-4.3,17.33a11.66,11.66,0,0,0,9.84,8.15s4.74-4.2,3.41-7.84-5.28-1.26-6.65-3.94,2-8.81,2.43-14.23S851,557.29,851,557.29Z"/></g><path id="outline" class="cls-19" d="M941.06,674.62c3.67-29.38,6.49-58.1,8.33-70.18,2.11-13.8,4.67-21.42,6.49-33.8,3.86-26.2-31.19-49-54.46-36.37s-22.73,42.08-22.31,47.09,5.43,15.82-2.62,19.69c-6.18,3-10.85-1.85-10.5-10.39,0.3-7.3,3.06-16.87,3.06-16.87s-10.51,11.21-15.88,8.65c-9.74-4.66-7.27-15-3.77-22.25s14.31-18.06,14.31-18.06-31.12,21.22-43,13.29c-9.48-6.31-5.11-22.66,1.35-32.29s21.3-13.27,21.3-13.27-2.52-4.52-7-6-15.13,6.08-18.58-3.41c-3.25-9,3.19-14.87,6.57-17.8,10.6-9.18,25.9-8,43-2.2s44.55,23.58,44.55,23.58l5.25,3.58a32.1,32.1,0,0,1,16.5-13.05c11.57-4.13,26.82,5.18,26.82,5.18s12.34-15.47,27.26-11.71,17,20.71,17,20.71,29.47-22.67,71.27-12.14c36,9.06,40.88,35.84,40.86,45.29-0.05,24.65-26.21,17-30.55,14.56s-8.76-7-10.93-7.48-7.32,1.44-7.32,1.44,6.55,19.91,7,30.72c0.11,2.84,1.42,13.85-13.21,20.21-6.4,2.78-11.76-8.35-11.76-8.35s-1.07,6.29-8.37,5c-10.24-1.75-8.14-22.75-8.14-22.75s-2.45,9-13.54,3.55,1.29-18-19.42-20.64c-13.13-1.7-22.3,16.28-23.35,25.31s-7.16,54.92-7,55.67c0.09,0.57-4.48,25.21-6.75,37.38"/><g id="extra_lines" data-name="extra lines"><path class="cls-19" d="M917.07,507.64s16.83,7.26,21.68,9.19"/><path class="cls-19" d="M960.39,499.77s-4.79,5.56-4.94,5.9"/><path class="cls-19" d="M1004.63,508.78s0.64,5.39.84,6.89"/><path class="cls-19" d="M1068.06,550.8s-4.6-12.9-9.69-18.53"/><path class="cls-19" d="M1049.95,593s0.67-4.49-3.08-15.75"/><path class="cls-19" d="M1033.44,575.32a36.06,36.06,0,0,0-6.34-30.8"/><path class="cls-19" d="M863.71,542.12s1.26-2.9,12.54-8.94"/><path class="cls-19" d="M843.34,509.85s18.69-7.64,42.54-2"/><path class="cls-19" d="M868.93,574.25a88.74,88.74,0,0,1,3.39-12.35"/></g></g><g id="RIGHT_ELEPHANT" data-name="RIGHT ELEPHANT"><g id="RIGHT_EAR" data-name="RIGHT EAR"><path id="base" class="cls-20" d="M1547.81,624s8.41-35-19.91-46.46c-12.39-5-15,4-32.74-.44s-56.83-43.28-78.76-25.22c-15,12.39-12.46,32.49.44,47.79,11.95,14.16,12.83,26.11,12.83,42s-12.83,75.66-12.83,75.66-18.58,85,8,106.19,46.9-11.5,65.49-12.39,48.67,17.7,48.67,17.7Z"/><path id="base_darker" data-name="base darker" class="cls-21" d="M1547.81,624s8.41-35-19.91-46.46c-12.39-5-15,4-32.74-.44s-56.83-43.28-78.76-25.22c-15,12.39-12.46,32.49.44,47.79,11.95,14.16,12.83,26.11,12.83,42s-12.83,75.66-12.83,75.66-18.58,85,8,106.19,46.9-11.5,65.49-12.39,48.67,17.7,48.67,17.7Z"/><path class="cls-22" d="M1413,740.46c-3.52,26.76-5.8,69,11.83,83.1,26.55,21.24,46.9-11.5,65.49-12.39s48.67,17.7,48.67,17.7l3.82-88.42H1413Z"/><path class="cls-23" d="M1428.93,600.56s-10.62-18.14-11.06-24,0.44-10.62,2.66-12.54,3.1-3.69,7.67-3.84,5.6,0.15,8.85,2.36,17.55,13,23.3,17.26,16.08,13.13,20.06,17,10.47,11.65,12.24,14.75,5.31,12.24,5.31,12.24-8.11,8.7-7.38,11.36c0,0-9.05-19.18-21.83-32.89-9.85-10.57-23.27-16.34-28-17.11C1429.82,583.3,1428.93,600.56,1428.93,600.56Z"/><path class="cls-24" d="M1548.25,617.81s-0.22-24.34-5.75-29.2S1529,576,1522.59,575.56s-11.28,3.1-20.13,3.32S1475,566.27,1475,566.27l-18.14-10.4s-23.91-6.83-10.62,0c16.37,8.41,25.88,15.27,34.07,20.8s19.25,11.06,26.33,21.68,3.1,19.47,3.1,19.47A108.7,108.7,0,0,1,1529,615.6,75.14,75.14,0,0,1,1548.25,617.81Z"/><path id="outline-2" data-name="outline" class="cls-25" d="M1547.81,624s8.41-35-19.91-46.46c-12.39-5-15,4-32.74-.44s-56.83-43.28-78.76-25.22c-15,12.39-12.46,32.49.44,47.79,11.95,14.16,12.83,26.11,12.83,42s-12.83,75.66-12.83,75.66-18.58,85,8,106.19,46.9-11.5,65.49-12.39,48.67,17.7,48.67,17.7Z"/><path class="cls-26" d="M1497.81,633.74s7.08-19.47-27-46c-26.7-20.8-39.82-35.4-50-23.45s8.41,36.73,8.41,36.73"/></g><g id="MOUTH"><path id="base-2" data-name="base" class="cls-27" d="M1503.12,783.74s37.17,61.06,21.24,100.88l63.72,3.54,21.68-20.35-5.75-96.9-15-42-36.73,13.72-31.86,38.05Z"/><path id="outline-3" data-name="outline" class="cls-26" d="M1503.12,783.74s37.17,61.06,21.24,100.88l63.72,3.54,21.68-20.35-5.75-96.9-15-42-36.73,13.72-31.86,38.05Z"/></g><g id="RIGHT_ARM" data-name="RIGHT ARM"><path id="pinky" class="cls-20" d="M1307.1,1005.42s-24.78-24.78-48.23-1.33l0.44,14.16,43.36-2.66Z"/><path id="pinky_shadow" data-name="pinky shadow" class="cls-23" d="M1307.1,1005.42s-24.78-24.78-48.23-1.33l0.44,14.16,43.36-2.66Z"/><path id="pinky-2" data-name="pinky" class="cls-25" d="M1307.1,1005.42s-24.78-24.78-48.23-1.33l0.44,14.16,43.36-2.66Z"/><path id="middle_finger" data-name="middle finger" class="cls-20" d="M1292.95,1008.08s-30.09-8.85-50.88-9.74-13.27,16.81-11.95,29.2,0.46,21.49,13.72,22.12c18.58,0.88,12.83-23.89,12.83-23.89Z"/><path id="middle_finger_shadow" data-name="middle finger shadow" class="cls-28" d="M1292.95,1008.08s-30.09-8.85-50.88-9.74-13.27,16.81-11.95,29.2,0.46,21.49,13.72,22.12c18.58,0.88,12.83-23.89,12.83-23.89Z"/><g id="middle_finger_highlight" data-name="middle finger highlight"><path class="cls-29" d="M1227.68,1009.07s-1.55-6.64,5.75-9.73,31.2,2.54,31.2,2.54-17,.33-24.56,2A36.15,36.15,0,0,0,1227.68,1009.07Z"/></g><path id="middle_finger-2" data-name="middle finger" class="cls-25" d="M1292.95,1008.08s-30.09-8.85-50.88-9.74-13.27,16.81-11.95,29.2,0.46,21.49,13.72,22.12c18.58,0.88,12.83-23.89,12.83-23.89Z"/><path id="arm_shape" data-name="arm shape" class="cls-20" d="M1501.79,917.37s-61.5,11.06-119.91,37.61c-21.62,9.83-49.56,34.07-109.29,57.52-22.18,8.71-72.53-7.64-61.95,23.45,7.08,20.8,29.2-4.42,44.69-4.87,14.83-.42,21.63.43,34.07,4.42,24.78,8,15.31,42.31,47.34,31.86,20.35-6.64,17.05-18.57,11.5-26.55-7.08-10.18-34.09-3-23.89-19,12.39-19.47,23.45-20.8,38.94-27s73-17.26,73-17.26Z"/><path id="shadow_1" data-name="shadow 1" class="cls-30" d="M1391,952.77c-6.2-5.53,88.72-29.42,88.72-29.42s-23.45,17-33.85,25.88-32.74,33.63-32.74,33.63-29.43,5.31-54.42,13.94-32.74,22.34-32.74,22.34-4,9.07-3.54,9.73,11.5,5.31,11.5,5.31,8.85,2,13.5,5.31,4.87,12.83,4.87,12.83,4.42,5.09-12.17,14.38-26.77-4-26.77-4-7.52-15.71-13.72-22.12-31.64-9.73-31.64-9.73,31.42,1.11,42.26-6.19,16.45-19.1,28.76-26.11c12.83-7.3,71.21-23.85,76.11-37.17C1422.15,942.15,1397.15,958.3,1391,952.77Z"/><path id="shadow_2" data-name="shadow 2" class="cls-31" d="M1221.93,1016.71s-17.4,3.62-11.95,17.7c2.66,6.86,3.1,10.62,8.85,10.18s19.25-7.3,26.55-10.4a53.16,53.16,0,0,1,13.72-3.76s-21,4.87-34.51-.22S1221.93,1016.71,1221.93,1016.71Z"/><path class="cls-32" d="M1477.61,924.6s-56.2,40.12-64.9,59.44c0,0,27.73-45.28,16.08-46.9C1428.79,937.13,1475.1,920.47,1477.61,924.6Z"/><path id="arm_outline" data-name="arm outline" class="cls-25" d="M1501.79,917.37s-61.5,11.06-119.91,37.61c-21.62,9.83-49.56,34.07-109.29,57.52-22.18,8.71-72.53-7.64-61.95,23.45,7.08,20.8,29.2-4.42,44.69-4.87,14.83-.42,21.63.43,34.07,4.42,24.78,8,15.31,42.31,47.34,31.86,20.35-6.64,17.05-18.57,11.5-26.55-7.08-10.18-34.09-3-23.89-19,12.39-19.47,23.45-20.8,38.94-27s73-17.26,73-17.26Z"/></g><g id="RIGHT_FOOT" data-name="RIGHT FOOT"><path class="cls-20" d="M1432.77,1240.38s-20.7,13.28-23,29.79c-2.07,14.75,9.44,26.84,9.44,26.84s-63.13,11.21-61.95,47.2c0,0,17.11,16.52,81.71,15s86.43-12.09,86.43-12.09,8.56-12.39-3.83-34.22c-6.58-11.59,10.32-34.22,12.68-36"/><path class="cls-28" d="M1432.77,1240.38s-20.7,13.28-23,29.79c-2.07,14.75,9.44,26.84,9.44,26.84s-63.13,11.21-61.95,47.2c0,0,17.11,16.52,81.71,15s86.43-12.09,86.43-12.09,8.56-12.39-3.83-34.22c-6.58-11.59,10.32-34.22,12.68-36"/><path class="cls-31" d="M1526.57,1286.1s-7.37,15-5.6,24.19,6.19,14.46,7.08,21.24-2.65,16.22-2.65,16.22-19.17,6.79-76.11,11.5-92-15.34-92-15.34-0.88-13,4.13-13,28,21.53,80.53,16.52c57-5.44,41.55-21.44,44-36C1490.88,1281.09,1526.57,1286.1,1526.57,1286.1Z"/><path class="cls-31" d="M1429.23,1242.15s-14.45,13.87-19.47,25.66,10,28.61,10,28.61-29.2,6.49-28.91,9.73,29.79-2.95,45.72-1.48c10.31,1-7.37-9.44-5.6-26,1.08-10.11,21.83-5.9,41.3,4.13s36.58,11.8,39.53,29.5-2.36,38.94-2.36,38.94l16.22-4.13,1.48-20.65-7.37-17.7,7.67-24.78-93.51-43.66Z"/><path class="cls-31" d="M1395.6,1304.54s19.91-7.82,23-7.82c0,0-9.29-13-9.73-19.91s6.9,9.94,15.93,18c4.13,3.69,13.42,3.84,23,9.44,6.29,3.68-7.08.59-20.8-1.33S1395.6,1304.54,1395.6,1304.54Z"/><path id="highlight" class="cls-33" d="M1364.18,1325.34s11.73-16.59,27.21-19.47c0,0,15.93.66,21,8,4.38,6.29,4.65,11.73-6.64,11.95-13.14.26-8-4.42-21.24-6.2C1373.55,1318.12,1364.18,1325.34,1364.18,1325.34Z"/><path class="cls-25" d="M1432.77,1240.38s-20.7,13.28-23,29.79c-2.07,14.75,9.44,26.84,9.44,26.84s-63.13,11.21-61.95,47.2c0,0,17.11,16.52,81.71,15s86.43-12.09,86.43-12.09,8.56-12.39-3.83-34.22c-6.58-11.59,10.32-34.22,12.68-36"/></g><g id="RIGHT_EYE" data-name="RIGHT EYE"><ellipse id="outline-4" data-name="outline" class="cls-1" cx="1483.21" cy="668.4" rx="27.29" ry="26.84"/><ellipse class="cls-27" cx="1467.23" cy="678.34" rx="7.36" ry="12.46" transform="translate(-96.41 268.56) rotate(-10.13)"/><path class="cls-34" d="M1456.22,666.93s-0.66-10,4.65-15,4.42-4.87,9.29-7.74,2.66-1.11,7.74-2a40.83,40.83,0,0,1,11.06,0l-0.22,7.52s-2.8-3.46-8.78-1.92-11.73,3.83-15,8.26C1462.45,659.31,1456.22,666.93,1456.22,666.93Z"/><ellipse id="outline-5" data-name="outline" class="cls-26" cx="1483.21" cy="668.4" rx="27.29" ry="26.84"/></g><g id="BODY"><path id="base-3" data-name="base" class="cls-20" d="M1265.73,617.59c6.78-2.36,17.48-11.5,31-3.32s28.54,51.11,51.4,51.18c28.45,0.09,22-23.75,48.82-21.75,20.52,1.53,19.32,42.92,53.24,41.81s36.87-19.1,38.05-29.79S1485.79,628,1506.51,620s44.06-4.34,65,5.09c11.28,5.09,47.12,17.48,62.17-20.13,16.54-41.36,60.18-74.34,100.88-74.34,28.84,0,44.54,13.86,54.57,25.07s10.77,14.82,18.58,30.38,24.12,17.55,32.45,15.34,31-5,35.69,9.44-22,26-28.25,48.3c-4.82,17.38.44,32.38,1.11,47.79s2.88,30.53-6.64,42c-13.69,16.55-44.47,16.59-60.91,12.61-26.23-6.35-44-22.05-79.35-15.34s-43.07,57.23-43.07,57.23-3.26,12.64,14.16,44.25c27.14,49.26,156.12,191.43,105,324-41.89,108.7-277.54,182-369.91,50-58.41-83.48-33-151.33-19.47-194.25,20.16-63.78,98.67-109.29,98.67-109.29s18.61-12.44,24.34-16.37c3.54-2.43,4.81-3.54,2.88-7.3-2.59-5-14,2.52-23.23,4.2-4.87.88-11.73-2.23-11.73-8.19,0-10,10.4-12.61,17.48-13.5s39.82,2.21,39.82,2.21,44.51,3.4,52.65-26.55c10.47-38.5-5.61-100.88-12.83-100.88-15.24,0-11.65,33-45.57,44.25-31.94,10.55-45.72-14.49-58.7-8.55-20.65,9.44-31.79,9.94-49.56,3.25-11.36-4.28-18.88-15.78-25.66-35.4-6.63-19.16-5.9-36.58-20.5-39.82s-18.3,12.73-36.73,11.95c-20.8-.88-25.66-20.06-29.65-29.65s-10.62-36.28-10.62-36.28-2.88-13.27-15-18.14-26.7,8.7-26.7,8.7,0.74,8.7-2.51,14.46a27.5,27.5,0,0,1-8.56,9s-0.54,26-14.9,25.81c-13.27-.15-13.87-14-15-22.12s-0.88-15-2.21-32.74-15.93-22.34-22.12-27.43-30.09-26.33-11.5-40.71c23.32-18,45.21,21.77,51.33,30.09C1243.39,623.57,1258.95,620,1265.73,617.59Z"/><path id="shadow_1-2" data-name="shadow 1" class="cls-35" d="M1388.52,1027.55c-13.57,42.92-38.94,110.77,19.47,194.25,40.39,57.73,108.6,79.59,175.18,69.62,2-.29,1.81-25.66,53.58-44.1,59.66-21.25,56.1,10.55,64.75,5.46,18.19-10.7-14.75-59.29-47.49-61.06-63.89-3.45-160.18,19.47-195.57-36.28C1427.65,1106.94,1400.38,990,1388.52,1027.55Z"/><path id="shadow_2-2" data-name="shadow 2" class="cls-36" d="M1375.69,1080.2s-9.73,33.63.44,75.66c7.76,32,41.15,78.32,41.15,78.32s33.19,41.59,93.36,53.54a282.67,282.67,0,0,0,70.8,4.42s5.31-16.81,11.95-18.58-11.06-6.64-3.1-24.34,32.74-23,15.93-34.51c-26.3-18-64.6,48.67-125.66,19.47-89.86-43-90.27-150.44-93.36-164.6S1375.69,1080.2,1375.69,1080.2Z"/><path id="shadow_3" data-name="shadow 3" class="cls-37" d="M1721.85,1007.64s14.45-22.42,30.38-23.3l0.3,2.95,7.08,1.18s32.74,56.64,30.09,131.27c-2.42,68.11-56.93,110.91-56.93,110.91s26.25-87.32-17.4-85.84c-22.56.76-44.54,28.61-53.1,4.13s5.31-62.83,22.71-72.27,30.68,10,48.67.59,19.17-34.22,4.42-56C1732.44,1012.86,1721.85,1007.64,1721.85,1007.64Z"/><path id="shadow_4" data-name="shadow 4" class="cls-30" d="M1728.34,1000.56s8-15.34,23.89-16.22l0.3,2.95,7.08,1.18s32.74,56.64,30.09,131.27c-2.42,68.11-55.6.74-28.61-37.32,11.76-16.57,15-39.38-2.66-65.93C1749.38,1002.91,1728.34,1000.56,1728.34,1000.56Z"/><path id="shadow_6" data-name="shadow 6" class="cls-37" d="M1702.53,893.92s-10.4-13.27-27.21-41.81-17-42.92-17-42.92-4.5-17.74-15.71-15.27c-23.38,5.16-25.22,40.19-20.72,58.55,17.11,69.91,69,44.54,69,44.54Z"/><path id="shadow_7" data-name="shadow 7" class="cls-37" d="M1702.09,892s-20.94-30.09-28.91-43.36S1659,811.47,1659,811.47s-6.2-5.9-9.73-.29-11.21,37.76-.89,55.46c10.79,18.5,31.26,13.1,33.34,18.88C1687,900.26,1702.09,892,1702.09,892Z"/><path id="shadow_8" data-name="shadow 8" class="cls-38" d="M1544.57,617.37s-34.22-8-51.33,11.5c-7.42,8.44-5.31,31.86-5.31,31.86s10-17.7,18.88-24.78,34.51-10.32,52.21-4.13,2.06-10,2.06-10Z"/><path id="shadow_9" data-name="shadow 9" class="cls-36" d="M1655.78,759.85c-2.36,17,1.77,42.48,1.77,42.48s11.21-31.56,19.47-40.27,12.54-14.16,25.66-16.37,37.61,2.21,37.61,2.21-1.18-4.13,15-4-53.84-16.08-68.58-13.27S1658.14,742.89,1655.78,759.85Z"/><path id="shadow_trunk_1" data-name="shadow trunk 1" class="cls-36" d="M1567.72,754.32c5-4.47-8.54,32.1-35.18,41.81-23.67,8.63-55.09-10-55.09-10s-26.77,13.27-51.33,5.75-28.81-35.9-31-42.7c-4.42-13.94-2.88-28.76-15.27-33.19s-26.11,8-26.11,8-6,6.64-22.57,1.55-17.26-18.14-23-32.3-4.2-33.63-18.58-46.24c-10.89-9.55-31,4.42-31,4.42l-3.76-10.62s5.53,2.21,13.5-.44,9.51-4.87,15.71-4.43,17,8.19,23,20.58,13.05,43.36,26.55,48,40.49-10,54-1.33,25,51.77,46,59.73,25.07-12.46,46.31-10.47,27,10,43.36,10c21.53,0,36-14.82,36-14.82S1565.51,756.31,1567.72,754.32Z"/><path id="shadow_trunk_2" data-name="shadow trunk 2" class="cls-38" d="M1568.83,756.09s-11.28,28.1-31.64,37.61a51.8,51.8,0,0,1-39.16,1.55s-13.05-9.73-21.46-9.07-16.37,6.86-24.34,8.63-11.95.66-25.66-2.21-20.13-16.15-23.67-21.9-10-29-10-29-2.43-12.83,3.54-9.51,5.31,16.15,11.28,27.43c5.56,10.5,10.62,16.81,26.11,21.46s28.32-6.19,43.14-6.42,18.36,13.05,39.6,12.83,46.46-35.62,46.46-35.62Z"/><path id="shadow_trunk3" data-name="shadow trunk3" class="cls-38" d="M1306.55,687.28s10,30.31,14.93,32.74,6.2,6.19,12.94,6.75a100.83,100.83,0,0,0,15.38-.33l15.93-9.74s-15.49,7.41-31.08,1S1306.55,687.28,1306.55,687.28Z"/><path id="shadow_trunk_4" data-name="shadow trunk 4" class="cls-39" d="M1254.89,640.82s10.84,18.25-7.3,34.07L1246,661.62S1257.66,651.66,1254.89,640.82Z"/><path id="shadow_trunk_5" data-name="shadow trunk 5" class="cls-39" d="M1242.28,648.57s10.07,27.43.44,45.91c-4,7.64-14,6.75-14,6.75s-7.63.33-11.17-14.16-1-16.92-1-16.92a13.67,13.67,0,0,0,6.64,4.76c7.41,2.32,13.54-.41,15.71-4C1242.95,664.16,1242.28,648.57,1242.28,648.57Z"/><path id="shadow_trunk_6" data-name="shadow trunk 6" class="cls-40" d="M1209.65,632.64s18,11.62,20.13,20.46c0,0,5.53,14.71,0,19.14,0,0-5.75,9-13.5-3.32C1216.29,668.92,1214.18,636.84,1209.65,632.64Z"/><path id="highlight_1" data-name="highlight 1" class="cls-41" d="M1617.72,939.5c-10.85-3.74-28.75-.15-50.88,15.93-21.73,15.79-35.4-5.75-35.4-32.74,0-17.54-33-10.62-33-10.62a450.33,450.33,0,0,0-49.85,33.33c-25.07,19.47-49.41,57.82-49.41,57.82s27.14-6.93,38.05,5.75,0.09,102.5,93.51,115.19C1639.26,1138.91,1669.05,957.19,1617.72,939.5Z"/><path id="highlight_2" data-name="highlight 2" class="cls-41" d="M1561.09,1010.29c-24.78,17.7-35.4-21.24-58.41.88s-21.26,61.73,4,77.43c19.91,12.39,45.58,11.95,66.37.44,34.8-19.25,49.12-63.72,35-103.54S1585.87,992.59,1561.09,1010.29Z"/><path id="highlight_3" data-name="highlight 3" class="cls-29" d="M1179,605.31s-12.72-12.5.66-25.77,27.54-.66,27.54-0.66l17.15,17.92,10.07,15.27s-21-22.46-38.61-21S1179,605.31,1179,605.31Z"/><path id="highlight_4" data-name="highlight 4" class="cls-29" d="M1264.18,618.59s18.47-10.18,24.11-7.41,13.5,2.32,25.77,24.67c0,0-10.84-13.16-25-16.15A72.27,72.27,0,0,0,1264.18,618.59Z"/><path id="highlight_5" data-name="highlight 5" class="cls-33" d="M1480,688.46c1.12-9.15,6.49-23.6,6.49-23.6l-7.08,11.5s-7.3,6.71-25.07,9.15-27-8-27-8c-5.33-8-19.16-28.35-22.45-30.58-4.09-2.76-6.08-2.54-9-3.54s-7,.66-11.17,1.66-18.14,15.82-18.14,15.82,23.4-10.52,33.85,1.44c10.27,11.75,14.4,27.06,28.47,27.06,20.65,0,27.49,25.45,36.58,25.66C1490.58,715.6,1478.2,702.92,1480,688.46Z"/><path id="highlight_6" data-name="highlight 6" class="cls-42" d="M1322.44,648.05s10.62,17.7,24.19,17.4,18.58-4.72,18.58-4.72-6.49,28.32-20.94,23.6S1322.44,648.05,1322.44,648.05Z"/><path id="head_highlight" data-name="head highlight" class="cls-33" d="M1769.05,539.2c-6.49-4.13-11.8-6.2-22.12-7.37s-16.52-3.25-32.45,1.77-25.07,7.08-42.77,20.65c-13.82,10.59-25.65,28.55-30.18,35.93-0.31-.34-0.49-0.53-0.49-0.53s-10.32,24.19-23.3,36.58-51-2.06-51-2.06,29.79,14.9,5.31,28.91c-17.62,10.08,19.62,44,35.4,31,14.28-11.75-.15-23.26,15.63-40.41,11.95-13,31-29.5,56-69.62,10-15.92,24.78-23.3,50.15-27.14s46.61,14.75,51.33,10.91S1775.54,543.33,1769.05,539.2Z"/><path id="ear_highlight" data-name="ear highlight" class="cls-43" d="M1780.78,761.84s37.39,7.52,57.08-8,9.07-59.29,9.07-59.29-0.78,24.82-11.28,39.82C1826.35,747.68,1780.78,761.84,1780.78,761.84Z"/><path class="cls-33" d="M1836.9,602s17.4-3.24,24.19-2.06,12.09,5,13.86,8.26,1.18,7.67,1.18,9.73-18.58,23.3-18.58,23.3,5.6-10.62,3.83-21.24S1836.9,602,1836.9,602Z"/><path id="outline-6" data-name="outline" class="cls-25" d="M1265.73,617.59c6.78-2.36,17.48-11.5,31-3.32s28.54,51.11,51.4,51.18c28.45,0.09,22-23.75,48.82-21.75,20.52,1.53,19.32,42.92,53.24,41.81s36.87-19.1,38.05-29.79S1485.79,628,1506.51,620s44.06-4.34,65,5.09c11.28,5.09,47.12,17.48,62.17-20.13,16.54-41.36,60.18-74.34,100.88-74.34,28.84,0,44.54,13.86,54.57,25.07s10.77,14.82,18.58,30.38,24.12,17.55,32.45,15.34,31-5,35.69,9.44-22,26-28.25,48.3c-4.82,17.38.44,32.38,1.11,47.79s2.88,30.53-6.64,42c-13.69,16.55-44.47,16.59-60.91,12.61-26.23-6.35-44-22.05-79.35-15.34s-43.07,57.23-43.07,57.23-3.26,12.64,14.16,44.25c27.14,49.26,156.12,191.43,105,324-41.89,108.7-277.54,182-369.91,50-58.41-83.48-33-151.33-19.47-194.25,20.16-63.78,98.67-109.29,98.67-109.29s18.61-12.44,24.34-16.37c3.54-2.43,4.81-3.54,2.88-7.3-2.59-5-14,2.52-23.23,4.2-4.87.88-11.73-2.23-11.73-8.19,0-10,10.4-12.61,17.48-13.5s39.82,2.21,39.82,2.21,44.51,3.4,52.65-26.55c10.47-38.5-5.61-100.88-12.83-100.88-15.24,0-11.65,33-45.57,44.25-31.94,10.55-45.72-14.49-58.7-8.55-20.65,9.44-31.79,9.94-49.56,3.25-11.36-4.28-18.88-15.78-25.66-35.4-6.63-19.16-5.9-36.58-20.5-39.82s-18.3,12.73-36.73,11.95c-20.8-.88-25.66-20.06-29.65-29.65s-10.62-36.28-10.62-36.28-2.88-13.27-15-18.14-26.7,8.7-26.7,8.7,0.74,8.7-2.51,14.46a27.5,27.5,0,0,1-8.56,9s-0.54,26-14.9,25.81c-13.27-.15-13.87-14-15-22.12s-0.88-15-2.21-32.74-15.93-22.34-22.12-27.43-30.09-26.33-11.5-40.71c23.32-18,45.21,21.77,51.33,30.09C1243.39,623.57,1258.95,620,1265.73,617.59Z"/></g><g id="LEFT_EYE" data-name="LEFT EYE"><ellipse id="base-4" data-name="base" class="cls-1" cx="1520.6" cy="684.19" rx="26.99" ry="34.29"/><path id="left_eye_shadow" data-name="left eye shadow" class="cls-36" d="M1504.45,711.77s16.52,13.24,26.49,4.64c29-25,10.09-54.2,10.09-54.2s7.63,9.46,10.53,19.51c1.85,6.4,5,27.48-5.4,37.53-7.82,7.54-16.78,9.1-26.3,5.54C1513.83,722.55,1504.45,711.77,1504.45,711.77Z"/><path id="shadow-2" data-name="shadow" class="cls-44" d="M1541.32,662.21s10.7,19.29,3.83,38.94c-3.5,10-16.81,16.22-20.9,17.25-10.61,2.66-19.81-6.93-19.81-6.93s13.69-4.31,21.51-15.54S1541.32,662.21,1541.32,662.21Z"/><path id="shadow_2-3" data-name="shadow 2" class="cls-45" d="M1540.73,661.91s14.2,19.76,2.65,40.41c-7.34,13.14-17.42,15.79-19.13,16.07-10.79,1.8-19.81-7.22-19.81-7.22s15.12,5.8,27.06-4C1546.89,694.53,1540.73,661.91,1540.73,661.91Z"/><path id="top_shadow" data-name="top shadow" class="cls-46" d="M1535.64,655.87a20.75,20.75,0,0,0-21-5.09c-12.83,4-18.81,20.8-18.81,20.8s9.94-12.15,19.47-15.27C1526.79,652.55,1535.64,655.87,1535.64,655.87Z"/><ellipse id="outline-7" data-name="outline" class="cls-26" cx="1520.6" cy="684.19" rx="26.99" ry="34.29"/><ellipse class="cls-27" cx="1510.6" cy="692.64" rx="7.36" ry="12.46" transform="translate(-95.34 265.32) rotate(-9.73)"/></g><g id="LEFT_FOOT" data-name="LEFT FOOT"><path id="shape" class="cls-20" d="M1593.24,1274s-24.78,17.11-2.95,52.51c0,0-33,13.57-34.81,35.4-0.88,10.91,39.62,20.46,83.19,20s90.21-10.81,89.68-24.18c-0.59-14.75-1.77-18.88-9.44-25.37-7.88-6.67-13-7.08-20.65-23.6s1.77-60.18,1.77-60.18"/><path id="shadow_1-3" data-name="shadow 1" class="cls-35" d="M1567.87,1341.26a37.05,37.05,0,0,0-12.68,23c-2.36,15.34,137.17,31.27,172.27-3.54,0,0,4.13-22.42-9.44-28.32,0,0-13.86-11.5-18.58-19.47,0,0-7.08-7.37-3.54-40.71l4.42-21.83s-3.54-6.78-16.52-15.34-11.4,41.32-4.13,63.13c7.67,23-50.22,21.35-13,36.58,6.49,2.66,14.13,6.24,13,12.68-1.47,8.26-15.63,17.7-54.87,17.7S1567.87,1341.26,1567.87,1341.26Z"/><path id="shadow_2-4" data-name="shadow 2" class="cls-31" d="M1695.3,1283.45s-8.26,30.09,25.66,51c0,0,10.33,7.08,7.08,25.37,0,0,.88,13-58.11,20.35,0,0,39.53-16.52,37.76-30.68s-32.15-19.76-28.91-25.07,10.91-12.39,12.39-18A166.1,166.1,0,0,0,1695.3,1283.45Z"/><path id="shadow_3-2" data-name="shadow 3" class="cls-31" d="M1592.06,1275.11s-23,17.48-1.77,51.55a25.62,25.62,0,0,1,22.57,4.42c11.28,8.41-2.21-11.28-10.18-12.39s0-11.95,3.32-17.48S1592.06,1275.11,1592.06,1275.11Z"/><path id="highlight-2" data-name="highlight" class="cls-33" d="M1587.63,1328.43s-22.35,10-27.21,20.8,16.55,12.93,24.34,10.4c17-5.53,18.14-16.15,26.55-14.38s7.61-11.38-2-9.73C1587.41,1339.27,1587.63,1328.43,1587.63,1328.43Z"/><path class="cls-25" d="M1593.24,1274s-24.78,17.11-2.95,52.51c0,0-33,13.57-34.81,35.4-0.88,10.91,39.62,20.46,83.19,20s90.21-10.81,89.68-24.18c-0.59-14.75-1.77-18.88-9.44-25.37-7.88-6.67-13-7.08-20.65-23.6s1.77-60.18,1.77-60.18"/></g><g id="LEFT_ARM" data-name="LEFT ARM"><path id="base-5" data-name="base" class="cls-20" d="M1681,932.42s-12.7-34.28,22.57-39.38c33.63-4.87,73.89,23.89,101.33,46s72.86,83.92,88.35,68.88,22.72-18.07,32-18.44c18.73-.74,4.87,18.14,4.87,18.14s42.26-10.18,43.58,11.06c0.46,7.4-14.16,18.07-18.8,11.65-4.77-6.59-11.8-8-18-5.6-5.15,2-5.9,2.36-11.5,6.79s7.67,17.73,10.32,21.1,12.68-.75,15,9c4.15,17.11-24.39,16.69-30.38,12.39-13.57-9.73-13.57-27.73-28.76-31.42s-39.82,12.83-39.82,12.83a22,22,0,0,1-14.31,18.59c-26.25,10.32-32.45-17.55-27.73-21.83s9.44-.88,14.75-4.72,2.66-8.26,6.93-11.06,12.39,0.88,12.39.88l1.33-8s-65.49-49.41-95.58-41.15"/><path id="shadow_1-4" data-name="shadow 1" class="cls-30" d="M1684.54,939.05c-5.75-7.52-10.4-32.52,8.41-42.92,20.52-11.35,43.36-.44,67.7,11.06s71.68,53.76,83.63,69.69c8.07,10.77,42.48,37.17,46.9,33s23.89-18.58,23.89-18.58,15-6.19,19.91.88-3.54,15.49-3.54,15.49-5.53,3.76-17.7,4.42-10.84-2-22.12,4.42c-18.24,10.37-67-53.32-77.43-48.67-20.77,9.28-19.25-20.8-43.8-39.16-8.94-6.68-31.42.22-43.81-14.38-11.31-13.33-26.33,4.42-22.12,22.57C1709.09,956.89,1690.29,946.57,1684.54,939.05Z"/><path id="shadow_2-5" data-name="shadow 2" class="cls-30" d="M1947.81,1056.09c-4-2.88-10.62-1.77-10.62-1.77s6,16.59-11.73,8.85-11.95-19-23.89-25-23.89,0-33.41-4.87-79-58-96.46-56.86c-5.15.33-17.92,5.75-20.35,10.4,0,0,26.77-5.31,93.36,41.81,0,0,.79,30.82-6.24,34.88s-23.75,6.23-30.27-6.12c0,0,4.2,25.88,29.65,17.48l0.46-1.45a36.57,36.57,0,0,0,9.05-5.85c3.06-2.74,1.31-10.25,4.9-12.56,5.94-3.82,18.13-10.62,23.42-11.12,9.51-.88,12.59-2.1,17.92-0.88,7.74,1.77,18.36,21.24,22.79,28.1,4.33,6.7,11.5,6.64,21.46,5.31s11.28-3.1,13.05-9.07S1951.79,1059,1947.81,1056.09Z"/><path id="shadow_3-3" data-name="shadow 3" class="cls-47" d="M1933.5,1026.66s2.06-3.25,10.91-2.8,6.93,7.23,13.42,8.41,13.72-4,16.08-13-12.83-13.13-12.83-13.13,2.8,5-3.25,10.77-22.57.44-28.76,5.46S1933.5,1026.66,1933.5,1026.66Z"/><path id="highlight_1-2" data-name="highlight 1" class="cls-33" d="M1678.79,916.19s-0.64-21,24.19-23.3c20.8-1.92,25.15,1.25,41.3,7.67s12.83,5.75,12.83,5.75,9.44,30.24-17,31c-27.94.78-20.65-18.44-32.45-15.78C1688.32,925.86,1678.79,916.19,1678.79,916.19Z"/><path id="highlight_2-2" data-name="highlight 2" class="cls-29" d="M1904.74,1012.95s22.27-4.13,32.3-6.2a87.76,87.76,0,0,1,21.24-1.18s2,4.44-.29,7.38c-4.13,5.31-12.16.44-16.37-.44-9.88-2.07-18.14,1.77-24.48,5.75C1911.39,1021.86,1904.74,1012.95,1904.74,1012.95Z"/><path id="highlight_3-2" data-name="highlight 3" class="cls-29" d="M1905.78,1030.2c0.59-2.36,7.52-10.62,16.08,1.62l11.8,18.44s-7.23-4.87-12.09-1.47c-7.87,5.49-4.57-5.75-5.31-13.27C1915.66,1029.46,1905.19,1032.56,1905.78,1030.2Z"/><path id="highlight_4-2" data-name="highlight 4" class="cls-29" d="M1902.68,1000.12s18.58-15.19,27-10.33c0,0,6.9.72,4.57,8.7-2.07,7.08-5.61,4-8.26.29C1921.59,992.68,1902.68,1000.12,1902.68,1000.12Z"/><path id="outline-8" data-name="outline" class="cls-25" d="M1681,932.42s-12.7-34.28,22.57-39.38c33.63-4.87,73.89,23.89,101.33,46s72.86,83.92,88.35,68.88,22.72-18.07,32-18.44c18.73-.74,4.87,18.14,4.87,18.14s42.26-10.18,43.58,11.06c0.46,7.4-14.16,18.07-18.8,11.65-4.77-6.59-11.8-8-18-5.6-5.15,2-5.9,2.36-11.5,6.79s7.67,17.73,10.32,21.1,12.68-.75,15,9c4.15,17.11-24.39,16.69-30.38,12.39-13.57-9.73-13.57-27.73-28.76-31.42s-39.82,12.83-39.82,12.83a22,22,0,0,1-14.31,18.59c-26.25,10.32-32.45-17.55-27.73-21.83s9.44-.88,14.75-4.72,2.66-8.26,6.93-11.06,12.39,0.88,12.39.88l1.33-8s-65.49-49.41-95.58-41.15"/><path id="finger_lines" data-name="finger lines" class="cls-25" d="M1936.9,1006.16s-23.23,8.85-34.81,6.19"/><path id="finger_lines-2" data-name="finger lines" class="cls-25" d="M1851.16,1059a29,29,0,0,0,0-12.71"/><path id="finger_lines-3" data-name="finger lines" class="cls-25" d="M1925.58,1039.42s-3.43-13.49-13.76-12.9"/><g id="Layer_18" data-name="Layer 18"><path class="cls-26" d="M1739.85,999.08s8.26-14.75,25.66-20.35"/><path class="cls-26" d="M1721.26,1008.23s9.73-20.94,44.25-29.5"/></g></g><g id="EXTRA_LINES-2" data-name="EXTRA LINES"><path id="lip" class="cls-25" d="M1504.57,894.71s23.55-8.09,23.55,8.28"/><ellipse class="cls-48" cx="1581" cy="744.81" rx="12.98" ry="22.27" transform="translate(610.62 2198.31) rotate(-81.5)"/><path id="nose" class="cls-26" d="M1245.57,685.24s3.72-24.21-3.65-37.19"/><path id="nose-2" data-name="nose" class="cls-26" d="M1257.83,656.88a66.29,66.29,0,0,0-2.94-15.91"/><path id="nose-3" data-name="nose" class="cls-26" d="M1215.79,666.65s3.11,9.43,10.19,8.25c8.85-1.47,11.8-25.81-17.77-44"/><path class="cls-26" d="M1659.37,814.26s-7.14-39.37-3.6-54.41"/><path class="cls-25" d="M1558,744.8s9.74,22.12,41.15,10.18"/></g><g id="LEFT_EAR" data-name="LEFT EAR"><path id="shadow_1-5" data-name="shadow 1" class="cls-42" d="M1645.82,675.12s17.92-41.81,35.18-77.88c12.26-25.63,30.29-38.72,47.57-40.71,49.46-5.68,67.7,38.94,67.7,38.94l7.3,10.84s10.21,61.15-40.12,76.55c-56.52,17.3-97.71-10.18-109.66,8.41S1645.82,675.12,1645.82,675.12Z"/><path id="shadow_2-6" data-name="shadow 2" class="cls-28" d="M1665.21,632.12s12.69-26,17.4-35.1,15.34-38.35,46.9-40.71c27.1-2,25.37,3,35.4,6.78s22.42,19.17,22.42,19.17-33-8-59.29,2.06S1665.21,632.12,1665.21,632.12Z"/><path class="cls-26" d="M1645.16,675.34s26.55-61.95,43.36-89.82,42.92-31,53.1-29.65c21.94,2.86,39.82,11.95,53.54,38.05,8.6,16.37,17.26,15.93,17.26,15.93"/><path class="cls-26" d="M1669.68,621.45s-11,31.77-14.89,50.79"/></g></g><g id="POOL"><path id="bottom_shape" data-name="bottom shape" class="cls-49" d="M563.15,1302.92s-17.85,10.18-14.9,35.54,14.31,29.35,14.31,29.35,94.35,43.1,300.29,44.84c209.44,1.77,345.13-38.94,345.13-38.94s22.5-7.23,28.32-28.32c5.46-19.76-7.67-34.22-7.67-34.22Z"/><g id="bottom_shadow_1" data-name="bottom shadow 1"><path class="cls-50" d="M548,1328.21s-1.11,26.11,9.73,36.73,120.12,48.45,319.69,48.45c133.63,0,309.29-27.21,335.4-41.37s24.56-35,24.56-35-95.8,41.37-348,44.91C652,1385.3,548,1328.21,548,1328.21Z"/></g><g id="bottom_highlight" data-name="bottom highlight"><path class="cls-51" d="M743.09,1336.54s7.67,34.22,132.74,33.63c104.44-.49,126.84-27.14,126.84-27.14Z"/><path class="cls-51" d="M562,1299.39s-1.26,34.4,59.17,42.66c50.46,6.9,65.13-17.88,65.13-17.88Z"/><path class="cls-51" d="M1084.09,1333.59s30.68,17.11,69.62,14.75,54.28-7.08,62.54-16.52,16.52-12.39,16.52-12.39-5.9-18.88-10-19.47Z"/></g><path id="bottom_outline" data-name="bottom outline" class="cls-52" d="M563.15,1302.92s-17.85,10.18-14.9,35.54,14.31,29.35,14.31,29.35,94.35,43.1,300.29,44.84c209.44,1.77,345.13-38.94,345.13-38.94s22.5-7.23,28.32-28.32c5.46-19.76-7.67-34.22-7.67-34.22Z"/><path id="middle_outline" data-name="middle outline" class="cls-53" d="M573.18,1236.25s-23.6,15.34-24.19,37.17,16.52,33,16.52,33,74.34,38.94,323.3,45.43S1221,1317.08,1221,1317.08s25.37-13,23.6-36.58-17.11-33.63-17.11-33.63Z"/><path id="middle_shadow" data-name="middle shadow" class="cls-54" d="M549.58,1268.7s-2.43,12.24,3.54,23.6S563.45,1305,563.45,1305s42.77,36.28,342.47,47.49c224.19,5.6,310-32.45,319.17-37.76s14.09-12.83,17.41-20.35,0.88-16.81.88-16.81-96.46,42.48-339.82,41.59C676.12,1318.31,549.58,1268.7,549.58,1268.7Z"/><g id="middle_bottom_highlights" data-name="middle bottom highlights"><path class="cls-55" d="M760.2,1344.8s90.27,5.9,118.29,7.37,97.34,0.3,97.34.3-41.59-15-101.18-16.52S760.2,1344.8,760.2,1344.8Z"/><path class="cls-55" d="M1095.6,1345.1s80.23-13,96.75-18.29,25.07-8,29.79-10.32,13-11.5,13-11.5,7.08-15.63-11.8-5.6-24.19,16.52-42.48,17.7-31.56,4.72-45.72,8.85S1095.6,1345.1,1095.6,1345.1Z"/><path class="cls-55" d="M659.53,1332l-56.86-12.39s-27.21-6.64-35.62-11.73-14.82-18.36-14.82-18.36,12.61-10,23-3.1,12.39,19.47,22.12,23,17.7-3.1,30.09,1.11S659.53,1332,659.53,1332Z"/></g><g id="middle_top_highlights" data-name="middle top highlights"><path class="cls-56" d="M866,1285.07s138.05,0,164.6-1.33,65-5.75,65-5.75-25.31,22.63-39.82,26.11c-20.35,4.87-74.34,6.64-91.59-4C954.29,1294,866,1285.07,866,1285.07Z"/><path class="cls-57" d="M589.4,1255.87l61.5,13.72,82.74,8s-55.31,15.49-64.16,7.08-29.2-4.87-51.33-8S589.4,1255.87,589.4,1255.87Z"/><path class="cls-57" d="M1154.59,1269.58s54.87-15.63,61.95-18l12.09-4.72s10.91,13.57,12.09,18c0,0-13.86-.88-33.63,10.91S1154.59,1269.58,1154.59,1269.58Z"/></g><path id="middle_outline-2" data-name="middle outline" class="cls-58" d="M573.18,1236.25s-23.6,15.34-24.19,37.17,16.52,33,16.52,33,74.34,38.94,323.3,45.43S1221,1317.08,1221,1317.08s25.37-13,23.6-36.58-17.11-33.63-17.11-33.63Z"/><path id="top_base" data-name="top base" class="cls-59" d="M571.41,1184.92c-5.7,3.57-11.91,7.11-10.62,27.14,1,16.07,3.39,21.83,12.24,31.27s16.67,31.86,298.08,41.3c271.89,9.12,355.75-37.17,355.75-37.17s14.16-5.9,13-30.68-24.78-33.63-24.78-33.63-126.25-31.27-335.69-28.91S590.29,1173.12,571.41,1184.92Z"/><g id="top_bottom_shadow" data-name="top bottom shadow"><path class="cls-60" d="M561.53,1198.79s-2.21,18.58,1.33,27.43S577,1247.46,577,1247.46l8.41,5.75s46.74,27.57,309.73,32.3c246.16,4.43,330.53-37.61,330.53-37.61s6.64-1.77,10.62-11.95,3.54-23.45,3.54-23.45-46,42-346.46,37.17S561.53,1198.79,561.53,1198.79Z"/></g><g id="top_bottom_shadow-2" data-name="top bottom shadow"><path class="cls-61" d="M709.09,1274.22s-83.19-6.13-104-13.49c0,0-18.36-5.86-22.12-8,0,0,1.33-6.94,16.59-8.42s34.29,16,50,15.36,10.18-5,27.66-6.52S709.09,1274.22,709.09,1274.22Z"/><path class="cls-61" d="M889.84,1285.29s181.42-.22,202.88-7.3c0,0-41.81-15.49-73.45-11.06C966.79,1274.27,889.84,1285.29,889.84,1285.29Z"/><path class="cls-61" d="M1156.21,1268.92s69.25-17,72.79-21.9c0,0,11.95-10.84,11.73-26.77,0,0-8.41,4.42-18.58,16.81s-40,11.73-53.32,16.81C1155,1259.19,1156.21,1268.92,1156.21,1268.92Z"/></g><g id="top_top_highlight" data-name="top top highlight"><path class="cls-62" d="M610.35,1180.2s-20.94,5.61-18,10.62,7.08,6.49,10.91,8.26,44.84,8.26,44.84,8.26l59.88,5.9s-35.1,11.5-71.68,5.6c-17.77-2.87-22.42-12.68-38.35-12.68-11.22,0-13.57-21.24-33.92-12.09,0,0,2.65-7.37,6.79-8.85A119,119,0,0,1,590,1180.5C598.84,1179.32,610.35,1180.2,610.35,1180.2Z"/><path class="cls-62" d="M773.77,1217.37s170.5,4.13,205,.88c0,0-63.42,19.17-111.8,17.7S773.77,1217.37,773.77,1217.37Z"/><path class="cls-62" d="M1042.79,1215.9s91.44-6.49,110.91-10c0,0,28.32-3.54,34.81-8.26,0,0,19.76-7.67-.88-14.46,0,0,11.8-5.31,22.42-1.47,0,0,22.42,8.85,23.89,18,0,0,.59,15.34-38.05,15.93-13.34.2-21.83-4.72-54.87-.3s-75.52,20.35-90.86,21.24-9.44-5.31-32.74-12.68S1042.79,1215.9,1042.79,1215.9Z"/></g><path id="top_outline" data-name="top outline" class="cls-63" d="M571.41,1184.92c-5.7,3.57-11.91,7.11-10.62,27.14,1,16.07,3.39,21.83,12.24,31.27s16.67,31.86,298.08,41.3c271.89,9.12,355.75-37.17,355.75-37.17s14.16-5.9,13-30.68-24.78-33.63-24.78-33.63-126.25-31.27-335.69-28.91S590.29,1173.12,571.41,1184.92Z"/><g id="WATER"><path id="behind_base_1" data-name="behind base 1" class="cls-64" d="M609.17,1199.67s14.75-10.62,27.14-12.39,14.9,2.36,32.45,1.18,36-6.19,36-6.19l325.66,1.48s28.17,5.46,38.94,3.83,8.26-3.69,20.35-5.31,3.54,7.08,19.76,9.15,20.65-6,34.81-6.2,9.73,13.57,20.35,11.8,16.81,2.06,16.81,2.06-92,23.53-307.08,20.5C654.45,1216.49,609.17,1199.67,609.17,1199.67Z"/><path id="behind_gradient" data-name="behind gradient" class="cls-65" d="M609.17,1199.67s14.75-18.58,27.14-20.35,14.89,10.32,32.44,9.14,36-6.19,36-6.19l325.66,1.48s25.23,0.74,36-.88,11.59-10.31,25.66-8c10.62,1.77,6.78,12.09,23,14.16s14.16-6.93,28.32-7.08,10.61,16.81,21.23,15,16.81,2.06,16.81,2.06-92,23.53-307.08,20.5C654.45,1216.49,609.17,1199.67,609.17,1199.67Z"/></g><g id="top_inside_ring" data-name="top inside ring"><ellipse class="cls-63" cx="894.71" cy="1190.63" rx="302.65" ry="29.01"/></g></g><g id="LEFT_ELEPHANT" data-name="LEFT ELEPHANT"><g id="left_ear_alt" data-name="left ear alt"><path id="base-6" data-name="base" class="cls-23" d="M915.95,869.58s-80.53-84.07-122.12-81.42c-42,2.68-8,38.94-8.85,65.49S769,909.41,769,909.41l41.59,76.11,117.7-84.07Z"/><path class="cls-66" d="M777.6,822.39s6.64,20.06,7.52,27.73S778.78,887,778.78,887L773,901.59l21.39,1.18s19.17-26.84,29.5-31.12c0,0-18.29-3.69-24.63-10.18s-7.08-18.29-10.18-29.06c-2.1-7.3-6.93-12.68-9.88-13.57S777.6,822.39,777.6,822.39Z"/><path class="cls-67" d="M773.47,809.7s-5-10.91,5.31-17.55,23-3.54,23-3.54,20.65,6.49,28.17,10.77,16.22,10.32,16.22,10.32,8.79,8.19.88,9.59c-7.52,1.33-12.24,0-23.45-7.37s-18.29-9.15-23.6-5.31,0.74,11.21-5.61,15S784.09,811,781.29,809.7,773.47,809.7,773.47,809.7Z"/><path class="cls-33" d="M772.7,803.21c0.11-.44-0.55-9.4,10.73-13.38s23.12-.44,23.12-0.44L818.27,794s-7.63-4-12.83,2.1-6.42,8.08-13.38,9.07c-5.81.83-8.3-1.44-11.39-3.76S772.7,803.21,772.7,803.21Z"/><path id="outline-9" data-name="outline" class="cls-26" d="M915.95,869.58s-80.53-84.07-122.12-81.42c-42,2.68-8,38.94-8.85,65.49S769,909.41,769,909.41l41.59,76.11,117.7-84.07Z"/></g><g id="right_ear-2" data-name="right ear"><path id="shape-2" data-name="shape" class="cls-20" d="M803.27,902.33s-40.71,1.18-77.29-8.26-51.33-54.28-87.91-34.81,5.31,85,9.44,118.58-13.54,70.18-13,93.8c0.59,24.78,5.9,37.17,18.88,42.48,33.73,13.8,56-6.49,56-6.49l85-58.41Z"/><path class="cls-36" d="M643.83,1022.9s-7.3,29.42-9.51,44.47,3.1,27,7.3,36.73,24.34,14.38,29.65,14.82,17-.88,17-0.88,9.07-28.1,12.17-28.32Z"/><path class="cls-38" d="M636.3,1052.55s-4.65,25,.44,39.82,6,15.27,11.06,19.25,21.9,7.52,28.1,7.3,11.95-.88,11.95-0.88l4-10s-27.61,1.25-32.74-17C648.47,1053.21,636.3,1052.55,636.3,1052.55Z"/><path class="cls-7" d="M759.87,957.86s-5-17.1-53.54-51.88c-47.57-34.07-56.08-17.15-57.63-16.59-17.76,6.34-2.1,42.81-2.1,42.81l13.5,28.1,7.85,18s-4-84.62,48.67-11.62c19.33,26.8-7.45,48.84,15.93,52,11.5,1.55,11.06-5.86,11.06-5.86l-0.66-24.78Z"/><path class="cls-8" d="M760.09,957.08a158.46,158.46,0,0,0-23.89-27.65c-12-10.82-25.74-21.39-26.56-22-7.06-5.53-26.16-19.61-40.59-22-18-3-19.69,2.76-19.69,2.76a23.75,23.75,0,0,0-8,21.35,57.1,57.1,0,0,0,3.32,12.61s2.78-14.86,16-20.24c10.62-4.31,22.46-.22,32.85,7.19,30.45,21.71,43,40.14,49.11,61.17C747.26,985.73,760.09,957.08,760.09,957.08Z"/><path class="cls-29" d="M684.87,868.26S664.62,854.54,659,854.65s-14.6.77-19.91,4.2-8.52,5-12.39,12.39-3.1,21-3.1,21,0,4.09,5,1.33,1.77-5.64,5-10.4,13.16-2.21,20.24-5.64,5.64-9.73,11.73-10.62,11.62,9.18,17.37,7.19S684.87,868.26,684.87,868.26Z"/><path id="outline-10" data-name="outline" class="cls-26" d="M803.27,902.33s-40.71,1.18-77.29-8.26-51.33-54.28-87.91-34.81,5.31,85,9.44,118.58-13.54,70.18-13,93.8c0.59,24.78,5.9,37.17,18.88,42.48,33.73,13.8,56-6.49,56-6.49l85-58.41Z"/><path id="inside_line" data-name="inside line" class="cls-26" d="M762,970.76c19.47-8.26-83.7-103.91-110.91-83.78-29.5,21.83,15.83,66.61,19.47,100.88"/></g><g id="BODY-2" data-name="BODY"><path id="base_solid" data-name="base solid" class="cls-20" d="M1145.37,922.58c-6.28,1.32-13.19,5.47-18.84.55s3.5-12.91,6.7-16.61,16.43-20.29,18.82-23.21c3.23-3.94,6.6-14.19-1.71-19.24-8.59-5.23-18.72,3.24-21.12,10s-5.55,11.9-9.28,19.42-11.27,16.22-16.88,12.76-4-7.65-2.57-13c2.66-10.35,10.86-14.84,12.83-18.68,2.68-5.23,4.27-18.41-8.68-21.67s-18.08,12.59-19.23,22.66,4.53,30.48-4,32.09-10.37-9.68-13.81-14.59c-7.92-11.34-19.9-9.35-24.84-2.72-6.07,8.14-1,18.13,9.35,22.13,5.9,2.28,7.45,12.12,6.49,29.53-0.28,5.16-61.51,90.53-65.21,95.68-10.71-7-18.46-9.63-18.46-9.63s9.29-8.11,7.67-18.88-7.93-18.2-17.11-39.75a89.55,89.55,0,0,1-6.21-43.17S923,862.8,865.8,861.62s-72.57,46.61-82.59,61.65-37.61,52.51-40.71,69.32,8.26,35.69,8.26,35.69A227.39,227.39,0,0,0,727.49,1052L654.15,998.5s6.08-5.32.69-19.45c-1.85-4.86,2.47-15.28,10.88-15.28,10.88,0,14.16-3.68,13.43-10-1.62-13.89-13-16.21-26.17-8.57-8.9,5.15-8.11,10.88-17.6,13-13.11,2.88-17.37-19.45-17.83-26.63-0.67-10.38-3.88-30.09-22.69-23.16-13.2,4.86-9,23.39-4.17,29.87S615,957,607.84,963.3s-19.91-6.83-29.18-10-28.89-1-28.95,11.12c0,9.56,6,17.19,16.9,16.67,11.15-.53,16.85-5.21,25.7-5.33,3.82,0,9.78,1.16,8.8,10.19s-10.71,5.91-15.75,6.25-30.39,10.25-20.84,24.83c7.62,11.63,22.26-3.94,29-6.08,9.5-3,21.81,1.61,28.19,6.95,8.11,6.77,17.83.23,17.83,0.23l60.9,71.53,0.18,0.2c-11.69,20.83-20.65,45.56-20.09,72a269.59,269.59,0,0,0,5.54,49.73c54.29,5,127.74,8,208.62,8,57,0,110.31-1.51,155.83-4.14a209.44,209.44,0,0,0,5.23-62.44c-2.84-40-16.36-68-31.55-87.22l0,0,50.14-103.67s19.71,5.21,30.91-1.55c15.43-9.31,9.15-18.46,23.68-19.61,9.81-.77,15.68,4.62,22.54,4.35,10.36-.4,13.46-5.68,13.61-12C1165.3,923.41,1151.65,921.26,1145.37,922.58Z"/><path id="shadow_1-6" data-name="shadow 1" class="cls-68" d="M733.65,1136c-0.89-50.74,48.22-82.62,25.07-98.82-2.95-2.06-8.55-8-8.55-8s-17.55,12.83-21.68,22c-2.19,4.85-2.8,19.17-22.27,18.14-12.92-.69-55.16-58-63-59.29-7.23-1.18-10.62,3.54-14,3.24s-17.55-10-24.63-10.62-16.08,4.57-27.43,6.49-10.18-8.85-13.57-4.72,0,12.69,0,12.69,4.87,4.72,9.14,4.57,19.32-10.32,26.4-11.8,9.29,1.33,9.29,1.33,15.34,9.44,21.54,9.73a20.51,20.51,0,0,0,10.18-1.92l60.08,70.79a148.94,148.94,0,0,0-13.47,30.83c-14.76,49.5-.55,91.11-0.55,91.11l82.52,5.2S734.53,1186.69,733.65,1136Z"/><path id="shadow_2-7" data-name="shadow 2" class="cls-69" d="M686.09,1211.82l40,2.1c-7.11-6.73-14.31-13.79-16.32-16.62-24-33.68-24.6-74.26-24.6-74.26s-5.8,33.33-2.79,60.77C683.63,1195.33,685,1204.75,686.09,1211.82Z"/><path id="shadow_3-4" data-name="shadow 3" class="cls-68" d="M1068.46,960.14l5.46,2.36-49.71,103.83s29.35,36.43,30.9,82.23-4.42,67-4.42,67l-70.8,2.43s23-37.6,28.32-70.8c5.53-34.51-5.75-63.72-.66-78.54S1068.46,960.14,1068.46,960.14Z"/><path id="shadow_4-2" data-name="shadow 4" class="cls-69" d="M1051.35,1122.09a265.18,265.18,0,0,1,4.72,50.15c-0.29,26-5.31,43.07-5.31,43.07l-36.58,1.47s6.79-4.13,21.83-35.1S1051.35,1122.09,1051.35,1122.09Z"/><path id="left_hand_shadow_1" data-name="left hand shadow 1" class="cls-68" d="M1069.27,959.85s14.6,7.08,26.77,4.42,19-13.5,19.69-13.94,3.54-9.07,10.62-9.29,19.91,3.32,24.78,4.87,10.18-1.11,13.27-8-3.76-13.05-3.76-13.05,0,12.61-10.18,13.72-14.16-4.65-25.22-3.1c-10,1.4-11.06,11.5-23.45,14.82-6,1.61-8.85-1.77-14.82-.89C1078.3,950.74,1069.27,959.85,1069.27,959.85Z"/><path id="left_hand_shadow_2" data-name="left hand shadow 2" class="cls-69" d="M991.5,1037.12s3.06,2.08,6.75,7.69c4.72,1,.35-3.89,4.57-8.7,17.1-19.5,56.34-85.55,58.92-88s-2.21-24.78-3.54-27.43,2,19.91.22,21.9l-64.16,93.81Z"/><path id="left_hand_shadow_3" data-name="left hand shadow 3" class="cls-28" d="M1147.22,863.39s8.11,2.21,8.26,9.73-2.95,10-2.95,10L1126,914.72s-1.47,6,.29,7.82a6,6,0,0,0,3,1.92s-6.49,2.06-9.14-1,4.43-13.93,7.08-17c4.13-4.72,17.55-20.5,20.65-25.37S1147.22,863.39,1147.22,863.39Z"/><path id="left_hand_shadow_4" data-name="left hand shadow 4" class="cls-28" d="M1103.27,852.77s7.67,0.74,10.91,7.67a14.51,14.51,0,0,1,.15,12.54s-6.79,5.75-9.73,10.18S1097.66,897,1099,900a44.12,44.12,0,0,0,4.42,6.93s-4.72,2.06-8.41-.15-0.15-17,2.8-21.24,10.47-9.74,11.36-16.08S1103.27,852.77,1103.27,852.77Z"/><g id="right_hand_highlights" data-name="right hand highlights"><path id="left_hand_highlight_1" data-name="left hand highlight 1" class="cls-62" d="M1066.84,893.33s-6-12.24-16.22-8.55S1039.7,895,1039.7,895s-1,9.88,8.11,15c4,2.24,6.49,3.84,6.49,3.84s-9.4-9.4-6.93-14.9C1051.94,888.76,1066.84,893.33,1066.84,893.33Z"/><path id="left_hand_highlight_2" data-name="left hand highlight 2" class="cls-62" d="M1141.49,867.46c-4.49,1.05-5.07,3.34-6.68,6.68s-1.84,15.44,1.73,12.56,7.26-3.92,9.1-8.06S1145.41,866.54,1141.49,867.46Z"/><path id="left_hand_highlight_3" data-name="left hand highlight 3" class="cls-62" d="M1100.17,857.64c-5.75,1.35-6.49,4.28-8.55,8.55s-2.36,19.76,2.21,16.08,9.29-5,11.65-10.33S1105.18,856.46,1100.17,857.64Z"/><path id="left_hand_highlight_4" data-name="left hand highlight 4" class="cls-62" d="M1071.64,951.74c4.66,0.88,7.23-5.92,12.56-7.34,5.5-1.47,8.75,3.52,14.82,2.35,6.83-1.32,13.26-7.63,8.89-12.33s-7.9-2.79-14.67-4.4c-6.35-1.51-6.92-8.22-13-6.6-7.31,1.94-5.08,7.48-5.08,13.94S1067,950.86,1071.64,951.74Z"/></g><path id="right_hand_shadow_1" data-name="right hand shadow 1" class="cls-68" d="M561.53,952.92S548.69,955,550,967.67s11.36,13.13,11.36,13.13l18.44-2.07,14.45-3.1,6.78,4.72s-0.59,8.41-.15,8.26,5.6-3.39,5.9-6.64-0.15-8-6.49-10-21.83,2.95-32.45.59S561.53,952.92,561.53,952.92Z"/><path id="right_hand_shadow_2" data-name="right hand shadow 2" class="cls-68" d="M594.71,908.52A15.29,15.29,0,0,0,586,920a24.69,24.69,0,0,0,2.65,15.19L601.05,948s9.15,7.67,8.55,11.06a14.51,14.51,0,0,1-2.21,5.6,5.25,5.25,0,0,0,6.34-1.18c3.1-3.1.59-8.41-.74-11.06s-16.81-15.34-18.44-24S594.71,908.52,594.71,908.52Z"/><path id="right_hand_highlight_1" data-name="right hand highlight 1" class="cls-68" d="M674.36,942.89l5,12.09-1.92,5.75-8.11,3-9.59,1.92-4.87,7.82-1,4.28,3.54,11.5-3.25,9.59s-5.31-1.92-9.88-10,4.57-21.39,9.14-25.07,14.75-3,18-6.64S674.36,942.89,674.36,942.89Z"/><path id="face_shadow_1" data-name="face shadow 1" class="cls-68" d="M892.72,867.59s-12.46-8-43.07-4.13-50.15,33-50.15,33L780,930.72l-31.27,47.2s-10,11.87-3.83,34.51,17.7,27.14,17.7,27.14,22.67-6,21.9-24.19c-0.88-21-14.23-22.79-6.56-43.36s30.24-46.9,30.24-46.9,29.45-27.91,45.13-35C883.87,876.44,892.72,867.59,892.72,867.59Z"/><path id="face_shadow_2" data-name="face shadow 2" class="cls-68" d="M757.54,1036c0.22-.89-12.85-15.58-15.27-30.09-1.11-6.64-1.11-11.5,1.11-18.58s11.95-23.45,11.95-23.45,9.88,27.41,11.95,39.38c1.11,6.42,2.65,15.49-.22,21.24S757.54,1036,757.54,1036Z"/><path id="face_shadow_3" data-name="face shadow 3" class="cls-69" d="M877.2,862.82s-12.33-4.92-38,2.1S799,896.31,799,896.31s-9.41,17.12.85,12.81,15.36-18,37.13-29.52,35.15-8.21,43-11.78S877.2,862.82,877.2,862.82Z"/><path id="highlight-3" data-name="highlight" class="cls-41" d="M982.32,1093.92c-5.31-30.09-37.24-29.22-41.3-13.13-4.42,17.55-41.2,38.36-76.84,32.6-35.48-5.74-49-38.35-70.27-34.18-40.29,7.91-53.88,46.25-34.94,94,7.24,18.26,17.66,33.6,30.26,45.06l137.55,1c39.16,3.34,44-9.93,57.3-71.44C988.12,1129.21,985.68,1113,982.32,1093.92Z"/><path id="highlight-4" data-name="highlight" class="cls-70" d="M835.62,1121.34c47.15,34.08,67.5,10.63,97.85,18.75,36.95,9.89,10.38,50-7.61,59.77s-36,9.7-55.65,6C787,1190.29,802.74,1097.58,835.62,1121.34Z"/><g id="face_shadow" data-name="face shadow"><path class="cls-69" d="M930.11,949.23s24.19-16.52,28.32-20.94c0,0,1,25.07,4.42,34.81s14.75,32.15,14.75,32.15,5.75,10.47,5.31,18.88-10.27,15.74-13.13,18.88-12.24,8-15.19,2.95c-2.12-3.6-8-15.34-8-15.34s-2.51-9-.29-12.09a27.15,27.15,0,0,1,5.9-5.61,9.83,9.83,0,0,0,3.84-5.9c0.59-3.69-4.43-7.52-6.79-7.37s-5.46,5-6.79,8-7.67,15.63-7.67,15.63l-18.58-16.81s3.54-30.68,1.77-36S930.11,949.23,930.11,949.23Z"/><path class="cls-28" d="M923.18,952.33L941.76,942l17.85-15s-1.48,18.88,1.18,27,9.74,27.29,9.74,27.29S958.58,966.49,947.37,960C936.81,953.88,923.18,952.33,923.18,952.33Z"/><path class="cls-28" d="M976.57,992.89s7.08,7.52,5.9,21.09-13.72,19.32-13.72,19.32-6.64,3.69-9.14,1.62-1.33-5.9-.59-7.37,5.61-4.72,5.75-8.85-2.36-7.37-2.65-13c-0.41-7.75,2.06-14.21,6.64-15.93S976.57,992.89,976.57,992.89Z"/></g><g id="headhighlight"><path class="cls-29" d="M863.74,862.28s-15.27-1.11-26.77,3.1S814.4,879.1,814.4,879.1s9.29,6.19,18.81-2.21,15,5.53,27.21-2S863.74,862.28,863.74,862.28Z"/></g><path id="right_hand_highlight_2" data-name="right hand highlight 2" class="cls-62" d="M672.29,942.59a17.65,17.65,0,0,0-11.65-.88c-6.34,1.77-14.75,9.29-14.75,9.29s1.33,3.39,7.08,3.39,10.47-1,13.57-3.1C670.39,948.72,672.29,942.59,672.29,942.59Z"/><path id="right_hand_highlight_3" data-name="right hand highlight 3" class="cls-62" d="M616,924a16.35,16.35,0,0,0-5.16-13.42c-6.27-5.83-12-3.24-12-3.24s-1.7,6.48-1.25,11.58c0.74,8.48,4.5,18.73,14.23,8.7A23.4,23.4,0,0,1,616,924Z"/><path class="cls-62" d="M624.36,967.08c-5.46-3.69-11.36,11.5-12.68,16.67s-2.51,9.74-.29,12.39,11.36,5.46,13.86,5.9,23.25-.16,12.68-3.1S626,990.67,625.69,986.1C625.24,980.06,629.81,970.76,624.36,967.08Z"/><path id="right_shoulder_shadow" data-name="right shoulder shadow" class="cls-42" d="M760.64,1039.05s-8-7.3-9.73-9.73l-21.68,20.58s5.09,14.82-1.77,25.44-13.28,24.56-7.08,27.43,6-13.91,18.58-21c12.17-6.86,12.61-15.71,19.47-30.09C763,1042,760.64,1039.05,760.64,1039.05Z"/><path id="outline_CUT" data-name="outline CUT" class="cls-25" d="M1051.08,1213.21a209.35,209.35,0,0,0,4.69-60.15c-2.84-40-16.36-68-31.55-87.22l0,0,50.14-103.67s19.71,5.21,30.91-1.55c15.43-9.31,9.15-18.46,23.68-19.61,9.81-.77,15.68,4.62,22.54,4.35,10.36-.4,13.46-5.68,13.61-12,0.23-9.95-13.42-12.1-19.7-10.78s-13.19,5.47-18.84.55,3.5-12.91,6.7-16.61,16.43-20.29,18.82-23.21c3.23-3.94,6.6-14.19-1.71-19.24-8.59-5.23-18.72,3.24-21.12,10s-5.55,11.9-9.28,19.42-11.27,16.22-16.88,12.76-4-7.65-2.57-13c2.66-10.35,10.86-14.84,12.83-18.68,2.68-5.23,4.27-18.41-8.68-21.67s-18.08,12.59-19.23,22.66,4.53,30.48-4,32.09-10.37-9.68-13.81-14.59c-7.92-11.34-19.9-9.35-24.84-2.72-6.07,8.14-1,18.13,9.35,22.13,5.9,2.28,7.45,12.12,6.49,29.53-0.28,5.16-61.51,90.53-65.21,95.68-10.71-7-18.46-9.63-18.46-9.63s9.29-8.11,7.67-18.88-7.93-18.2-17.11-39.75a89.55,89.55,0,0,1-6.21-43.17S923,862.8,865.8,861.62s-72.57,46.61-82.59,61.65-37.61,52.51-40.71,69.32,8.26,35.69,8.26,35.69A227.39,227.39,0,0,0,727.49,1052L654.15,998.5s6.08-5.32.69-19.45c-1.85-4.86,2.47-15.28,10.88-15.28,10.88,0,14.16-3.68,13.43-10-1.62-13.89-13-16.21-26.17-8.57-8.9,5.15-8.11,10.88-17.6,13-13.11,2.88-17.37-19.45-17.83-26.63-0.67-10.38-3.88-30.09-22.69-23.16-13.2,4.86-9,23.39-4.17,29.87S615,957,607.84,963.3s-19.91-6.83-29.18-10-28.89-1-28.95,11.12c0,9.56,6,17.19,16.9,16.67,11.15-.53,16.85-5.21,25.7-5.33,3.82,0,9.78,1.16,8.8,10.19s-10.71,5.91-15.75,6.25-30.39,10.25-20.84,24.83c7.62,11.63,22.26-3.94,29-6.08,9.5-3,21.81,1.61,28.19,6.95,8.11,6.77,17.83.23,17.83,0.23l60.9,71.53,0.18,0.2c-11.69,20.83-20.65,45.56-20.09,72a270.46,270.46,0,0,0,5.29,48.55"/><g id="extra_body_lines" data-name="extra body lines"><path class="cls-25" d="M968.16,1033.52c3.76-2.21,9.09-8,9.09-8"/><path class="cls-25" d="M747.79,1022.47a38.76,38.76,0,0,0,13.58,16.88"/><path class="cls-25" d="M1077.87,962.92s-2.68.09-9.07-3"/><path class="cls-25" d="M1029.22,1055.42s-9.44,18.58-9.44,21.53"/><path class="cls-25" d="M694.72,1083s10.76,13,12.08,15.67"/></g><path id="cover_pool_line" data-name="cover pool line" class="cls-63" d="M1088.88,1212.88c-52.55,4.22-120.27,6.76-194.16,6.76-97.12,0-183.55-4.38-238.93-11.2"/></g><g id="ear_overlap" data-name="ear overlap"><path id="shape-3" data-name="shape" class="cls-71" d="M803.27,902.33s-40.71,1.18-77.29-8.26,12.91,38.74,21.53,46.9a87.92,87.92,0,0,1,16.81,21.83Z"/><path class="cls-72" d="M815.79,895.4H805.33V887.8a70.42,70.42,0,0,0-6.3,8.51,51.92,51.92,0,0,0-2.79,6.13l-0.64-.4s-32.6-.59-40.86-2.06-38.35-8.55-38.35-8.55,11.23,13.22,20.35,12.54c17.7-1.33,37.46,3.83,38.64,12.39,0.9,6.52-5.75,31,.59,22.71C781.62,931.7,810.63,900.53,815.79,895.4Z"/><path id="inside_line-2" data-name="inside line" class="cls-26" d="M762,970.76c19.47-8.26-83.7-103.91-110.91-83.78"/><path id="outline-11" data-name="outline" class="cls-26" d="M795.93,901.66c-14.49,1.66-43.38-.74-69.95-7.6"/><path id="outline-12" data-name="outline" class="cls-26" d="M726,894.07c-36.58-9.44-51.33-54.28-87.91-34.81"/><path id="outline_CUT-2" data-name="outline CUT" class="cls-25" d="M865.8,861.62c-38.88-.8-58.43,21-70.11,39.78"/></g><g id="MOUTH-2" data-name="MOUTH"><path id="outline-13" data-name="outline" class="cls-27" d="M856.66,947.46s30.66,20.82,65.49,5.31q2.39-1.06,4.65-2.19s-9.55,50.28,10,59.86l-0.06.13c-7.43,16.18-23.59,44.11-59.18,38.36-40.63-6.56-41-88.31-41-88.31l-0.17.05C843,958.9,850,955,856.29,947.16"/></g><path id="jaw_line" data-name="jaw line" class="cls-26" d="M836.57,960.63s0.4,81.74,41,88.31c44,7.11,58.31-37.27,63.13-47.27,2.88-6,6.38-16.69,12.68-9.37,5,5.83,1,8.7-2.51,10.91-7.5,4.69-5.75,17.48,2.51,31.56,0,0,4.2,6.08,1.48,12.91"/><path id="trunk_base" data-name="trunk base" class="cls-20" d="M856.66,906.75S857.2,890.1,869,882.86c15.93-9.73,34.76-20.32,34.07-37.61-0.89-22.12-12.83-41.15-9.73-61.95,3.83-25.69,41.15-63.27,40.26-80.53s-38.34-28.51-27.88-43.36c13.72-19.47,22.65,6.16,50.88,9.29,23.89,2.65,34.52-14.69,43.36-1.77,5.75,8.41-5.75,16.81-11.5,20.35s-22.12,7.52-22.12,7.52-0.81,18-4,27.88c-7.08,22.12-23,22.57-19,57.52S982,828.52,981,872.68c-0.44,19-10.18,58.41-58.85,80.09-34.82,15.51-65.49-5.31-65.49-5.31"/><g id="trunk_sh_hl" data-name="trunk sh/hl"><path class="cls-42" d="M856.88,947.68s32.08,17,55.09,8.85c27.84-9.9,34.29-17.92,46-29.2,27.88-31,22.79-59.07,22.12-69.91s-17-35.62-17-35.62-19.91-24.56-20.13-43.36,1.77-24.56,4-29.42,11.73-13.05,15.27-25.66,3.76-28.54,3.76-28.54l-9.29,4.43a48,48,0,0,1-1.33,23.45c-4,12.17-10.62,9.07-17.7,26.55-4.05,10-4.65,24.12-2.43,33.63s27.66,58.19,31.42,73.89c2.33,9.74-14.38,17.92-15.49,33.85-0.85,12.17,2.88,21.46-4.2,28.76-7.86,8.11-20.19,16.16-36.95,20.35-29.2,7.3-44.25-8-44.25-8Z"/><path class="cls-68" d="M864.62,934.41l-8,13.72s26.11,12.61,46,10,39.6-16.37,39.6-16.37,16.59-13.72,24.34-25.44,12.61-32.52,12.61-32.52,0.44-13.05-6-10.18,0.22,6.42-8.19,12.61,0.88,17.26-4.87,25.66S945.6,929.1,938.52,934s-41.59,27.88-68.36,8.85C864.9,939.08,864.62,934.41,864.62,934.41Z"/><path class="cls-23" d="M957.1,699.53s8.41-5.16,9.14-4.43l-2.95,24S962.12,699.23,957.1,699.53Z"/><path class="cls-29" d="M909.75,674.89l-5.9-9.29,4-8.7,7.08-4.87,10.18,3.25,17.4,10.18,18.14,4s-26.55,1.62-36.87-2.51-6.49,14.9-6.49,14.9"/><path class="cls-33" d="M971,668.7s19.32-6.49,19.76-6.49,5.31,1.18,5.31,1.18,3.69,2.66,5,5.16-1.18,8.85-1.18,8.85l-5.46,5.9-7.82,4.87s6.79-6.93,5.16-15-22,2.07-26.7,3.84-14.6,1.62-10.91-3,10.32-4.72,10.32-4.72Z"/><path class="cls-73" d="M856.66,906.6c0.29-.44,1.33-14.75,5.16-18.14a46.45,46.45,0,0,1,7.37-5.6c0.44-.15,7.23-3.25,24.34-16.52s5.16-45,5.16-45-8-26.25-5.46-37.76,16.37-35.1,16.37-35.1,12.83-19.17,19.17-31.12,4.13-17.85,4.13-17.85-0.44-4.28,3-4.13,0.29,2.21,3.54,6.64-8.26,25.37-8.26,25.37-22.27,36-24.63,42.33-5.31,10.18-5.6,18.44,19.62,61.21,15.49,74.48-16.08,11.8-22.86,15.78-6,9.88-10.77,20.65-6.93,15.63-14.16,15.34S856.66,906.6,856.66,906.6Z"/><path class="cls-68" d="M891.28,867.81S866.84,885.4,865.18,886c0,0-9,11.84-7.74,17.15,0,0,9.4,12.83,14.27,6.75s0-17,5.75-18.92,6.2-9,9.18-12.17c3.43-3.65,9.62-8.08,13.05-11.28S891.28,867.81,891.28,867.81Z"/><path class="cls-29" d="M904.59,756s-9.14,16.52-11.21,27.43,3.69,30.68,3.69,30.68,3.1-13.27,8.55-16.37,5.6-9.88,4.87-15-3.39-5.31-4.87-11.06-0.59-9.29,3.69-15.19S904.59,756,904.59,756Z"/></g><g id="cheek"><path class="cls-24" d="M812.12,959.26s18,6.78,31.56-.89,21.24-26,21.24-26-8,.88-29.79,5.31S812.12,959.26,812.12,959.26Z"/></g><path id="cheek_line" data-name="cheek line" class="cls-26" d="M811.53,959s35.69,16.52,54.28-28.32"/><path id="trunk_outline" data-name="trunk outline" class="cls-26" d="M856.66,906.75S857.2,890.1,869,882.86c15.93-9.73,34.76-20.32,34.07-37.61-0.89-22.12-12.83-41.15-9.73-61.95,3.83-25.69,41.15-63.27,40.26-80.53s-38.34-28.51-27.88-43.36c13.72-19.47,22.65,6.16,50.88,9.29,23.89,2.65,34.52-14.69,43.36-1.77,5.75,8.41-5.75,16.81-11.5,20.35s-22.12,7.52-22.12,7.52-0.81,18-4,27.88c-7.08,22.12-23,22.57-19,57.52S982,828.52,981,872.68c-0.44,19-10.18,58.41-58.85,80.09-34.82,15.51-65.49-5.31-65.49-5.31"/><path id="trunk_nose_line" data-name="trunk nose line" class="cls-26" d="M975.37,692.35a45.12,45.12,0,0,0-18.71,7.54"/><path id="eye_line" data-name="eye line" class="cls-26" d="M876.13,878.53s-34.29,21.14-47.35,40.83"/><path id="eye_line-2" data-name="eye line" class="cls-26" d="M874.58,879.51S837,893.92,807.32,926"/></g><g id="water_drops" data-name="water drops"><ellipse class="cls-10" cx="1092.61" cy="639.4" rx="17.55" ry="11.8" transform="translate(-172.93 607.15) rotate(-28.88)"/><path class="cls-74" d="M1078.09,637.26s2.28-4.8,9.89-8.87,12.38-2.28,16.76-.53,4.13,6.57,4.13,6.57-8,10.47-13.95,10.22c-6.48-.28-7-2.84-8.64-5.59S1078.09,637.26,1078.09,637.26Z"/><ellipse class="cls-75" cx="1092.61" cy="639.4" rx="17.55" ry="11.8" transform="translate(-172.93 607.15) rotate(-28.88)"/><path class="cls-10" d="M1173.05,509.59c-6.14,3.84-5.38,12.17-12.92,12.64s-23.09-8.27-16.24-11c12.46-4.89,8.55-8.36,14.78-12.62C1165.95,493.67,1178.59,506.14,1173.05,509.59Z"/><path class="cls-74" d="M1151.58,507.32l3.21-4.26s2.8-4.9,5.14-5.34,6.62,0.63,6.62.63,5.44,3.21,6.19,4.49,2.18,3,1.61,4.55-3.29,4.12-3.29,4.12-2.14-6.8-8.8-3.74C1155.93,510.67,1151.58,507.32,1151.58,507.32Z"/><path class="cls-75" d="M1173.05,509.59c-6.14,3.84-5.38,12.17-12.92,12.64s-23.09-8.27-16.24-11c12.46-4.89,8.55-8.36,14.78-12.62C1165.95,493.67,1178.59,506.14,1173.05,509.59Z"/><ellipse class="cls-1" cx="1115.04" cy="617.6" rx="7.96" ry="7.52" transform="translate(-36 70.02) rotate(-3.54)"/><ellipse class="cls-76" cx="1115.04" cy="617.6" rx="7.96" ry="7.52" transform="translate(-36 70.02) rotate(-3.54)"/><ellipse class="cls-1" cx="1143.6" cy="485.89" rx="7.96" ry="7.52" transform="translate(-27.83 71.56) rotate(-3.54)"/><ellipse class="cls-76" cx="1143.6" cy="485.89" rx="7.96" ry="7.52" transform="translate(-27.83 71.56) rotate(-3.54)"/><ellipse class="cls-1" cx="1014.79" cy="445.98" rx="10.95" ry="10.34" transform="translate(-25.61 63.52) rotate(-3.54)"/><ellipse class="cls-76" cx="1014.79" cy="445.98" rx="10.95" ry="10.34" transform="translate(-25.61 63.52) rotate(-3.54)"/><ellipse class="cls-1" cx="739.09" cy="478.9" rx="10.95" ry="10.34" transform="translate(-28.15 46.54) rotate(-3.54)"/><ellipse class="cls-76" cx="739.09" cy="478.9" rx="10.95" ry="10.34" transform="translate(-28.15 46.54) rotate(-3.54)"/><ellipse class="cls-1" cx="764.61" cy="509.24" rx="8.59" ry="8.11" transform="translate(-30 48.21) rotate(-3.54)"/><ellipse class="cls-76" cx="764.61" cy="509.24" rx="8.59" ry="8.11" transform="translate(-30 48.21) rotate(-3.54)"/><path class="cls-10" d="M777.63,591.34c-8.47.88-12.93,9.33-12.47,16.76s0.78,17.74,16.07,18.55c9.27,0.49,23.72-1.47,21.23-18.73-1.27-8.78-8.78-4.08-15.26-5.45S786.1,590.46,777.63,591.34Z"/><path class="cls-16" d="M765,608.08l2.88-10.71,4.82-4.51,4.77-1.74,3.93,0.86,3.59,9.64,9.37,1s7.5,8.4.89,8.92S785.1,607.61,780,608s-2.69,4.82-8,5.59S765,608.08,765,608.08Z"/><path class="cls-76" d="M777.63,591.34c-8.47.88-12.93,9.33-12.47,16.76s0.78,17.74,16.07,18.55c9.27,0.49,23.72-1.47,21.23-18.73-1.27-8.78-8.78-4.08-15.26-5.45S786.1,590.46,777.63,591.34Z"/><ellipse class="cls-1" cx="1041.52" cy="469.59" rx="7.96" ry="7.52" transform="translate(-27.02 65.23) rotate(-3.54)"/><ellipse class="cls-76" cx="1041.52" cy="469.59" rx="7.96" ry="7.52" transform="translate(-27.02 65.23) rotate(-3.54)"/><path class="cls-10" d="M744.22,530c-10.53,5.57-26.88,21.59-22,25.17s15.91-2.28,22.21-.86,4.35,7.5,8.49,11.64,20.75,4.93,23.15-10.75-3.87-20.73-7.41-23.61S754.75,524.44,744.22,530Z"/><path class="cls-16" d="M731.47,539.67l11.18-9.12,6.9-3.09,8.2-.06,8.8,2.56,7.28,6.64,2.67,10.92,0.09,5.09s-5-5.23-15.64-9.23-10.3,2-18.95,1.84S731.47,539.67,731.47,539.67Z"/><path class="cls-76" d="M744.22,530c-10.53,5.57-26.88,21.59-22,25.17s15.91-2.28,22.21-.86,4.35,7.5,8.49,11.64,20.75,4.93,23.15-10.75-3.87-20.73-7.41-23.61S754.75,524.44,744.22,530Z"/></g><g id="snout_water" data-name="snout water"><path class="cls-77" d="M949.18,654.91c-6.11-5.61-8.55-2.13-23,3.87s-2.59,11.91,4.92,11.44,9.79-3,17.86-1.55,8.79,5.88,14.9,4.4,9.09-7.07,16.59-7.68,8.38-7.83-.66-10.6-17.14,2.39-19.67,4.54S955.29,660.51,949.18,654.91Z"/><path class="cls-16" d="M949.18,654.91c-6.11-5.61-8.55-2.13-23,3.87-7.24,3,6.52,11.48,16,3.89,3.59-2.88,25.15,3.54,30,1,6.71-3.5,16.69-6.13,7.65-8.9s-17.14,2.39-19.67,4.54S955.29,660.51,949.18,654.91Z"/><circle class="cls-1" cx="924.47" cy="632.94" r="4.28" transform="translate(-37.32 58.3) rotate(-3.54)"/><circle class="cls-1" cx="992.65" cy="645.86" r="4.28" transform="translate(-38 62.55) rotate(-3.54)"/><circle class="cls-1" cx="1008.79" cy="643.98" r="5.46" transform="translate(-37.84 63.52) rotate(-3.54)"/><circle class="cls-1" cx="1004.6" cy="638.33" r="3.1" transform="translate(-37.53 63.3) rotate(-3.54)"/><circle class="cls-1" cx="915.19" cy="635.88" r="2.8" transform="translate(-37.47 57.64) rotate(-3.54)"/></g><g id="POOL_splashes" data-name="POOL splashes"><path class="cls-10" d="M782.77,1214.72s-10.62-39.38-48.67-40.27-58,33.19-58,33.19,22.57,13.27,14.6,25.22-31-9.74-41.59,2.65,15.9,30.07,27.43,29.65c36.43-1.33,27.55-15,71.24-42.48C762.86,1213.21,782.77,1214.72,782.77,1214.72Z"/><path class="cls-16" d="M698,1185s9.84-9.07,34.18-10.62S770,1192.15,770,1192.15s-30.64,3-46.13,10.51S698,1185,698,1185Z"/><path class="cls-1" d="M648.81,1249.34s-5.31-7.08-.11-13.72,8.52-4.2,13.27-3.65,18.7,4.65,18.7,4.65,5.86,5,.77,5.2-20.35-1.66-24.22-.22S648.81,1249.34,648.81,1249.34Z"/><path class="cls-78" d="M782.77,1214.72s-10.62-39.38-48.67-40.27-58,33.19-58,33.19,22.57,13.27,14.6,25.22-31-9.74-41.59,2.65,15.9,30.07,27.43,29.65c36.43-1.33,27.55-15,71.24-42.48C762.86,1213.21,782.77,1214.72,782.77,1214.72Z"/><path class="cls-78" d="M681.5,1236.51s12.48,1.18,22.29-1.9"/><ellipse class="cls-77" cx="642.06" cy="1203.87" rx="13.27" ry="13.5"/><path class="cls-16" d="M629.23,1199.3s3.54-10.69,14.31-8.92,11.36,10.1,11.36,10.1S649,1208,641,1207.93,629.23,1199.3,629.23,1199.3Z"/><ellipse class="cls-78" cx="642.06" cy="1203.87" rx="13.27" ry="13.5"/><ellipse class="cls-77" cx="981.29" cy="1166.12" rx="13.27" ry="13.5"/><path class="cls-16" d="M968.46,1161.54s3.54-10.69,14.31-8.92,11.36,10.1,11.36,10.1-5.9,7.52-13.94,7.45S968.46,1161.54,968.46,1161.54Z"/><ellipse class="cls-78" cx="981.29" cy="1166.12" rx="13.27" ry="13.5"/><ellipse class="cls-77" cx="679.27" cy="1159.62" rx="13.27" ry="13.5" transform="translate(-414.53 378.76) rotate(-24.12)"/><path class="cls-16" d="M665.69,1160.69s-1.14-11.21,9.41-14,14.49,4.58,14.49,4.58-2.31,9.28-9.68,12.49S665.69,1160.69,665.69,1160.69Z"/><ellipse class="cls-78" cx="679.27" cy="1159.62" rx="13.27" ry="13.5" transform="translate(-414.53 378.76) rotate(-24.12)"/><path class="cls-10" d="M993.39,1216.49s0.44-27,27-33.63,61.95,27.88,61.95,27.88-19.47,42.92-49.12,43.8S993.39,1216.49,993.39,1216.49Z"/><path class="cls-79" d="M996.93,1202.18a31.78,31.78,0,0,1,25.66-19.91c19.91-2.65,37,11.36,37,11.36s-7.52,19.62-28,23.45S996.93,1202.18,996.93,1202.18Z"/><path class="cls-78" d="M993.39,1216.49s0.44-27,27-33.63,61.95,27.88,61.95,27.88-19.47,42.92-49.12,43.8S993.39,1216.49,993.39,1216.49Z"/><ellipse class="cls-80" cx="991.35" cy="1225.18" rx="22.45" ry="22.83" transform="translate(-196.27 189.13) rotate(-9.92)"/><path class="cls-17" d="M968.64,1221.3s2.78-18.85,21.24-19,21.87,13.53,21.87,13.53-7.64,14.25-21.05,16.47S968.64,1221.3,968.64,1221.3Z"/><ellipse class="cls-78" cx="991.35" cy="1225.18" rx="22.45" ry="22.83" transform="translate(-196.27 189.13) rotate(-9.92)"/></g><path class="cls-81" d="M100,100H394.52v91.2H209.64v44.35H377.57v84.72H209.64v44.35H400v91.2H100V100Z"/><g class="cls-82"><path class="cls-1" d="M344.43,732.58a63.26,63.26,0,0,1-4.84,25.1,58.41,58.41,0,0,1-32.32,31.83,60.27,60.27,0,0,1-22.89,4.43A62,62,0,0,1,260,789.26a57.06,57.06,0,0,1-19-12.88,59.22,59.22,0,0,1-12.47-19.44A64.73,64.73,0,0,1,224,732.58a63.17,63.17,0,0,1,4.84-25.1,58.19,58.19,0,0,1,32.4-31.83,61.3,61.3,0,0,1,23.13-4.43,60.27,60.27,0,0,1,22.89,4.43,58.4,58.4,0,0,1,32.32,31.83A63.26,63.26,0,0,1,344.43,732.58Zm-13.12,0a56.57,56.57,0,0,0-3.61-20.51,48.25,48.25,0,0,0-10-16.08,45.16,45.16,0,0,0-14.93-10.42,45.78,45.78,0,0,0-18.38-3.69,46.76,46.76,0,0,0-18.62,3.69,44.93,44.93,0,0,0-15,10.42,48.19,48.19,0,0,0-10,16.08,56.49,56.49,0,0,0-3.61,20.51,58,58,0,0,0,3.28,19.69,48.16,48.16,0,0,0,9.43,16.08,44.9,44.9,0,0,0,14.85,10.91,46.37,46.37,0,0,0,19.69,4,45.78,45.78,0,0,0,18.38-3.69,45.11,45.11,0,0,0,14.93-10.42,48.39,48.39,0,0,0,10-16A56.38,56.38,0,0,0,331.3,732.58Zm-15.92,11.81a31,31,0,0,1-10.17,18.54,26.61,26.61,0,0,1-8.61,5,30.37,30.37,0,0,1-10.25,1.72,35.32,35.32,0,0,1-14.27-2.79,32.15,32.15,0,0,1-11-7.79A34.64,34.64,0,0,1,254,747.26a42.85,42.85,0,0,1-2.46-14.68,39.88,39.88,0,0,1,2.38-13.86,32.08,32.08,0,0,1,6.81-11.16,32.75,32.75,0,0,1,10.83-7.47A35.8,35.8,0,0,1,286,697.3a30.73,30.73,0,0,1,19.44,6.32q8.12,6.32,9.76,18.46H304.07a17.36,17.36,0,0,0-6.15-10.17A18.24,18.24,0,0,0,286,708a19.69,19.69,0,0,0-15.83,7.22,22.53,22.53,0,0,0-4.1,7.79,32.3,32.3,0,0,0-1.4,9.6,34.13,34.13,0,0,0,1.48,10.17,25.32,25.32,0,0,0,4.35,8.37,21.66,21.66,0,0,0,6.89,5.74,18.76,18.76,0,0,0,8.94,2.13,17.94,17.94,0,0,0,12.14-4.1,16.11,16.11,0,0,0,5.58-10.5h11.32Z"/><path class="cls-1" d="M407.92,674H459.6q12.47,0,20.34,3.61a32.13,32.13,0,0,1,12.14,9,30.69,30.69,0,0,1,5.82,11.81,50.24,50.24,0,0,1,1.56,11.81A49.23,49.23,0,0,1,497.91,722a30.74,30.74,0,0,1-5.82,11.73,31.43,31.43,0,0,1-12.14,8.94q-7.88,3.53-20.34,3.53H428.43v45H407.92V674Zm20.51,55.46h30a26.78,26.78,0,0,0,7.06-1,20.27,20.27,0,0,0,6.64-3.2,16.39,16.39,0,0,0,4.92-5.91A20.28,20.28,0,0,0,479,710.1a24,24,0,0,0-1.64-9.52,15.23,15.23,0,0,0-4.43-6,15.79,15.79,0,0,0-6.4-3,34.76,34.76,0,0,0-7.71-.82H428.43v38.72Z"/><path class="cls-1" d="M529.33,753.58a32.58,32.58,0,0,0,1.39,9.52,23.43,23.43,0,0,0,4.18,8,20.15,20.15,0,0,0,7.06,5.5,23.25,23.25,0,0,0,10.17,2.05q8.2,0,13.21-3.53a20.84,20.84,0,0,0,7.46-10.58h17.72A35.16,35.16,0,0,1,576.75,786a37.52,37.52,0,0,1-11.4,5.58,46,46,0,0,1-13.21,1.89,44.91,44.91,0,0,1-17.72-3.28,36.59,36.59,0,0,1-13-9.19,39,39,0,0,1-8-14.11,57.35,57.35,0,0,1-2.71-18,51,51,0,0,1,2.87-17.14,43.81,43.81,0,0,1,8.2-14.27A38.48,38.48,0,0,1,551.64,704a38,38,0,0,1,18,4.18,39.44,39.44,0,0,1,13.21,11.08,44.88,44.88,0,0,1,7.63,15.83,48.6,48.6,0,0,1,1.23,18.46H529.33ZM573,741.27a30.26,30.26,0,0,0-1.89-8.53,22.83,22.83,0,0,0-4.27-7.14,21.18,21.18,0,0,0-6.56-4.92,19.36,19.36,0,0,0-8.61-1.89,22.47,22.47,0,0,0-8.94,1.72,20.43,20.43,0,0,0-6.89,4.76,23.6,23.6,0,0,0-4.59,7.14,24.94,24.94,0,0,0-1.89,8.86H573Z"/><path class="cls-1" d="M620.56,753.58a32.53,32.53,0,0,0,1.39,9.52,23.36,23.36,0,0,0,4.19,8,20.14,20.14,0,0,0,7.05,5.5,23.25,23.25,0,0,0,10.17,2.05q8.2,0,13.21-3.53A20.86,20.86,0,0,0,664,764.57h17.72A35.19,35.19,0,0,1,668,786a37.5,37.5,0,0,1-11.4,5.58,46,46,0,0,1-13.21,1.89,44.91,44.91,0,0,1-17.72-3.28,36.58,36.58,0,0,1-13-9.19,39,39,0,0,1-8-14.11,57.31,57.31,0,0,1-2.71-18,51,51,0,0,1,2.87-17.14,43.84,43.84,0,0,1,8.2-14.27A38.49,38.49,0,0,1,642.87,704a38,38,0,0,1,18,4.18A39.46,39.46,0,0,1,674,719.29a44.89,44.89,0,0,1,7.63,15.83,48.57,48.57,0,0,1,1.23,18.46H620.56Zm43.64-12.31a30.22,30.22,0,0,0-1.89-8.53A22.77,22.77,0,0,0,658,725.6a21.17,21.17,0,0,0-6.56-4.92,19.35,19.35,0,0,0-8.61-1.89,22.48,22.48,0,0,0-8.94,1.72,20.4,20.4,0,0,0-6.89,4.76,23.54,23.54,0,0,0-4.59,7.14,24.82,24.82,0,0,0-1.89,8.86H664.2Z"/><path class="cls-1" d="M697.67,674h18.71v66.61l33.8-34.29h23L740.65,737.5l35.6,53.65H753.45L727.53,750,716.37,760.8v30.35H697.67V674Z"/><path class="cls-1" d="M785.77,674h18.7v17.72h-18.7V674Zm0,32.32h18.7v84.82h-18.7V706.33Z"/><path class="cls-1" d="M824.82,706.33h17.72V718.8l0.33,0.33A31.39,31.39,0,0,1,854,708a29.74,29.74,0,0,1,15.26-4q13.94,0,22,7.22t8,21.66v58.25H880.6V737.83q-0.33-10-4.27-14.52T864,718.8a20.31,20.31,0,0,0-8.53,1.72,18.47,18.47,0,0,0-6.4,4.76,22.34,22.34,0,0,0-4.1,7.14,25.45,25.45,0,0,0-1.48,8.7v50h-18.7V706.33Z"/><path class="cls-1" d="M997.42,786.72q0,19.2-10.75,28.63t-30.93,9.43a64.81,64.81,0,0,1-12.88-1.31A38.32,38.32,0,0,1,931.05,819a28.46,28.46,0,0,1-8.94-8.2,24.92,24.92,0,0,1-4.27-12.47h18.7a15,15,0,0,0,2.79,6.4,14.37,14.37,0,0,0,4.68,3.86,17.84,17.84,0,0,0,6,1.81,56,56,0,0,0,6.89.41q11.32,0,16.57-5.58t5.25-16.08v-13h-0.33a28.45,28.45,0,0,1-10.75,11A28.85,28.85,0,0,1,953,791.15q-10.17,0-17.31-3.53a32.93,32.93,0,0,1-11.81-9.68A40.2,40.2,0,0,1,917,763.75a66.94,66.94,0,0,1-2.13-17.23,50.07,50.07,0,0,1,2.62-16.24,41.4,41.4,0,0,1,7.55-13.54,36.16,36.16,0,0,1,12.06-9.27A36.7,36.7,0,0,1,953.29,704a32.59,32.59,0,0,1,14.77,3.36A22.85,22.85,0,0,1,978.39,718h0.33V706.33h18.7v80.39Zm-41.51-10.34a19.86,19.86,0,0,0,17.64-9.27,29.64,29.64,0,0,0,3.94-9.52,47.61,47.61,0,0,0,1.23-10.75,41.9,41.9,0,0,0-1.31-10.5,28.29,28.29,0,0,0-4-9,19.44,19.44,0,0,0-7.06-6.24,22.05,22.05,0,0,0-10.42-2.3,19.69,19.69,0,0,0-10.5,2.62,21,21,0,0,0-6.89,6.81,29.31,29.31,0,0,0-3.77,9.52,50,50,0,0,0-1.15,10.58,40.11,40.11,0,0,0,1.31,10.25,28.23,28.23,0,0,0,4,8.94,21.45,21.45,0,0,0,6.89,6.4A19.56,19.56,0,0,0,955.91,776.38Z"/><path class="cls-1" d="M1064.52,674h51.68q12.47,0,20.34,3.61a32.13,32.13,0,0,1,12.14,9,30.69,30.69,0,0,1,5.82,11.81,50.24,50.24,0,0,1,1.56,11.81,49.23,49.23,0,0,1-1.56,11.73,30.74,30.74,0,0,1-5.82,11.73,31.43,31.43,0,0,1-12.14,8.94q-7.88,3.53-20.34,3.53H1085v45h-20.51V674ZM1085,729.46h30a26.78,26.78,0,0,0,7.06-1,20.27,20.27,0,0,0,6.64-3.2,16.39,16.39,0,0,0,4.92-5.91,20.28,20.28,0,0,0,1.89-9.27,24,24,0,0,0-1.64-9.52,15.23,15.23,0,0,0-4.43-6,15.79,15.79,0,0,0-6.4-3,34.76,34.76,0,0,0-7.71-.82H1085v38.72Z"/><path class="cls-1" d="M1171.33,706.33h17.56v16.41h0.33a18.94,18.94,0,0,1,3.2-6.73,31.15,31.15,0,0,1,5.74-6,29,29,0,0,1,7.46-4.35A22.37,22.37,0,0,1,1214,704a41,41,0,0,1,4.51.16l2.54,0.33v18q-2-.33-4-0.57a33.8,33.8,0,0,0-4-.25,21.52,21.52,0,0,0-8.94,1.89,20.53,20.53,0,0,0-7.3,5.58,27.33,27.33,0,0,0-4.92,9.11,39.41,39.41,0,0,0-1.8,12.47v40.36h-18.71V706.33Z"/><path class="cls-1" d="M1240.73,753.58a32.51,32.51,0,0,0,1.39,9.52,23.36,23.36,0,0,0,4.19,8,20.14,20.14,0,0,0,7.05,5.5,23.25,23.25,0,0,0,10.17,2.05q8.2,0,13.21-3.53a20.86,20.86,0,0,0,7.46-10.58h17.72A35.19,35.19,0,0,1,1288.15,786a37.51,37.51,0,0,1-11.4,5.58,46,46,0,0,1-13.21,1.89,44.91,44.91,0,0,1-17.72-3.28,36.59,36.59,0,0,1-13-9.19,39,39,0,0,1-8-14.11,57.31,57.31,0,0,1-2.71-18,51,51,0,0,1,2.87-17.14,43.84,43.84,0,0,1,8.2-14.27A38.49,38.49,0,0,1,1263,704a38,38,0,0,1,18,4.18,39.46,39.46,0,0,1,13.21,11.08,44.89,44.89,0,0,1,7.63,15.83,48.57,48.57,0,0,1,1.23,18.46h-62.35Zm43.64-12.31a30.22,30.22,0,0,0-1.89-8.53,22.77,22.77,0,0,0-4.27-7.14,21.17,21.17,0,0,0-6.56-4.92,19.35,19.35,0,0,0-8.61-1.89,22.48,22.48,0,0,0-8.94,1.72,20.4,20.4,0,0,0-6.89,4.76,23.53,23.53,0,0,0-4.59,7.14,24.81,24.81,0,0,0-1.89,8.86h43.64Z"/><path class="cls-1" d="M1331.46,763.91q0.82,8.21,6.23,11.48a24.52,24.52,0,0,0,13,3.28,49.94,49.94,0,0,0,6-.41,26,26,0,0,0,6.32-1.56,11.87,11.87,0,0,0,4.84-3.36,8.09,8.09,0,0,0,1.72-5.82,8.28,8.28,0,0,0-2.63-5.91,18.23,18.23,0,0,0-6.32-3.69,61.47,61.47,0,0,0-8.78-2.38q-4.92-1-10-2.13a93.21,93.21,0,0,1-10.09-2.79,32.45,32.45,0,0,1-8.69-4.43,20.44,20.44,0,0,1-6.15-7.14,22.78,22.78,0,0,1-2.3-10.75,19.28,19.28,0,0,1,3.36-11.57,25.78,25.78,0,0,1,8.53-7.55,37.22,37.22,0,0,1,11.48-4A67.63,67.63,0,0,1,1350,704a55.27,55.27,0,0,1,12.55,1.39,34.16,34.16,0,0,1,10.83,4.51,26.52,26.52,0,0,1,8,8.12,28.15,28.15,0,0,1,4,12.06h-19.52q-1.31-6.73-6.15-9a25.56,25.56,0,0,0-11.08-2.3,39.78,39.78,0,0,0-4.68.33,21.74,21.74,0,0,0-5.08,1.23,10.68,10.68,0,0,0-4,2.62,6.27,6.27,0,0,0-1.64,4.51,7.14,7.14,0,0,0,2.38,5.58,18.78,18.78,0,0,0,6.23,3.53,61.19,61.19,0,0,0,8.78,2.38q4.92,1,10.17,2.13,5.08,1.15,10,2.79a32.36,32.36,0,0,1,8.78,4.43,21.61,21.61,0,0,1,6.23,7.06,21.32,21.32,0,0,1,2.38,10.5,22.82,22.82,0,0,1-3.45,12.8,27.21,27.21,0,0,1-8.94,8.53,40.67,40.67,0,0,1-12.22,4.76,61.87,61.87,0,0,1-13.29,1.48,57.86,57.86,0,0,1-14.85-1.8,34.57,34.57,0,0,1-11.81-5.5,26.51,26.51,0,0,1-7.88-9.19,29.19,29.19,0,0,1-3-13h18.7Z"/><path class="cls-1" d="M1416.62,763.91q0.82,8.21,6.23,11.48a24.51,24.51,0,0,0,13,3.28,49.93,49.93,0,0,0,6-.41,26,26,0,0,0,6.32-1.56,11.87,11.87,0,0,0,4.84-3.36,8.09,8.09,0,0,0,1.72-5.82,8.27,8.27,0,0,0-2.62-5.91,18.26,18.26,0,0,0-6.32-3.69,61.48,61.48,0,0,0-8.78-2.38q-4.92-1-10-2.13a92.84,92.84,0,0,1-10.09-2.79,32.41,32.41,0,0,1-8.7-4.43,20.44,20.44,0,0,1-6.15-7.14,22.78,22.78,0,0,1-2.3-10.75,19.28,19.28,0,0,1,3.36-11.57,25.78,25.78,0,0,1,8.53-7.55,37.23,37.23,0,0,1,11.49-4,67.59,67.59,0,0,1,12.06-1.15,55.29,55.29,0,0,1,12.55,1.39,34.16,34.16,0,0,1,10.83,4.51,26.53,26.53,0,0,1,8,8.12,28.15,28.15,0,0,1,4,12.06h-19.52q-1.32-6.73-6.15-9a25.57,25.57,0,0,0-11.08-2.3,39.74,39.74,0,0,0-4.67.33,21.74,21.74,0,0,0-5.09,1.23,10.72,10.72,0,0,0-4,2.62,6.28,6.28,0,0,0-1.64,4.51,7.13,7.13,0,0,0,2.38,5.58,18.76,18.76,0,0,0,6.23,3.53,61,61,0,0,0,8.78,2.38q4.92,1,10.17,2.13,5.08,1.15,10,2.79a32.32,32.32,0,0,1,8.78,4.43,21.57,21.57,0,0,1,6.23,7.06,21.32,21.32,0,0,1,2.38,10.5,22.82,22.82,0,0,1-3.44,12.8,27.24,27.24,0,0,1-8.94,8.53,40.61,40.61,0,0,1-12.22,4.76,61.87,61.87,0,0,1-13.29,1.48,57.83,57.83,0,0,1-14.85-1.8,34.57,34.57,0,0,1-11.81-5.5,26.49,26.49,0,0,1-7.88-9.19,29.19,29.19,0,0,1-3-13h18.71Z"/><path class="cls-1" d="M1535.9,674h20.51v99.43H1616v17.72H1535.9V674Z"/><path class="cls-1" d="M1630.07,674h20.51v99.43h59.56v17.72h-80.07V674Z"/><path class="cls-1" d="M1803.33,711.25a41.74,41.74,0,0,0-3.61-9.35,25.93,25.93,0,0,0-5.91-7.38,26.3,26.3,0,0,0-8.45-4.84,33.49,33.49,0,0,0-11.24-1.72,32.85,32.85,0,0,0-16.16,3.77,31.72,31.72,0,0,0-11.08,10.09,45.49,45.49,0,0,0-6.32,14.36,66.65,66.65,0,0,0,0,32.81,45.43,45.43,0,0,0,6.32,14.36A31.66,31.66,0,0,0,1758,773.43a32.81,32.81,0,0,0,16.16,3.77,29.15,29.15,0,0,0,12.14-2.38,27,27,0,0,0,9-6.56,30.88,30.88,0,0,0,5.91-9.76,46.87,46.87,0,0,0,2.79-12h20a55.55,55.55,0,0,1-4.51,19.2,47.08,47.08,0,0,1-10.42,15,46,46,0,0,1-15.42,9.76,53.45,53.45,0,0,1-19.52,3.44,55.26,55.26,0,0,1-23.54-4.84,51.72,51.72,0,0,1-17.64-13.21,59,59,0,0,1-11.07-19.52,74.8,74.8,0,0,1,0-47.42,59,59,0,0,1,11.07-19.52,52.66,52.66,0,0,1,17.64-13.29,54.45,54.45,0,0,1,23.54-4.92,62.07,62.07,0,0,1,18.54,2.71A48,48,0,0,1,1808,681.8a40.94,40.94,0,0,1,10.75,12.55,43.72,43.72,0,0,1,5.08,16.9h-20.51Z"/></g></svg>