<svg id="BG" xmlns="http://www.w3.org/2000/svg" xmlns:xlink="http://www.w3.org/1999/xlink" viewBox="0 0 2048 1496"><defs><style>.cls-1,.cls-106,.cls-16,.cls-25,.cls-26,.cls-30,.cls-47,.cls-49{fill:#fff;}.cls-2{fill:#d2cdc6;}.cls-105,.cls-19,.cls-2,.cls-29,.cls-31,.cls-34,.cls-46,.cls-47,.cls-55,.cls-6,.cls-60,.cls-64,.cls-7,.cls-70,.cls-72,.cls-76,.cls-79,.cls-82,.cls-96,.cls-98{opacity:0.3;}.cls-10,.cls-107,.cls-15,.cls-3,.cls-30,.cls-38,.cls-4,.cls-67,.cls-69,.cls-75,.cls-77,.cls-83,.cls-85,.cls-99{opacity:0.5;}.cls-3{fill:url(#linear-gradient);}.cls-4{fill:#bfb6ad;}.cls-32,.cls-5{opacity:0.8;}.cls-5{fill:url(#linear-gradient-2);}.cls-6{fill:url(#linear-gradient-3);}.cls-7{fill:url(#linear-gradient-4);}.cls-18,.cls-26,.cls-35,.cls-48,.cls-73,.cls-8,.cls-81,.cls-84,.cls-87,.cls-88{opacity:0.4;}.cls-8{fill:url(#linear-gradient-5);}.cls-9{fill:#d06f1a;}.cls-10,.cls-11,.cls-18,.cls-24,.cls-32,.cls-46{fill:#7c3a00;}.cls-104,.cls-11,.cls-21,.cls-25,.cls-28,.cls-37,.cls-41,.cls-42,.cls-53,.cls-92{opacity:0.2;}.cls-12,.cls-17,.cls-23,.cls-39,.cls-51,.cls-61{fill:none;}.cls-12,.cls-17,.cls-39{stroke:#0f0b00;}.cls-12,.cls-17,.cls-23,.cls-39,.cls-51,.cls-57,.cls-61{stroke-linecap:round;stroke-linejoin:round;}.cls-12,.cls-51{stroke-width:5px;}.cls-13,.cls-19,.cls-42{fill:#f9e3c2;}.cls-14,.cls-48,.cls-50{fill:#e6bb83;}.cls-15{fill:#d39d60;}.cls-16{opacity:0.7;}.cls-17,.cls-23,.cls-57{stroke-width:4px;}.cls-20{fill:#df7a1c;}.cls-21,.cls-22{fill:#bb813b;}.cls-22,.cls-45{opacity:0.25;}.cls-23,.cls-51,.cls-57,.cls-61{stroke:#000;}.cls-24,.cls-49,.cls-50,.cls-71,.cls-89,.cls-91,.cls-94{opacity:0.6;}.cls-27,.cls-29,.cls-41,.cls-44,.cls-45,.cls-67{fill:#471e00;}.cls-102,.cls-106,.cls-27,.cls-36,.cls-59,.cls-66{opacity:0.1;}.cls-28,.cls-31{fill:#c74a5d;}.cls-33,.cls-77{fill:#8dc63f;}.cls-34,.cls-35,.cls-74{fill:#439539;}.cls-36,.cls-37,.cls-56,.cls-71,.cls-75{fill:#006325;}.cls-38,.cls-55,.cls-94{fill:#c8df8e;}.cls-39{stroke-width:5.25px;}.cls-40{fill:#0f0b00;}.cls-43{fill:#9f500a;}.cls-103,.cls-44,.cls-52,.cls-56{opacity:0.15;}.cls-52,.cls-53{fill:#00bce4;}.cls-54{fill:#af5a10;}.cls-58,.cls-97{fill:#eeb111;}.cls-58{opacity:0.9;}.cls-59,.cls-78{fill:#af006e;}.cls-60{fill:#fff203;}.cls-61{stroke-width:4.2px;}.cls-62{fill:#ef5091;}.cls-63{fill:#c60651;}.cls-64,.cls-85{fill:#facbd6;}.cls-65,.cls-84,.cls-91{fill:#6f1200;}.cls-66{fill:#ffd24f;}.cls-68{fill:#06a5ca;}.cls-69,.cls-87{fill:#003e7e;}.cls-70,.cls-88,.cls-89{fill:#b9e0f7;}.cls-72,.cls-92{fill:#fffac4;}.cls-73,.cls-98{fill:#795300;}.cls-76,.cls-93{fill:#7ac143;}.cls-79{fill:#1c3f94;}.cls-80{fill:#00958f;}.cls-81{fill:#002933;}.cls-82{fill:#dee1bd;}.cls-83{fill:#f78e1e;}.cls-86{fill:#009ddc;}.cls-90{fill:#e31b23;}.cls-95{fill:#f47b20;}.cls-100,.cls-96,.cls-99{fill:#ffde6c;}.cls-101{fill:#7c6a55;}.cls-102,.cls-103,.cls-104,.cls-105{fill:#413000;}</style><linearGradient id="linear-gradient" x1="1024" y1="1496" x2="1024" gradientUnits="userSpaceOnUse"><stop offset="0" stop-color="#004a61"/><stop offset="0.24" stop-color="#397990"/><stop offset="0.5" stop-color="#70a5bc"/><stop offset="0.72" stop-color="#98c5dc"/><stop offset="0.89" stop-color="#b0d9f0"/><stop offset="1" stop-color="#b9e0f7"/></linearGradient><linearGradient id="linear-gradient-2" x1="1024" y1="1008" x2="1024" y2="1496" gradientUnits="userSpaceOnUse"><stop offset="0" stop-color="#006325"/><stop offset="0.29" stop-color="#2d8530"/><stop offset="0.61" stop-color="#57a63a"/><stop offset="0.85" stop-color="#70ba41"/><stop offset="1" stop-color="#7ac143"/></linearGradient><linearGradient id="linear-gradient-3" x1="533.77" y1="1429.5" x2="555.58" y2="1180.22" gradientUnits="userSpaceOnUse"><stop offset="0" stop-color="#8bbb64"/><stop offset="0.05" stop-color="#85b25f"/><stop offset="0.71" stop-color="#3f451b"/><stop offset="1" stop-color="#231900"/></linearGradient><linearGradient id="linear-gradient-4" x1="549.92" y1="1404.03" x2="549.92" y2="1201" xlink:href="#linear-gradient-3"/><linearGradient id="linear-gradient-5" x1="1473.27" y1="1329.8" x2="1495.1" y2="1080.25" gradientUnits="userSpaceOnUse"><stop offset="0" stop-color="#81aa69"/><stop offset="0.02" stop-color="#7ca364"/><stop offset="0.18" stop-color="#617946"/><stop offset="0.34" stop-color="#4b562c"/><stop offset="0.5" stop-color="#393b19"/><stop offset="0.66" stop-color="#2d280b"/><stop offset="0.83" stop-color="#251d03"/><stop offset="1" stop-color="#231900"/></linearGradient></defs><title>4-fox</title><rect id="white" class="cls-1" width="2048" height="1496"/><rect id="neutral" class="cls-2" width="2048" height="1496"/><rect id="sky" class="cls-3" width="2048" height="1496"/><rect id="white-2" data-name="white" class="cls-1" y="1008" width="2048" height="488"/><rect id="neutral-2" data-name="neutral" class="cls-4" y="1008" width="2048" height="488"/><rect id="grass" class="cls-5" y="1008" width="2048" height="488"/><path class="cls-6" d="M245,1201L0,1262v101.27C19,1375.55,46.24,1389,75,1389c53,0,100-20,100-20s9,19,35,22,81.35-6.22,81.35-6.22L393,1382.45S411,1403,458,1404s89-25.08,89-25.08S603,1400,655,1400s150-27,150-27,54-5,92-26,43.59-40.76,43.59-40.76l159.25-78.41Z"/><path class="cls-7" d="M245,1201L0,1262v101.27C19,1375.55,46.24,1389,75,1389c53,0,100-20,100-20s9,19,35,22,81.35-6.22,81.35-6.22L393,1382.45S411,1403,458,1404s89-25.08,89-25.08S603,1400,655,1400s150-27,150-27,54-5,92-26,43.59-40.76,43.59-40.76l159.25-78.41Z"/><path class="cls-8" d="M1889.33,1166.75c-39.26,4.28-30.65,6.4-64.06,10.15q-3.21-.63-6.54-1.26c7.37-4.15,15.19-8.77,24.27-13.76,28-15.4,76-56.11,34-45.43s-118-13.74-178,18.32c-51.37,27.45-78-2.69-176,13.74-5.5.92-10.76,1.86-15.83,2.81q-22.76-.32-46.17-0.32c-243,0-440,26.41-440,59,0,16.24,49,31,128.14,41.62-3.07,11.49-38.39,45.5,17.86,51.38,22,2.3,127.39-22.34,153.4-21.4,80.11,2.9,147.72-2.62,167.2-12.71,180.82-1.45,332.22-17.53,389.18-39.54,8.41,3,18.33,5.52,49.88-5.89C1982.91,1203.11,1906,1164.93,1889.33,1166.75Z"/><path id="base" class="cls-9" d="M1590,876s115.67-3.67,147-43-11.53-111.51,44.67-150c48.67-33.33,99.89,5.15,152-27.33,51.33-32,82,4.67,82,4.67s-33.68,23.14-36.67,56c-2.67,29.33,4.67,43.33-14.67,68-24.54,31.31-52,8-84,24-66.2,33.1-6.67,116-74,152.67-90.07,49-240.33-28-240.33-28Z"/><path id="base_-_darker" data-name="base - darker" class="cls-10" d="M1590,876s115.67-3.67,147-43-11.53-111.51,44.67-150c48.67-33.33,99.89,5.15,152-27.33,51.33-32,82,4.67,82,4.67s-33.68,23.14-36.67,56c-2.67,29.33,4.67,43.33-14.67,68-24.54,31.31-52,8-84,24-66.2,33.1-6.67,116-74,152.67-90.07,49-240.33-28-240.33-28Z"/><path id="shadow" class="cls-11" d="M1590,876s115.67-3.67,147-43,136.67,91.34,69.33,128c-90.07,49-240.33-28-240.33-28Z"/><path id="shadow_2" data-name="shadow 2" class="cls-11" d="M1590,876s82.67-7.67,116.33-21c20.63-8.17,48.33,14,62,39.67,15.1,28.36,20.52,75.36-5,81.33C1695,992,1566,933,1566,933Z"/><path id="shadow_3" data-name="shadow 3" class="cls-10" d="M1590,876s67.33,9,98,50c44.6,59.63,100.86,44,75.33,50C1695,992,1566,933,1566,933Z"/><path id="outline" class="cls-12" d="M1590,876s115.67-3.67,147-43-11.53-111.51,44.67-150c48.67-33.33,99.89,5.15,152-27.33,51.33-32,82,4.67,82,4.67s-33.68,23.14-36.67,56c-2.67,29.33,4.67,43.33-14.67,68-24.54,31.31-52,8-84,24-66.2,33.1-6.67,116-74,152.67-90.07,49-240.33-28-240.33-28Z"/><path id="tip_base" data-name="tip base" class="cls-13" d="M1996.5,717.25L1973,770.63a72.63,72.63,0,0,1-8.68,13.7c-17.72,22.61-37,16.74-58.34,17.75,0,0-38.32-.92-59,22.41,0,0-7.5-21.72-3-46.5,2-11-32.17,16.33-53,39.5,0,0-8.67-39.17,17.33-68.83,0,0-26-.67-38.67,25.67,0,0-18-44-11.33-64,1.86-5.57,9-17.55,12-20.67,49-50.33,111.22-1.51,163.33-34,51.33-32,82,4.67,82,4.67s-33.68,23.14-36.67,56c-0.43,4.69-.6,9-0.66,13C1978.34,729.33,1989,729,1996.5,717.25Z"/><path id="tip_base_darker" data-name="tip base darker" class="cls-14" d="M1996.5,717.25L1973,770.63a72.63,72.63,0,0,1-8.68,13.7c-17.72,22.61-37,16.74-58.34,17.75,0,0-38.32-.92-59,22.41,0,0-7.5-21.72-3-46.5,2-11-32.17,16.33-53,39.5,0,0-8.67-39.17,17.33-68.83,0,0-26-.67-38.67,25.67,0,0-18-44-11.33-64,1.86-5.57,9-17.55,12-20.67,49-50.33,111.22-1.51,163.33-34,51.33-32,82,4.67,82,4.67s-33.68,23.14-36.67,56c-0.43,4.69-.6,9-0.66,13C1978.34,729.33,1989,729,1996.5,717.25Z"/><path id="shadow-2" data-name="shadow" class="cls-15" d="M1976,763.33c-2,4.28-7.81,16.08-11.67,21-17.72,22.61-37,16.74-58.34,17.75,0,0-38.32-.92-59,22.41,0,0,.36-15.52,12.33-25.5,28-23.33,47.51-.9,65.33-17.67C1964,744.33,1976,763.33,1976,763.33Z"/><path id="tip_base_highlight_1" data-name="tip base highlight 1" class="cls-13" d="M1770.33,689.67c49-50.33,111.22-1.51,163.33-34,51.33-32,82,4.67,82,4.67a108.6,108.6,0,0,0-23.47,23.45c-6.48,8.95-32.82,25.5-58.2,22.71-26-2.85-42-21-86-20.5C1806.06,686.48,1769.09,690.95,1770.33,689.67Z"/><path id="tip_base_highlight_2" data-name="tip base highlight 2" class="cls-16" d="M1933.67,655.67c52-30.82,82,4.67,82,4.67S2010.5,664,2000,673c-9,7.68-13-10.5-39,2C1937.41,686.34,1912,668.5,1933.67,655.67Z"/><path id="tip_outline" data-name="tip outline" class="cls-17" d="M1996.5,717.25L1973,770.63a72.63,72.63,0,0,1-8.68,13.7c-17.72,22.61-37,16.74-58.34,17.75,0,0-38.32-.92-59,22.41,0,0-7.5-21.72-3-46.5,2-11-32.17,16.33-53,39.5,0,0-8.67-39.17,17.33-68.83,0,0-26-.67-38.67,25.67,0,0-18-44-11.33-64,1.86-5.57,9-17.55,12-20.67,49-50.33,111.22-1.51,163.33-34,51.33-32,82,4.67,82,4.67s-33.68,23.14-36.67,56c-0.43,4.69-.6,9-0.66,13C1978.34,729.33,1989,729,1996.5,717.25Z"/><g id="RIGHT_ARM" data-name="RIGHT ARM"><path id="base-2" data-name="base" class="cls-9" d="M1357.5,672.52s-94.16-26.1-127.72-94.81c0,0-37.92,33.55-68.31,9s22.44-79.4,22.44-79.4,34.89,4.38,27.71-20.26c-3.62-12.41,4.34-22.7,11.3-27.91,13.56-10.15,24.25-5.33,28.74-1.37,12.93,11.4,7.5,20.87,4.63,32-2.36,9.13-13.53,72,38.41,94.07s92.68,11.64,92.68,11.64Z"/><path id="shadow_1" data-name="shadow 1" class="cls-18" d="M1357.5,672.52s-94.16-26.1-127.72-94.81c0,0-37.92,33.55-68.31,9s20.53-1.06,40.87-18.06,42-31,44.33-12.33c1.17,9.36-14.94,30.23,37,52.33s101.67-5,101.67-5Z"/><path id="thumb_highlight" data-name="thumb highlight" class="cls-19" d="M1210.75,477s6.5-24.5,30.75-23.75c0,0,26.5,6.25,16.25,34.5,0,0-5.25,14.5-4,18.75,0,0,4-57.75-31-27.75C1214.43,485.88,1210.75,477,1210.75,477Z"/><path id="outline-2" data-name="outline" class="cls-17" d="M1357.5,672.52s-94.16-26.1-127.72-94.81c0,0-37.92,33.55-68.31,9s22.44-79.4,22.44-79.4,34.89,4.38,27.71-20.26c-3.62-12.41,4.34-22.7,11.3-27.91,13.56-10.15,24.25-5.33,28.74-1.37,12.93,11.4,7.5,20.87,4.63,32-2.36,9.13-13.53,72,38.41,94.07s92.68,11.64,92.68,11.64Z"/><path id="finger_3_-_base" data-name="finger 3 - base" class="cls-20" d="M1150.51,514.12s-5.22-18.8-3-32.06c1.73-10.23,8.51-18.19,23.33-9.28,15.33,9.22,33.4,25.39,35.07,32.22,5.93,24.27-30.5,24.1-30.5,24.1Z"/><path id="finger_3_-_shadow" data-name="finger 3 - shadow" class="cls-18" d="M1150.51,514.12s-5.22-18.8-3-32.06c1.73-10.23,5,11.59,19.14,21.61,25.33,18,44.67,1.67,37.32,14.89-6.32,11.37-28.56,10.54-28.56,10.54Z"/><path id="finger_3_-_outline" data-name="finger 3 - outline" class="cls-17" d="M1150.51,514.12s-5.22-18.8-3-32.06c1.73-10.23,8.51-18.19,23.33-9.28,15.33,9.22,33.4,25.39,35.07,32.22,5.93,24.27-30.5,24.1-30.5,24.1Z"/><path id="finger_2_-_base" data-name="finger 2 - base" class="cls-20" d="M1137.26,552.94s-16.34-26.35-7.73-38.92,22.77-5.75,34.59-.25c9,4.17,19.23,11.51,20.59,18.12,3.59,17.46-19.92,30.81-19.92,30.81Z"/><path id="finger_2_-_shadow" data-name="finger 2 - shadow" class="cls-18" d="M1137.26,552.94s-16.34-26.35-7.73-38.92,3.77,13.59,24.81,27c14.67,9.33,29.67,2.32,26.6,7-5.93,9-16.15,14.76-16.15,14.76Z"/><path id="finger_2_-_outline" data-name="finger 2 - outline" class="cls-17" d="M1137.26,552.94s-16.34-26.35-7.73-38.92,22.77-5.75,34.59-.25c9,4.17,19.23,11.51,20.59,18.12,3.59,17.46-19.92,30.81-19.92,30.81Z"/><path id="finger_1_-_base" data-name="finger 1 - base" class="cls-20" d="M1142.76,596.44c-9.5-3.15-31.35-10.21-24.95-30,4.27-13.18,15.26-20.74,28.42-18s24.43,11.73,30.78,21.12,4.23,19.23-1.64,27.89C1170.69,604.36,1152.25,599.59,1142.76,596.44Z"/><path id="finger_1_-_shadow" data-name="finger 1 - shadow" class="cls-18" d="M1142.76,596.44c-9.5-3.15-31.35-10.21-24.95-30,4.27-13.18,21,14.83,34.19,17.53s8.28-22.07,25-14.45c4.65,2.12,4.23,19.23-1.64,27.89C1170.69,604.36,1152.25,599.59,1142.76,596.44Z"/><path id="finger_1_-_outline" data-name="finger 1 - outline" class="cls-17" d="M1142.76,596.44c-9.5-3.15-31.35-10.21-24.95-30,4.27-13.18,15.26-20.74,28.42-18s24.43,11.73,30.78,21.12,4.23,19.23-1.64,27.89C1170.69,604.36,1152.25,599.59,1142.76,596.44Z"/><path id="extra_lines" data-name="extra lines" class="cls-17" d="M1224.65,581.68s9.22-7.16,12.68-12.91"/><path id="extra_lines-2" data-name="extra lines" class="cls-17" d="M1211.81,487.79s2.19,12.21,5.52,15.87"/></g><g id="RIGHT_HAIR" data-name="RIGHT HAIR"><path id="base-3" data-name="base" class="cls-14" d="M1367,471.67s-8.67,28-22.67,38.67c0,0,44.67-11.33,92.67,32s22,25.33,22,25.33l44.67-1.33,28.67-76.67-102-64.17,2.67-27.17s-114,27.33-143.33,87.33c0,0,46.67-29.33,108.67-5.33"/><path id="shadow_1-2" data-name="shadow 1" class="cls-21" d="M1367,471.67s-8.67,28-22.67,38.67c0,0,44.67-11.33,92.67,32s22,25.33,22,25.33l79.25-85.17s-81.58,38.17-126-8.75c-10.1-10.67-45.42-6.75-39.37-54.49,0.36-2.84-5.27,2.37-7.92,3.64-30.11,14.3-61.73,35-75.29,62.77,0,0,46.67-29.33,108.67-5.33"/><path id="shadow_2-2" data-name="shadow 2" class="cls-22" d="M1367,471.67s-18.06-5.58-26-15c-5.82-6.91-1.92-18.61-3-18-28.33,16-38.33,28.33-48.34,47,0,0,15-10,38-13.67S1367,471.67,1367,471.67Z"/><path id="shadow_3-2" data-name="shadow 3" class="cls-22" d="M1346.67,509.33s34-7.67,78.33,23.33c0,0,10.67-7.33,39.67,21.67,0,0,14.67-7.67,24-28.67,0,0-40.33-1.67-86-20-20.65-8.29-4.33-25.33-4.33-25.33l-32-8A87.29,87.29,0,0,1,1346.67,509.33Z"/><path id="outline-3" data-name="outline" class="cls-23" d="M1366.58,473.42s-8.25,26.25-22.25,36.92c0,0,44.67-11.33,92.67,32s22,25.33,22,25.33l44.67-1.33,28.67-76.67-72-85.33-27.33-6s-114,27.33-143.33,87.33c0,0,46.67-29.33,108.67-5.33"/></g><g id="LEFT_EAR" data-name="LEFT EAR"><path id="base-4" data-name="base" class="cls-9" d="M1727,316.33s10.32-33.5,53.67-45.67c19-5.33,27.67.67,43.67-4.33,14.43-4.51,22.67-18,22.67-18s2,28-12,34c0,0,40-20.67,39.33-42,0,0,28.67,145.33-144,166Z"/><path id="ear_shadow" data-name="ear shadow" class="cls-24" d="M1734.67,406.17s64.67-6.42,107-48.67,33.33-115,33.33-115-6.93,23-39.67,39.33c-2,1-1.75,4.5-8.5,9.5-10.67,7.9-22.86,13.74-37.58,15.17-23.25,2.25-30.67,14.92-42.75,42.25S1734.67,406.17,1734.67,406.17Z"/><path id="ear_highlight" data-name="ear highlight" class="cls-25" d="M1745.75,290s23.38-27,71.88-21.5c0,0,19.38-4.62,29.5-19.37,0,0-1.25,22.38-4,25.5a80.09,80.09,0,0,0-29.12-.29c-15.12,2.88-18.33,10.67-34.67,15A73.16,73.16,0,0,1,1745.75,290Z"/><path id="ear_highlight-2" data-name="ear highlight" class="cls-26" d="M1755.75,282.08s19.75-13.25,41-13.67c0,0-7.42,10.17-19.5,13.17A47.26,47.26,0,0,1,1755.75,282.08Z"/><path id="outline-4" data-name="outline" class="cls-23" d="M1727,316.33s10.32-33.5,53.67-45.67c19-5.33,27.67.67,43.67-4.33,14.43-4.51,22.67-18,22.67-18s2,28-12,34c0,0,40-20.67,39.33-42,0,0,28.67,145.33-144,166Z"/><path id="inside_-_base" data-name="inside - base" class="cls-14" d="M1728.67,339s9.33-28.33,46-40c14.67-4.67,28,1.33,49,1.33,20.67,0,34.67-15.33,34.67-15.33s-11,96.33-132.67,104Z"/><path id="inner_ear_shadow_1" data-name="inner ear shadow 1" class="cls-27" d="M1738.67,361s0.67-36.83-.17-37.67c0,0,24.33-34.17,65.33-24.5,0,0,22,4.33,33.33-.17,0,0-17.22,11.39-22.83,21.67-10,18.33-17.67,24.33-31.33,33.33C1766.56,364.49,1738.67,361,1738.67,361Z"/><path id="inner_ear_shadow_2" data-name="inner ear shadow 2" class="cls-28" d="M1738.5,340.5c0.17-.67-0.83-17.67-0.83-17.67s26-34.5,71.17-23.33c0,0-20.17,27-32.67,35.17S1738.5,340.5,1738.5,340.5Z"/><path id="inside_-_outline" data-name="inside - outline" class="cls-23" d="M1728.67,339s9.33-28.33,46-40c14.67-4.67,28,1.33,49,1.33,20.67,0,34.67-15.33,34.67-15.33s-11,96.33-132.67,104Z"/></g><g id="RIGHT_EAR" data-name="RIGHT EAR"><path id="base-5" data-name="base" class="cls-9" d="M1574.33,321.67s-84.67-44.33-18.67-142.67c0,0-1,4.67,3.33,10.33,0,0,11.67-12.67,8.67-36.33,0,0,11.33,8,14.67,25,0,0,2.67-12.67,10.33-16.67,0,0-1,5.67,6,13S1620.34,186,1635,205.67s14.67,70,14.67,70Z"/><path id="shadow_1-3" data-name="shadow 1" class="cls-29" d="M1537.17,282.33S1524.5,261.17,1532,231a154.21,154.21,0,0,1,23.5-51.17s-0.17,8.5,3.67,9.67,0.17,0.67.17,0.67,6.17,10.67,9.5,9c0,0-32.33,30.83-15.67,74.33Z"/><path id="ear_highlight-3" data-name="ear highlight" class="cls-25" d="M1592.75,162.5a39.33,39.33,0,0,0,18.25,21c12.93,7,18.25,14.61,25,23.75,7.75,10.5,10.5,33,10.5,33s-19.25-11.25-24.5-31-31.25-16.75-32.25-28.75S1592.75,162.5,1592.75,162.5Z"/><path class="cls-30" d="M1609.17,182.67s32.17,20.83,33,37.67c0,0-11.67,2.83-13.17-6.67s-5.83-14-9.5-18.5S1609.17,182.67,1609.17,182.67Z"/><path id="outline-5" data-name="outline" class="cls-23" d="M1574.33,321.67s-84.67-44.33-18.67-142.67c0,0-1,4.67,3.33,10.33,0,0,11.67-12.67,8.67-36.33,0,0,11.33,8,14.67,25,0,0,2.67-12.67,10.33-16.67,0,0-1,5.67,6,13S1620.34,186,1635,205.67s14.67,70,14.67,70Z"/><path id="inside_-_base-2" data-name="inside - base" class="cls-14" d="M1590.67,308s-81-35.33-21.33-109c0,0,66.33,5,56.67,82Z"/><path class="cls-27" d="M1602.25,281.5s13.75-14,25.5-16.5c0,0-1.5-60.75-58.5-66.25,0,0,13.91,9,21.92,36.08,9.25,31.25-8.92,37.17-8.92,37.17Z"/><path class="cls-31" d="M1586.67,203.17s38.5,13.5,40.5,58l-1.67,4.5s-15.33,7.33-18.17,11.5c0,0,5-10.5,1.17-34C1605.39,224.07,1586.67,203.17,1586.67,203.17Z"/><path id="inside_-_outline-2" data-name="inside - outline" class="cls-23" d="M1590.67,308s-81-35.33-21.33-109c0,0,66.33,5,56.67,82Z"/></g><g id="RIGHT_LEG" data-name="RIGHT LEG"><path id="base-6" data-name="base" class="cls-9" d="M1269.33,968s-84.33,46-40,149c0,0-83.43,29.57-77,55.67,6,24.33,43.33,28.33,88,26.67s76.33-21,76.33-21,2.67-20.67-4.33-33.33-12-40.67-6-62.33,45.33-48.33,45.33-48.33"/><path id="shadow-3" data-name="shadow" class="cls-24" d="M1269.33,968s-84.33,46-40,149c0,0-83.43,29.57-77,55.67,6,24.33,43.33,28.33,88,26.67s76.33-21,76.33-21,2.67-20.67-4.33-33.33-12-40.67-6-62.33,45.33-48.33,45.33-48.33"/><path id="shadow_2-3" data-name="shadow 2" class="cls-32" d="M1269.33,968s-9.82,4-25,21.67c-12,14,27.33,14.67,43.33,50s4,94,18.67,43c6.21-21.61,45.33-48.33,45.33-48.33Z"/><path id="outline-6" data-name="outline" class="cls-12" d="M1269.33,968s-84.33,46-40,149c0,0-83.43,29.57-77,55.67,6,24.33,43.33,28.33,88,26.67s76.33-21,76.33-21,2.67-20.67-4.33-33.33-12-40.67-6-62.33,45.33-48.33,45.33-48.33"/><path id="extra_lines-3" data-name="extra lines" class="cls-12" d="M1229.33,1117a33.91,33.91,0,0,0,3.82,6.31"/></g><g id="RIGHT_SOCK" data-name="RIGHT SOCK"><g id="base-7" data-name="base"><path class="cls-33" d="M1216.48,1062.66c-6.4.6-10.2,1.64-10.31,3.08-0.29,3.75,24.84,8.78,56.13,11.23s56.9,1.38,57.19-2.37c0.09-1.22-2.49-2.57-7.1-3.93l7.1,3.93c-6.3,22.75-11.48,60.17-4.12,73.47s4.55,35,4.55,35-33.25,20.3-80.16,22.05-86.11-2.45-92.41-28c-6.76-27.4,80.86-58.45,80.86-58.45-7.67-17.83-20.7-38.29-22-52.92"/></g><path id="shadow_1-4" data-name="shadow 1" class="cls-34" d="M1147.35,1177.11c6.3,25.55,45.5,29.75,92.41,28s80.16-22.05,80.16-22.05,2.8-21.7-4.55-35-2.17-50.72,4.13-73.47c0,0-25.16,16.41-33.82,51.41-4.41,17.79,3.74,32.39-1.33,44-10.33,23.67-47.33,22-58-1-8.42-18.15-31-30-50.67-23.33C1144.93,1156.09,1147.35,1177.11,1147.35,1177.11Z"/><path id="shadow_2-4" data-name="shadow 2" class="cls-35" d="M1319.91,1183.07s2.8-21.7-4.55-35-2.17-50.72,4.13-73.47c0,0-27.49,41.07-25.49,61.07,3.44,34.36,3.67,44.67-16.33,58.33C1256.35,1208.57,1319.91,1183.07,1319.91,1183.07Z"/><path id="shadow_3-3" data-name="shadow 3" class="cls-36" d="M1256.5,1077.25l-50-9.75s17.75,45.25,20.25,49.25c0,0,15.25,2,20-1.75s-9.75-12.25-3.5-20.25,18.5,9.75,31.75-1S1256.5,1077.25,1256.5,1077.25Z"/><path id="shadow_4" data-name="shadow 4" class="cls-37" d="M1232.33,1073.83l-25.83-6.33s10.83,29.67,13.33,33.67c0,0,.44-2.74,1-20C1221.08,1073.42,1232.33,1073.83,1232.33,1073.83Z"/><g id="Layer_59" data-name="Layer 59"><path class="cls-37" d="M1152.25,1161.5s-11.5,12,.25,26.5c0,0,10.5,11.25,40.25,16.5,0,0,22-.75,14.75-11.25s-21.25-4-29.25-8.5-6-5.75-7-23.75S1152.25,1161.5,1152.25,1161.5Z"/></g><g id="highlight"><path class="cls-38" d="M1174.25,1143s46.25-24.5,53-25.5c0,0,3,4,9,12.75s-9.25,18.5-20.5,21.25-19,1.75-30.25-1.25S1174.25,1143,1174.25,1143Z"/></g><g id="sock_corners" data-name="sock corners"><path d="M1206.25,1065.88s7.63-4.87,11.5-3.37l-1,8.38Z"/></g><g id="outline-7" data-name="outline"><path class="cls-12" d="M1216.48,1062.66c-6.4.6-10.2,1.64-10.31,3.08-0.29,3.75,24.84,8.78,56.13,11.23s56.9,1.38,57.19-2.37c0.09-1.22-2.49-2.57-7.1-3.93l7.1,3.93c-6.3,22.75-11.48,60.17-4.12,73.47s4.55,35,4.55,35-33.25,20.3-80.16,22.05-86.11-2.45-92.41-28c-6.76-27.4,80.86-58.45,80.86-58.45-7.67-17.83-20.7-38.29-22-52.92"/></g><path id="extra_lines-4" data-name="extra lines" class="cls-39" d="M1228.21,1118.66a35.61,35.61,0,0,0,4,6.62"/><path class="cls-40" d="M1312.88,1070.38s6.13,2.75,5,5c0,0-5.62,2-7.62,2Z"/></g><g id="LEFT_HAND" data-name="LEFT HAND"><path id="third_base" data-name="third base" class="cls-9" d="M1841,731.67s20.65-7.42,24.67-25.67c4.33-19.67,19-19.33,23-19,15.63,1.3,10.33,26,10.33,26l-27.67,36.67Z"/><path id="shadow-4" data-name="shadow" class="cls-41" d="M1841,731.67s20.65-7.42,24.67-25.67c4.33-19.67,19-19.33,23-19,15.63,1.3,10.33,26,10.33,26l-27.67,36.67Z"/><path id="third_outline" data-name="third outline" class="cls-17" d="M1841,731.67s20.65-7.42,24.67-25.67c4.33-19.67,19-19.33,23-19,15.63,1.3,10.33,26,10.33,26l-27.67,36.67Z"/><path id="middle_base" data-name="middle base" class="cls-9" d="M1854.67,730s26.33-8,35-31,36.31-16.1,30.33,5.67C1911.67,735,1887.33,730,1879.67,736"/><path id="finger_shadow" data-name="finger shadow" class="cls-41" d="M1906.83,685.33s16.83,1,14,14.83c0,0-5.33,18.5-7.67,20.33,0,0-12.17,4.5-13.17,4.67s10.17-10.5,12.5-23.5S1906.83,685.33,1906.83,685.33Z"/><path id="finger_highlight" data-name="finger highlight" class="cls-42" d="M1890.25,697.75S1903,673,1920,692.25c0,0-14-3.25-19.75,6S1890.25,697.75,1890.25,697.75Z"/><path id="middle_outline" data-name="middle outline" class="cls-17" d="M1854.67,730s26.33-8,35-31,36.31-16.1,30.33,5.67C1911.67,735,1887.33,730,1879.67,736"/></g><g id="BODY"><path id="base-8" data-name="base" class="cls-9" d="M1279.5,691c-85.78,104.58-83.37,318.76,111.5,364.67,150,35.33,260-75.33,283.33-133.33s22-84,23.33-109.33,2-48.67,12.67-64,20.67-26.67,45.33-29.67,48,3,58,14,11.14,13.35,11.67,22c1.33,22-12.23,24.38-18,27-21.33,9.67,3.31,25,15.67,24.33,37.67-2,23.66-34,36.33-43s34.33-18,54.67-11.67,34-9.33,22-32.67c-7.42-14.42-20,4.67-47,8.67s-48-17-48-17-36.34-38-71.33-48.67-98.67,8.33-98.67,8.33,0-84.33,20-116.33c29.3-46.88,41.33-129.33,41.33-129.33s13.65-88.42,1-135.67c-10-37.33-50-40.33-82.67-33.33-37.07,7.94-60.67,36.67-60.67,36.67s-57,43-85,55.67A401.26,401.26,0,0,1,1441.67,371c-12.66,3.33-67.44.82-25.33,46,27.33,29.33,42.93,50.35,95,60.46,63,12.21,126.29-39.12,126.29-39.12s-30.61,96-49.33,132c-22,42.33-79.45,46.52-108,19.33-7-6.67-3.33-21.33-17-36.67-13-14.58-29-27-38-19.33-17.68,15.06,14.67,29,14.67,29S1345.67,610.33,1279.5,691Z"/><path id="shadow_1-5" data-name="shadow 1" class="cls-18" d="M1279.5,691c-85.78,104.58-83.37,318.76,111.5,364.67,150,35.33,260-75.33,283.33-133.33,12.88-32-172.05,92.17-282.66,8.67C1291,855,1309.13,654.87,1279.5,691Z"/><path id="shadow_2-5" data-name="shadow 2" class="cls-43" d="M1225.75,839c-3.57,92.71,42.71,188.72,165.25,216.67,30.7,7,53.19,8,68.7,6.9,79.8-5.56,106.3-35.56,49.3-40.06-26.16-2.07-97-11.5-151.5-46.5C1251.37,907.84,1227.86,784,1225.75,839Z"/><path id="shadow_3-4" data-name="shadow 3" class="cls-41" d="M1761,700.75c-29,2-34.5,9.25-56.25,21.5s-52.25-12-78.25,20,50.33,76.42,32.17,129.25c-6.06,17.62,23.33,32.67,23.33,32.67,11.5-23.67,15.5-84.5,15.5-84.5l-0.73.29a15.57,15.57,0,0,0,.73-1.71s-8.29-77.06,44-95.5c47.5-16.75,74.25,13.5,74.25,13.5s13.5,17.75,19.5,8.5S1790,698.75,1761,700.75Z"/><path id="shadow_4-2" data-name="shadow 4" class="cls-41" d="M1724.67,732.33s-30.83,22-27.17,84.83c0,0-51-24.84-28-49S1724.67,732.33,1724.67,732.33Z"/><path id="shadow_5" data-name="shadow 5" class="cls-44" d="M1530.5,761.25S1536,662.5,1672,625c0,0,8-48,9.5-49l1.5-1-106,33.5L1517,679l5.5,75.5Z"/><path id="shadow_6" data-name="shadow 6" class="cls-45" d="M1530.79,685.5s5.62-58.65,144.48-80.92c0,0,6.2-30,7.73-30.6s-104.73,20.8-104.73,20.8L1517,636.65l5.62,44.84Z"/><path id="finger_shadow-2" data-name="finger shadow" class="cls-41" d="M1815.83,778.5s-31.67,9.33-9.5,22.33c0,0,24.67,18.33,43.83-9.67l2.67-13.67s-8.67,11.67-27.5,14.33S1815.83,778.5,1815.83,778.5Z"/><path id="finger_shadow-3" data-name="finger shadow" class="cls-41" d="M1897.83,750.17s21.5,1,25.17,3.67c0,0,26-3.33,14-31.67,0,0-.67,7-11.17,15.67s-28.17,11.67-28.17,11.67"/><path id="arm_highlight" data-name="arm highlight" class="cls-42" d="M1698.75,664.5s64.75-22,114.5,22c0,0-38.75,0-64.5-9.5-20.66-7.62-45.17,6.79-51.75,4.75C1678.93,676.15,1698.75,664.5,1698.75,664.5Z"/><path id="arm_highlight-2" data-name="arm highlight" class="cls-19" d="M1737,660s27.75-1.5,47.5,8.75c0,0-8.5,10.25-28.25.5C1738.09,660.29,1737,660,1737,660Z"/><path id="finger_highlight-2" data-name="finger highlight" class="cls-42" d="M1897.5,727s18-6.25,25.5-11c0,0,10.75-6.75,13.75,5,0,0-10.5-2-28,10.5C1893.18,742.62,1897.5,727,1897.5,727Z"/><path id="face_shadow_1" data-name="face shadow 1" class="cls-46" d="M1523.33,338.67L1500,352.33a124,124,0,0,0-19,21.92s56.67-23.92,128.33.08C1609.33,374.33,1570.67,340,1523.33,338.67Z"/><path id="head_shadow_1" data-name="head shadow 1" class="cls-46" d="M1634.33,262.33s85.33-34.67,100,30c0,0,12.33,26-4,151.33L1687,433s24-60.33,25.5-107C1714.53,262.79,1634.33,262.33,1634.33,262.33Z"/><path id="head_shadow_2" data-name="head shadow 2" class="cls-10" d="M1730.25,435s18-111.75,1.75-151.75c0,0-13.75-32-5,41.42,1.12,9.4,2.42,25.08.33,48A210.68,210.68,0,0,1,1715,425.25s10,13.75,10.75,13.5S1730.25,435,1730.25,435Z"/><path id="head_highlight" data-name="head highlight" class="cls-47" d="M1723.75,271.5s-18.25-28.5-72-15.5c0,0-22.25,25.25,14.25,18S1723.75,271.5,1723.75,271.5Z"/><path id="outline-8" data-name="outline" class="cls-12" d="M1279.5,691c-85.78,104.58-83.37,318.76,111.5,364.67,150,35.33,260-75.33,283.33-133.33s22-84,23.33-109.33,2-48.67,12.67-64,20.67-26.67,45.33-29.67,48,3,58,14,11.14,13.35,11.67,22c1.33,22-12.23,24.38-18,27-21.33,9.67,3.31,25,15.67,24.33,37.67-2,23.66-34,36.33-43s34.33-18,54.67-11.67,34-9.33,22-32.67c-7.42-14.42-20,4.67-47,8.67s-48-17-48-17-36.34-38-71.33-48.67-98.67,8.33-98.67,8.33,0-84.33,20-116.33c29.3-46.88,41.33-129.33,41.33-129.33s13.65-88.42,1-135.67c-10-37.33-50-40.33-82.67-33.33-37.07,7.94-60.67,36.67-60.67,36.67s-57,43-85,55.67A401.26,401.26,0,0,1,1441.67,371c-12.66,3.33-67.44.82-25.33,46,27.33,29.33,42.93,50.35,95,60.46,63,12.21,126.29-39.12,126.29-39.12s-30.61,96-49.33,132c-22,42.33-79.45,46.52-108,19.33-7-6.67-3.33-21.33-17-36.67-13-14.58-29-27-38-19.33-17.68,15.06,14.67,29,14.67,29S1345.67,610.33,1279.5,691Z"/></g><g id="MOUTH"><path id="base-9" data-name="base" d="M1457,557s44.67-18,43.33-102c0,0,96.5,3.33,135.17-24l20.17,11.33L1587,615.67s-116,30-126.67-21.33S1457,557,1457,557Z"/></g><g id="FRONT_FUR" data-name="FRONT FUR"><path id="base-10" data-name="base" class="cls-13" d="M1644.5,425.5c-21.93,4.52-60.5,25-137,1.5s-2.5-78.67-2.5-78.67A401.26,401.26,0,0,1,1441.67,371c-12.66,3.33-67.44.82-25.33,46,27.33,29.33,42.93,50.35,95,60.46C1574.33,489.67,1632,457,1632,457s-24.95,77.31-43.67,113.33c-22,42.33-79.45,46.52-108,19.33-7-6.67-3.33-21.33-17-36.67-13-14.58-29-27-38-19.33-17.68,15.06,14.67,29,14.67,29-46.73,25.3-85.77,47.92-122.33,81.67-85.67,79.06-43,189.33-43,189.33s0.76-20,4.83-28.17c2.08-4.17,8.5-14.17,8.5-14.17s-1.83,108.53,92.67,127.33c82.08,16.33,107-89,107-89s3.42,4.75,5,16.67,0,28,0,28a100.72,100.72,0,0,0,20.83-35.83c7.25-22,6.83-46.17,6.83-46.17l15,40s6.57-6,9.33-45.67c2.83-40.67-23.45-64.18,1.82-120.23,19-42.19,70.49-65.77,93.85-73.44,52.76-17.32,106.67,45,106.67,45l6-32s12.25,5,26.25,16.75A145.5,145.5,0,0,1,1801,645l15-49s8.79,2.4,16.5,17a111,111,0,0,1,9.5,24s37-97.5-42-173C1751.82,418,1677.25,418.75,1644.5,425.5Z"/><path id="shadow_1-6" data-name="shadow 1" class="cls-48" d="M1385,597c3.32-6.39-16,6.6-36.5,22.75-19.6,15.45-40.26,33.92-41.95,35.77-70.69,77.87-31.89,178.14-31.89,178.14s0.76-20,4.83-28.17c2.08-4.17,8.5-14.17,8.5-14.17s-1.83,108.53,92.67,127.33c82.08,16.33,107-89,107-89S1247.23,861.94,1385,597Z"/><path id="shadow_2-6" data-name="shadow 2" class="cls-48" d="M1282.5,693c-0.76-4.52-12.38,28.61-13.43,32.9-14,57.2,5.6,107.77,5.6,107.77s0.76-20,4.83-28.17c2.08-4.17,8.5-14.17,8.5-14.17s-1.83,108.53,92.67,127.33c27.54,5.48,47.83-3.76,64.52-16.07,24.5-18.06-20.19-34.1-68.69-30.1C1324.07,876.82,1295.43,770.25,1282.5,693Z"/><path id="face_highlight" data-name="face highlight" class="cls-49" d="M1686.33,423s110.33-6.33,150.67,93.33c29,71.61,5.33,120,5.33,120s0.67-6.67-9.67-23.33-16.33-17-16.33-17L1801,644.33s2.19-135-48-130.33c-46.67,4.33-40.33-57.67-87.67-76S1686.33,423,1686.33,423Z"/><path id="face_highlight-2" data-name="face highlight" class="cls-1" d="M1754.67,436s63.67,23.33,83.67,84.33c0,0-46.33-44-80-44.33S1754.67,436,1754.67,436Z"/><path class="cls-50" d="M1425,421s26,56.33,110.67,59.33c39.31,1.39,110-19.67,86.67-27-20.08-6.31-102.83,26.17-155.33-19C1399.09,375.91,1425,421,1425,421Z"/><path id="nose_shadow" data-name="nose shadow" class="cls-14" d="M1481.67,372.67c8-15.33,27.71-23.64,18.67-21C1457,364.33,1413,381,1413,381s29.7,24.9,35,9.67S1479.15,377.49,1481.67,372.67Z"/><path id="outline-9" data-name="outline" class="cls-23" d="M1644.5,425.5c-21.93,4.52-60.5,25-137,1.5s-2.5-78.67-2.5-78.67A401.26,401.26,0,0,1,1441.67,371c-12.66,3.33-67.44.82-25.33,46,27.33,29.33,42.93,50.35,95,60.46C1574.33,489.67,1632,457,1632,457s-24.95,77.31-43.67,113.33c-22,42.33-79.45,46.52-108,19.33-7-6.67-3.33-21.33-17-36.67-13-14.58-29-27-38-19.33-17.68,15.06,14.67,29,14.67,29-46.73,25.3-85.77,47.92-122.33,81.67-85.67,79.06-43,189.33-43,189.33s0.76-20,4.83-28.17c2.08-4.17,8.5-14.17,8.5-14.17s-1.83,108.53,92.67,127.33c82.08,16.33,107-89,107-89s3.42,4.75,5,16.67,0,28,0,28a100.72,100.72,0,0,0,20.83-35.83c7.25-22,6.83-46.17,6.83-46.17l15,40s6.57-6,9.33-45.67c2.83-40.67-23.45-64.18,1.82-120.23,19-42.19,70.49-65.77,93.85-73.44,52.76-17.32,106.67,45,106.67,45l6-32s12.25,5,26.25,16.75A145.5,145.5,0,0,1,1801,645l15-49s8.79,2.4,16.5,17a111,111,0,0,1,9.5,24s37-97.5-42-173C1751.82,418,1677.25,418.75,1644.5,425.5Z"/><g id="extra"><path class="cls-51" d="M1624.5,449s2.91,11.32,17.17,8"/></g><path id="extra_lines-5" data-name="extra lines" class="cls-51" d="M1439.42,562.9s15.67,6.33,16.67,22.67"/></g><g id="NOSE"><ellipse id="base-11" data-name="base" class="cls-40" cx="1403.33" cy="384.67" rx="41.67" ry="63" transform="matrix(0.56, -0.83, 0.83, 0.56, 293.75, 1326.01)"/><ellipse id="outline-10" data-name="outline" class="cls-17" cx="1403.33" cy="384.67" rx="41.67" ry="63" transform="matrix(0.56, -0.83, 0.83, 0.56, 293.75, 1326.01)"/><ellipse id="nose_highlight" data-name="nose highlight" class="cls-30" cx="1391.05" cy="358.89" rx="13.59" ry="27.48" transform="translate(786.11 1661.91) rotate(-79.56)"/><ellipse id="nose_highlight-2" data-name="nose highlight" class="cls-1" cx="1389.39" cy="356.22" rx="8.76" ry="17.73" transform="translate(787.38 1658.1) rotate(-79.56)"/></g><g id="RIGHT_EYE" data-name="RIGHT EYE"><path id="base-12" data-name="base" class="cls-1" d="M1620,319c0,17.49-7.1,33-20,43-4.79,3.7-6.33-1.33-28.67-11.33-17.42-7.8-30.56-11.89-45.33-12.67-7.12-.37-7.93-16-7.67-21.33,1.33-26.67,26.64-46,53.33-46A48.33,48.33,0,0,1,1620,319Z"/><path id="shadow_1-7" data-name="shadow 1" class="cls-52" d="M1555.17,343.83l-32.5-6.67s-12.67-22.83,3.83-44.83,35-20.33,44.67-21.67,22.33,5.67,22.33,5.67-55.39-2-58.33,29.17c-2.83,30,20.67,10.5,29,15.83C1574.81,328.15,1555.17,343.83,1555.17,343.83Z"/><path id="shadow_2-7" data-name="shadow 2" class="cls-53" d="M1524,297.25s-12.75,20.5-.87,40.63c0,0,19.75,1.63,27.88,3.75,0,0-16.37-1.62-24.25-14.87S1524,297.25,1524,297.25Z"/><path id="outline-11" data-name="outline" class="cls-23" d="M1620,319c0,17.49-7.1,33-20,43-4.79,3.7-6.33-1.33-28.67-11.33-17.42-7.8-30.56-11.89-45.33-12.67-7.12-.37-7.93-16-7.67-21.33,1.33-26.67,26.64-46,53.33-46A48.33,48.33,0,0,1,1620,319Z"/><path id="pupil" d="M1592.41,318c-13.27-8.52-31.08-4.43-39.78,9.13a29.52,29.52,0,0,0-4.68,14.67,179.64,179.64,0,0,1,23.39,8.89c16.38,7.34,21.58,12,25.07,12.5a29.87,29.87,0,0,0,4.25-5.21C1609.37,344.39,1605.67,326.49,1592.41,318Z"/><ellipse id="highlight-2" data-name="highlight" class="cls-1" cx="1583.1" cy="328.61" rx="3.97" ry="7.13" transform="translate(658.3 1654.86) rotate(-66.84)"/></g><g id="LEFT_EYE" data-name="LEFT EYE"><path id="base-13" data-name="base" class="cls-1" d="M1702.34,350.67c0,29.09-18.33,51-50.67,53.33-12.32.89-11.46,1-13.92-2-11.74-14.65-31.08-30.65-38.59-36.36-3.93-3-3.82-10.43-3.82-15.62,0-29.09,25.25-52,54.33-52A52.67,52.67,0,0,1,1702.34,350.67Z"/><path id="shadow_1-8" data-name="shadow 1" class="cls-52" d="M1688.67,315.17s28.66,29.54,5.17,68.33c-14.33,23.67-53.33,21.83-53.33,21.83s-26-31.5-39.5-38.33c0,0,41.17,8.83,67.5-7.67S1688.67,315.17,1688.67,315.17Z"/><path id="shadow_2-8" data-name="shadow 2" class="cls-53" d="M1702.17,349.67s3.21,10.45-9.33,33.83c-11,20.5-52.33,21.83-52.33,21.83s-9.33-12.33-20.83-20.83c0,0,29.67,14.5,56-2S1702.17,349.67,1702.17,349.67Z"/><path id="pupil-2" data-name="pupil" d="M1670.66,395.62c8.71-13.56,5-31.46-8.25-40s-31.08-4.43-39.78,9.13a29.49,29.49,0,0,0-4.7,16.64A192.69,192.69,0,0,1,1637.75,402c2.46,3.07,1.6,2.91,13.92,2a67.59,67.59,0,0,0,14-2.44A29.8,29.8,0,0,0,1670.66,395.62Z"/><path id="outline-12" data-name="outline" class="cls-23" d="M1702.34,350.67c0,29.09-18.33,51-50.67,53.33-12.32.89-11.46,1-13.92-2-11.74-14.65-31.08-30.65-38.59-36.36-3.93-3-3.82-10.43-3.82-15.62,0-29.09,25.25-52,54.33-52A52.67,52.67,0,0,1,1702.34,350.67Z"/><ellipse id="highlight-3" data-name="highlight" class="cls-1" cx="1655" cy="364" rx="3.97" ry="7.13" transform="translate(669.39 1742.44) rotate(-66.84)"/></g><g id="LEFT_LEG" data-name="LEFT LEG"><path id="base-14" data-name="base" class="cls-54" d="M1506,1035s52,25.16,60.67,64.33c7,31.67-1.22,53.9-9.67,66.67-10.81,16.32-15.27,43.76-8.38,47.26,101.38,51.49,185,5,184-4.93-4-40.67-66-65-66-65,24.77-103.05-21.7-159.34-47.21-181.46-8.81-7.64-28.12-11.2-53.46.8C1511.22,988.61,1506,1035,1506,1035Z"/><path id="shadow_1-9" data-name="shadow 1" class="cls-43" d="M1562.33,1088.67s-12.83-31-62.83-57.67c0,0,10-20.36,48.5-38.33,10-4.67,7.05,43.91,6.67,53.33-0.67,16.33,2,37.33,36.33,42s-13.67,12-13.67,12Z"/><path id="knee_highlight" data-name="knee highlight" class="cls-42" d="M1663.75,1028s-17.25-43-37.5-59-23.25,30-4.25,47S1663.75,1028,1663.75,1028Z"/><path id="knee_highlight_2" data-name="knee highlight 2" class="cls-19" d="M1662,1021.5s-11.09-27.65-24.11-37.93-14.95,19.29-2.73,30.22A32.55,32.55,0,0,0,1662,1021.5Z"/><path id="outline-13" data-name="outline" class="cls-12" d="M1506,1035s52,25.16,60.67,64.33c7,31.67-1.22,53.9-9.67,66.67-10.81,16.32-15.27,43.76-8.38,47.26,101.38,51.49,185,5,184-4.93-4-40.67-66-65-66-65,24.7-102.76-21.44-159-47-181.27"/><path class="cls-12" d="M1666.67,1143.33s-1.34,5.5-3.55,11.73"/></g><g id="LEFT_SOCK" data-name="LEFT SOCK"><g id="base-15" data-name="base"><path id="outline-14" data-name="outline" class="cls-33" d="M1680.89,1055c3.39,24.91-2.53,51-10.7,85,0,0,66.62,26.15,70.92,69.84,1,10.63-88.82,60.62-197.75,5.29-7.41-3.76-7.11-33.24,4.5-50.78,9.08-13.71,17.13-32.35,9.64-66.37-1.54-7-5.41-14.25-9.06-20.36l4.67-4c-3.19,1.53-4.86,2.9-4.67,4,0.75,4.41,31,2.93,67.59-3.31s65.61-14.88,64.86-19.3c-0.26-1.52-4-2.34-10.3-2.51"/></g><g id="inside_sock" data-name="inside sock"><path class="cls-40" d="M1680.91,1054.84s-7.66-3.31-10-2.34c0,0,1.22,7.44.84,8.22C1671.72,1060.72,1680.78,1056.47,1680.91,1054.84Z"/><path class="cls-40" d="M1553.28,1073.16s-5,1.88-5.09,4c0,0,2.41,3.81,8.28,2.94C1556.47,1080.06,1555.59,1072.72,1553.28,1073.16Z"/></g><path id="toe" class="cls-55" d="M1741.17,1210.5s-0.17-18.5-23.83-40.5c0,0-5.28-9.63-30-2-22.67,7-37.67,28-34.67,43,7.42,37.11,34.67,25.83,35.33,25.67S1729,1226.67,1741.17,1210.5Z"/><path id="shadow_1-10" data-name="shadow 1" class="cls-36" d="M1670.25,1140.5s65.5,27,71.25,69c0,0-26.25,41.5-132.5,28,0,0,90.08-5.75,105.33-32.5S1670.25,1140.5,1670.25,1140.5Z"/><path id="left_shadow" data-name="left shadow" class="cls-56" d="M1593.5,1077.75s-36,4-43.5.75c0,0,21,39.5,3.5,76.5,0,0-22.75,26.5-12.5,58.5,0,0,37.75,18.75,56,21.5,0,0-25.75-36-20-49.75s19.5-10.5,19.75-29.5-20.5-17.75-17.75-41S1593.5,1077.75,1593.5,1077.75Z"/><path id="right_shadow" data-name="right shadow" class="cls-56" d="M1637,1071.5s35.5-8.5,44-14.25c0,0,3.5,34.5-10,82,0,0,19.5,9.5,23.75,13.5,0,0-24-10.5-49,12.75-7.92,7.37-12.75-8.25-9.5-18.5,6.69-21.11,26-36,25.5-54S1637,1071.5,1637,1071.5Z"/><path id="heel" class="cls-36" d="M1549.83,1161.33s-5.67,6.33-8.83,20.17c0,0-6.17,15.67-.17,32.5,0,0,7,5.5,33.5,14,0,0-9.67-10.67-11-25-2-22,5.33-26-2.5-34.67C1554,1160.79,1549.83,1161.33,1549.83,1161.33Z"/><g id="outline-15" data-name="outline"><path id="outline-16" data-name="outline" class="cls-12" d="M1680.89,1055c3.39,24.91-2.53,51-10.7,85,0,0,66.62,26.15,70.92,69.84,1,10.63-88.82,60.62-197.75,5.29-7.41-3.76-7.11-33.24,4.5-50.78,9.08-13.71,17.13-32.35,9.64-66.37-1.54-7-5.41-14.25-9.06-20.36l4.67-4c-3.19,1.53-4.86,2.9-4.67,4,0.75,4.41,31,2.93,67.59-3.31s65.61-14.88,64.86-19.3c-0.26-1.52-4-2.34-10.3-2.51"/></g></g><polygon class="cls-57" points="1099.18 1034.55 1041.25 1030.91 1040 1054.06 1099.18 1034.55"/><polygon class="cls-57" points="149.67 1053.58 197.11 1048.17 193.17 1069.33 149.67 1053.58"/><g id="ROCK_16" data-name="ROCK 16"><circle id="base-16" data-name="base" class="cls-58" cx="642" cy="889" r="52"/><circle id="neutral-3" data-name="neutral" class="cls-59" cx="642" cy="889" r="52"/><path id="highlight-4" data-name="highlight" class="cls-60" d="M602,855.74a52,52,0,0,1,78.06-2.14C688.72,862.88,594.52,864.75,602,855.74Z"/><path id="highlight-5" data-name="highlight" class="cls-47" d="M609.47,848.38c7.64-7,19.15-11.38,32-11.38,12.05,0,22.91,3.88,30.52,10.08C678.92,852.72,603.45,853.85,609.47,848.38Z"/><circle id="outline-17" data-name="outline" class="cls-61" cx="642" cy="889" r="52"/></g><g id="ROCK_15" data-name="ROCK 15"><path id="base-17" data-name="base" class="cls-62" d="M455.89,920.68S418.15,891,440.33,871.35c16.91-15,30.26-1.66,43.87-4.67,10.33-2.28,14.89-15.1,41.92-16.33,23.53-1.07,55.52,7,34.93,53.67l-8.83,28.67-95.6.67Z"/><path id="shadow-5" data-name="shadow" class="cls-63" d="M444.17,910.17S408,868.49,472,880.83c66.5,12.83,106.47-23.15,85.88,23.51Z"/><path id="highlight-6" data-name="highlight" class="cls-64" d="M497.83,858.67c10.33-2.28,9.5-7,28.29-8.32,23.5-1.65,55,15.32,29.21,22.66,0,0-15.77.56-33.19-.74C500,870.61,490.22,860.35,497.83,858.67Z"/><path id="highlight-7" data-name="highlight" class="cls-64" d="M504.59,854.6c8.65-1.13,8-3.48,23.68-4.14,19.67-.82,46.09,7.62,24.46,11.27,0,0-13.2.28-27.78-.37C506.43,860.54,498.22,855.43,504.59,854.6Z"/><path id="outline-18" data-name="outline" class="cls-61" d="M455.89,920.68S418.15,891,440.33,871.35c16.91-15,30.26-1.66,43.87-4.67,10.33-2.28,14.89-15.1,41.92-16.33,23.53-1.07,55.52,7,34.93,53.67l-8.83,28.67-95.6.67Z"/></g><g id="ROCK_14" data-name="ROCK 14"><circle id="base-18" data-name="base" class="cls-65" cx="389.56" cy="964.68" r="53"/><circle id="neutralize" class="cls-66" cx="389.56" cy="964.68" r="53"/><path id="shadow-6" data-name="shadow" class="cls-67" d="M442.55,964.68a53,53,0,0,1-106,0c0-29.27,25.17-.43,54.44-0.43S442.55,935.41,442.55,964.68Z"/><path id="highlight-8" data-name="highlight" class="cls-64" d="M384.5,935.5C371,937.25,350,927.59,361.25,920c9.25-6.25,13.67-8.32,28.31-8.32,10.7,0,12.66.69,20.69,6.57C414.95,921.69,401.2,933.34,384.5,935.5Z"/><path id="highlight-9" data-name="highlight" class="cls-47" d="M385.3,925.58c-8.16,1.06-20.85-4.78-14.06-9.37,5.59-3.78,8.27-5,17.11-5,6.47,0,7.65.41,12.51,4C403.71,917.23,395.4,924.27,385.3,925.58Z"/><circle id="outline-19" data-name="outline" class="cls-23" cx="389.56" cy="964.68" r="53"/></g><g id="ROCK_13" data-name="ROCK 13"><circle id="base-19" data-name="base" class="cls-68" cx="237.45" cy="1048.92" r="49.67"/><path id="shadow-7" data-name="shadow" class="cls-69" d="M287.12,1048.92a49.67,49.67,0,1,1-99.33,0c0-27.43,23.78,3.25,51.21,3.25S287.12,1021.49,287.12,1048.92Z"/><path id="highlight-10" data-name="highlight" class="cls-70" d="M265.67,1014.17c0.06,4.84-7.67,11.33-29,14.83-24.24,4-40.67-6.33-39.5-8,5.75-8.21,17.83-21.33,40.29-21.75C244.5,999.12,265.5,1001.17,265.67,1014.17Z"/><path id="highlight-11" data-name="highlight" class="cls-47" d="M259.67,1008.67c0,3.36-14.33,7.83-22,8.5-17,1.48-30.45-6.51-29.4-7.46,6.17-5.5,13.66-10.46,29.27-10.75C242.45,998.87,259.55,999.63,259.67,1008.67Z"/><circle id="outline-20" data-name="outline" class="cls-23" cx="237.45" cy="1048.92" r="49.67"/></g><g id="ROCK_12" data-name="ROCK 12"><path id="base-20" data-name="base" class="cls-33" d="M694.33,885.33C697,884,729,831.33,779.67,848c28.64,9.42,24,29.33,24,29.33s40-9.33,30,22.67l-6,39.33-128.67,6Z"/><path id="shadow-8" data-name="shadow" class="cls-71" d="M694.33,885.33C697,884,754,899.67,775.67,900s57.83-12.5,58,0l-6,39.33-128.67,6Z"/><path id="highlight-12" data-name="highlight" class="cls-38" d="M715.75,863c2.67-1.33,24.75-26.5,63.92-15,28.93,8.49,24,29.33,24,29.33S778.5,892,759.75,875.75,715.75,863,715.75,863Z"/><path id="highlight-13" data-name="highlight" class="cls-72" d="M738.5,849c1.7-.74,19.35-8.09,43.24-0.83a33.4,33.4,0,0,1,19.76,16.58S781,872.7,769,863.64,738.5,849,738.5,849Z"/><path id="outline-21" data-name="outline" class="cls-23" d="M694.33,885.33C697,884,729,831.33,779.67,848c28.64,9.42,24,29.33,24,29.33s40-9.33,30,22.67l-6,39.33-128.67,6Z"/><path id="extra-2" data-name="extra" class="cls-23" d="M803.67,877.33A19.19,19.19,0,0,1,800,886.2"/></g><g id="ROCK_11" data-name="ROCK 11"><path id="base-21" data-name="base" class="cls-58" d="M1001,972.33s-1.33-54.62-54.67-53.21-62,51.38-62,51.38l61.33,46.5Z"/><path id="shadow-9" data-name="shadow" class="cls-73" d="M998.5,957.75s-34,11.25-62,3.25c-25.35-7.24-19.11-21.56-30-22.25C894,938,889.75,956,889.75,956l55.92,61Z"/><path id="highlight-14" data-name="highlight" class="cls-72" d="M974.27,925c-7.29-3.69-16.35-5.38-27.94-5.89C943.5,919,932.5,920.5,927,922c-19,5.19,5.75,19.25,23.75,19.75S991.5,933.75,974.27,925Z"/><path id="highlight-15" data-name="highlight" class="cls-26" d="M964.72,923.25c-4.28-2.17-9.61-3.16-16.43-3.46a61,61,0,0,0-11.37,1.69c-11.19,3.05,3.38,11.32,14,11.61S974.85,928.39,964.72,923.25Z"/><path id="outline-22" data-name="outline" class="cls-23" d="M1001,972.33s-1.33-54.62-54.67-53.21-62,51.38-62,51.38l61.33,46.5Z"/></g><g id="ROCK_10" data-name="ROCK 10"><path id="base-22" data-name="base" class="cls-74" d="M963.67,997c1.33-2.67,16-46.67,61.33-44,37.61,2.21,33.33,34,30,40.67s-10,14.67-10,14.67,39.33,6,14.67,42.67L977,1063Z"/><path id="shadow-10" data-name="shadow" class="cls-75" d="M999,1012.33c3.6-3.36,11.1,10.83,27.33,6a55.37,55.37,0,0,0,18.66-10s39.33,6,14.67,42.67l-55.66,8.66Z"/><path id="shadow-highlight" class="cls-76" d="M1045,1008.33s21.34,3,22.67,19c0,0-17.67,5-17.33-3.33S1045,1008.33,1045,1008.33Z"/><path id="highlight-16" data-name="highlight" class="cls-77" d="M986.33,967c1.33-2.67,15.38-16.23,38.67-14,31.34,3,35.34,27.33,32,34-1.53,3.06-17,5.33-29.33-13C1016.74,957.76,986.33,967,986.33,967Z"/><path id="highlight-17" data-name="highlight" class="cls-25" d="M1006,956.67c1.33-2.67,10.63-3,19-3.67,17-1.33,34.67,16.67,31.34,23.33-1.53,3.06-5.33,9-18.33-5.33C1024.85,956.5,1006,956.67,1006,956.67Z"/><path id="outline-23" data-name="outline" class="cls-23" d="M963.67,997c1.33-2.67,16-46.67,61.33-44,37.61,2.21,33.33,34,30,40.67s-10,14.67-10,14.67,39.33,6,14.67,42.67L977,1063Z"/><path id="extra-3" data-name="extra" class="cls-23" d="M1045,1008.33a49.62,49.62,0,0,1-10,5.33"/></g><g id="ROCK_9" data-name="ROCK 9"><path id="base-23" data-name="base" class="cls-78" d="M909,991.67c3.33-2.67,50.67-44.67,90.67-1.33s0,78,0,78l-106,22.67,4.67-83.33Z"/><path id="shadow-11" data-name="shadow" class="cls-79" d="M909,991.67c3.33-2.67,14,70,70,43.33,70.67-33.67,20.67,33.33,20.67,33.33l-106,22.67,4.67-83.33Z"/><path id="highlight-18" data-name="highlight" class="cls-25" d="M922,983.67c3.33-2.67,43.61-31.51,77.67,6.67,11,12.33,12.33,18.33,12.33,18.33s-14,6.67-48.33,3S922,983.67,922,983.67Z"/><path id="highlight-19" data-name="highlight" class="cls-47" d="M937,975.33c3.33-2.67,30.67-12.33,53,6.33,12.68,10.6,10.33,9.33,10.33,9.33s-8.67,8-30,5C936.14,991.19,937,975.33,937,975.33Z"/><path id="outline-24" data-name="outline" class="cls-23" d="M909,991.67c3.33-2.67,50.67-44.67,90.67-1.33s0,78,0,78l-106,22.67,4.67-83.33Z"/></g><g id="ROCK_8" data-name="ROCK 8"><path id="base-24" data-name="base" class="cls-80" d="M525.67,923.67s-25.33-44.67-68-34-66,26.67-68,48.67,24,44.67,24,44.67,33.33,31.33,36.67,30,75.33-2.67,75.33-2.67V923.67Z"/><path id="shadow-12" data-name="shadow" class="cls-81" d="M525.67,923.67s-11.33,24-54,34.66-80-42-82-20,24,44.67,24,44.67,33.33,31.33,36.67,30,75.33-2.67,75.33-2.67V923.67Z"/><path id="highlight-20" data-name="highlight" class="cls-82" d="M525.67,923.67s-25.33-44.67-68-34-46,18.66-52.33,23c-18.23,12.47,30.2,14.26,43.33,5.33C473.67,901,525.67,923.67,525.67,923.67Z"/><path id="highlight-21" data-name="highlight" class="cls-47" d="M505.67,901.33s-15.37-19.82-48-11.66c-8,2-21.33,4.66-27.67,9-18.23,12.47,11.85,13,20,9C478.67,893.67,505.67,901.33,505.67,901.33Z"/><path id="outline-25" data-name="outline" class="cls-23" d="M525.67,923.67s-25.33-44.67-68-34-66,26.67-68,48.67,24,44.67,24,44.67,33.33,31.33,36.67,30,75.33-2.67,75.33-2.67V923.67Z"/></g><g id="ROCK_7" data-name="ROCK 7"><path id="base-25" data-name="base" class="cls-9" d="M630.5,919.13S611,859.67,563,870.34c-27.82,6.18-24.91,22.9-37.33,32.67s-30,3.33-37.33,29.33C479.28,964.42,517,985.67,517,985.67S535,1013,537.67,1011s92.83-10,92.83-10V921.67"/><path id="shadow-13" data-name="shadow" class="cls-24" d="M613.67,929.33s-41,36-82,15.33c-14.11-7.11-36-38.33-43.33-12.33C479.28,964.42,517,985.67,517,985.67S535,1013,537.67,1011s92.83-10,92.83-10Z"/><path id="highlight-22" data-name="highlight" class="cls-83" d="M563,870.34c-21,5-17.57,12.9-30,22.66-5.83,4.58,11.25,22.63,37,26a70.31,70.31,0,0,0,49.67-12.67S607.46,859.75,563,870.34Z"/><path id="base-26" data-name="base" class="cls-72" d="M563,870.34c-9,1.33-10.91,2.57-23.33,12.33-5.83,4.58,10.76,14.23,36.67,12.33,27.33-2,32.33-10.67,32.33-10.67S594,865.74,563,870.34Z"/><path id="outline-26" data-name="outline" class="cls-23" d="M630.5,919.13S611,859.67,563,870.34c-27.82,6.18-24.91,22.9-37.33,32.67s-30,3.33-37.33,29.33C479.28,964.42,517,985.67,517,985.67S535,1013,537.67,1011s92.83-10,92.83-10V921.67"/></g><g id="ROCK_6" data-name="ROCK 6"><path id="base-27" data-name="base" class="cls-62" d="M400,991.1s-66.33-58.76-122.14-1c-22,22.73-19.52,47.88-3.52,58.83s20,32.08,20,32.08l99.33,21.58Z"/><path id="shadow-14" data-name="shadow" class="cls-84" d="M383.75,1040.75s-61.59,22.66-93.25-2.75c-36.75-29.5-33.75.25-16.17,10.92,16.57,10.06,20,32.08,20,32.08l99.33,21.58Z"/><path id="highlight-23" data-name="highlight" class="cls-64" d="M400,991.1s-68.84-59.52-122.14-1c-6.78,7.44,9.09,35.91,49.48,12.91C351.33,989.33,400,991.1,400,991.1Z"/><path id="highlight-24" data-name="highlight" class="cls-85" d="M400,991.1S342,942,293.33,977.33c-8.15,5.92,10,19,32.33,8.67C350.73,974.4,400,991.1,400,991.1Z"/><path id="outline-27" data-name="outline" class="cls-23" d="M400,991.1s-66.33-58.76-122.14-1c-22,22.73-19.52,47.88-3.52,58.83s20,32.08,20,32.08l99.33,21.58Z"/></g><g id="ROCK_5" data-name="ROCK 5"><path id="base-28" data-name="base" class="cls-86" d="M791.75,926.25S822,873.67,861,889s15.33,62.37,15.33,62.37,36,8,46.67,26.29,1.33,25.87-5.33,42.27,5.33,57.73,5.33,57.73L771.67,1096l4-157Z"/><path id="shadow-15" data-name="shadow" class="cls-87" d="M842.67,1041.33c53,9.64,71.67-21,73,1.33,0.92,15.36,7.33,35,7.33,35L771.67,1096,782,983.67s13.81-37.71,17.67-27.33c4.21,11.32,41.67,18.33,28,45.33C817.77,1021.22,828,1038.67,842.67,1041.33Z"/><path id="highlight-25" data-name="highlight" class="cls-88" d="M797.25,919s27-44.5,63.75-30c39,15.38,15.33,62.37,15.33,62.37s-6.16-1.26-7.58-23.62c-1-15.75-19.5-4.25-27.5-18C830.85,891.87,797.25,919,797.25,919Z"/><path id="highlight-26" data-name="highlight" class="cls-70" d="M888,956s21.5,3.75,35,21.67c11.46,15.21-1.17,33.15-2,33.08-18.8-1.43-2.5-22.75-23-25.25C878.69,983.15,888,956,888,956Z"/><path id="highlight-27" data-name="highlight" class="cls-89" d="M815.75,899.25S835.51,877.65,861,889c34.25,15.25,1.75,30.5-6.25,16.75C844.35,887.87,815.75,899.25,815.75,899.25Z"/><path id="outline-28" data-name="outline" class="cls-23" d="M791.75,926.25S822,873.67,861,889s15.33,62.37,15.33,62.37,36,8,46.67,26.29,1.33,25.87-5.33,42.27,5.33,57.73,5.33,57.73L771.67,1096l4-157Z"/><path id="extra-4" data-name="extra" class="cls-23" d="M876.33,951.37s-3,2.63-5.33,21"/></g><g id="ROCK_4" data-name="ROCK 4"><path id="base-29" data-name="base" class="cls-90" d="M604.5,970s-22-104,73.5-104c57,0,56.5,46,56.5,46s21-5,43.5-.5,27,14,29,26.5c2.76,17.28-8,32.5-8,32.5s23.5,27.5-5.5,54.5-93-1-93-1l-81.5-9.5Z"/><path id="shadow-16" data-name="shadow" class="cls-91" d="M604.5,970s-5.5-17.5-1.25-43c4.39-26.32,38.25,28.25,72.75,42.5,19.54,8.07,69.88,22.85,99.5,20.5,17.82-1.42,23.5-19.5,23.5-19.5s23.5,27.5-5.5,54.5S693,1003.25,693,1003.25l-59.5-20.5Z"/><path id="highlight-28" data-name="highlight" class="cls-92" d="M612.25,902.5S622.5,866.25,678,866c57-.26,56.5,46,56.5,46s-35.25-24.5-64.75-9.5C629,923.23,612.25,902.5,612.25,902.5Z"/><path id="highlight-29" data-name="highlight" class="cls-72" d="M624.25,885.25S636,865.5,678,866c28.54,0.34,44.25,16.25,44.25,16.25s-23.25-9-51.5,2.5C651.41,892.63,624.25,885.25,624.25,885.25Z"/><path id="highlight-30" data-name="highlight" class="cls-72" d="M742.25,911S817,896.5,806,953.5c-1,5.2-1.87-18.22-19-23.75-15.5-5-15,2.25-30.5-1.75C747.06,925.56,742.25,911,742.25,911Z"/><path id="outline-29" data-name="outline" class="cls-23" d="M604.5,970s-22-104,73.5-104c57,0,56.5,46,56.5,46s21-5,43.5-.5,27,14,29,26.5c2.76,17.28-8,32.5-8,32.5s23.5,27.5-5.5,54.5-93-1-93-1l-81.5-9.5Z"/><g id="extra-5" data-name="extra"><path class="cls-23" d="M734.5,912a29.06,29.06,0,0,0,5.5,14.25"/><path class="cls-23" d="M799,970.5s-6.75-11.61-14.5-12.06"/></g></g><g id="ROCK_3" data-name="ROCK 3"><path id="base-30" data-name="base" class="cls-93" d="M500,1000.5s-27.11-61.33-60.5-56.5c-41.5,6-32,29.89-52,32-9.5,1-31,6.5-30.5,20.5s12,23.5,12,23.5-35.5,11.5-7.5,65l145,33.5Z"/><path id="shadow-17" data-name="shadow" class="cls-71" d="M483.25,1014.5s2.25,27-24.25,49.5c-21.58,18.32-43.5,26.42-77.5,28.17l114.33,12.33Z"/><path id="shadow-18" data-name="shadow" class="cls-71" d="M350,1051.5s3.63,19.68,8.5,26.33c5,6.83,59.5,4.5,59.5,4.5s-24.25-26.42-43-17.08C362.86,1071.29,352.28,1054.76,350,1051.5Z"/><path id="highlight-31" data-name="highlight" class="cls-94" d="M392.5,1029c-9.55-10.25-23.5-9-23.5-9s-22.75,8.25-17.5,35.25c0,0,11.25,5,17-12C373.32,1029,399.08,1036.07,392.5,1029Z"/><path id="highlight-32" data-name="highlight" class="cls-94" d="M494,992s-21.11-52.83-54.5-48c-41.5,6-32,29.89-52,32-9.5,1-31,6.5-30.5,20.5s12,23.5,12,23.5a59.36,59.36,0,0,1,39.5-22.25c23-2.65,23.75,18.5,52.75,19.5C480.25,1017.91,494,992,494,992Z"/><path id="highlight-33" data-name="highlight" class="cls-26" d="M469.48,955.78c-8.37-7.93-18.51-13.43-30-11.78-41.5,6-32,29.89-52,32-9.5,1-32,6.57-30.5,20.5,1.25,11.75,4,13.75,4,13.75s4.83-20.76,31-20.5c25.25,0.25,22-18,51-17C462,973.41,485.47,970.94,469.48,955.78Z"/><path id="outline-30" data-name="outline" class="cls-23" d="M500,1000.5s-27.11-61.33-60.5-56.5c-41.5,6-32,29.89-52,32-9.5,1-31,6.5-30.5,20.5s12,23.5,12,23.5-35.5,11.5-7.5,65l145,33.5Z"/><path id="extra-6" data-name="extra" class="cls-23" d="M369,1020s24-2.56,31,24.72"/></g><g id="ROCK_2" data-name="ROCK 2"><path id="base-31" data-name="base" class="cls-95" d="M654.5,997.5S683,953,728.5,959s35,38.5,48,47.5,39.5,8,43,39.5-34,63-34,63l-155,22Z"/><path id="shadow-19" data-name="shadow" class="cls-24" d="M715.67,1071c47.33,7,92.67,12.33,92.67,12.33L672.67,1108s-61.47-96.25-36.67-78.67C654.34,1042.33,679.43,1065.64,715.67,1071Z"/><path id="highlight-34" data-name="highlight" class="cls-96" d="M654.5,997.5S683,953,728.5,959s35,38.5,48,47.5c5.37,3.72-18.36-18.14-48.5,14.17-41.67,44.67-87.67-8.67-87.67-8.67Z"/><path id="highlight-35" data-name="highlight" class="cls-96" d="M684.33,970s14.33-13.67,42-11c18.77,1.81,27,8.33,30.33,12.33,5.6,6.72-14,16-39.67,14.67C694.8,984.85,684.33,970,684.33,970Z"/><path id="outline-31" data-name="outline" class="cls-23" d="M654.5,997.5S683,953,728.5,959s35,38.5,48,47.5,39.5,8,43,39.5-34,63-34,63l-155,22Z"/></g><g id="ROCK_1" data-name="ROCK 1"><path id="rock_01_-_base" data-name="rock 01 - base" class="cls-97" d="M500,1111.67s-32.33-58.67-28.33-92,22-58.67,46-58.67,38.67,20.67,38.67,20.67,34.33-34.67,68.17-26,43.83,34,43.83,48-10.67,36-10.67,36,40.67,16.67,5.33,66Z"/><path id="rock_01_-_shadow" data-name="rock 01 - shadow" class="cls-98" d="M500,1111.67s41-.17,94.25-21.42,63.42-50.58,63.42-50.58,40.67,16.67,5.33,66Z"/><path id="rock_01_-_highlight" data-name="rock 01 - highlight" class="cls-99" d="M500,1111.67s-32.33-58.67-28.33-92,22-58.67,46-58.67,38.67,20.67,38.67,20.67,34.33-34.67,68.17-26,43.83,34,43.83,48c0,6.62-67.67,1.68-107.33,25.67C516.75,1056.1,500,1111.67,500,1111.67Z"/><path id="rock_01_-_highlight-2" data-name="rock 01 - highlight" class="cls-100" d="M568,973s22.67-26,56.5-17.33,34.17,22.67,40.83,34.33C667,992.94,651,972.55,622,977.33,589.67,982.67,568,973,568,973Z"/><path id="rock_01_-_highlight-3" data-name="rock 01 - highlight" class="cls-100" d="M471.67,1019.67c4-33.33,22-58.67,46-58.67s38.67,20.67,38.67,20.67-26.33-.33-38.67,19.67C493.13,1041.12,467.67,1053,471.67,1019.67Z"/><path id="rock_01_-_outline" data-name="rock 01 - outline" class="cls-23" d="M500,1111.67s-32.33-58.67-28.33-92,22-58.67,46-58.67,38.67,20.67,38.67,20.67,34.33-34.67,68.17-26,43.83,34,43.83,48-10.67,36-10.67,36,40.67,16.67,5.33,66Z"/><g id="rock_01_-_extra" data-name="rock 01 - extra"><path class="cls-23" d="M556.33,981.67s5.5,19.67,30.17,16.5"/><path class="cls-23" d="M657.67,1039.67s-8,14-12.83,18.5"/></g></g><polygon id="box_-_base" data-name="box - base" class="cls-101" points="150 1054 150 1255 615 1317 1099 1226 1099 1035 615 1102.19 150 1054"/><polygon id="box_-_base_-_right" data-name="box - base - right" class="cls-4" points="615 1317 1099 1226 1099 1035 615 1102.19 615 1317"/><polygon id="perspective_plane" data-name="perspective plane" class="cls-4" points="615 1317 1099 1226 1099 1035 615 1102.19 615 1317"/><g id="box_-_shadows" data-name="box - shadows"><path id="box_-_base_-_shadow_1" data-name="box - base - shadow 1" class="cls-102" d="M615,1317l484-91s-235,10-340-25-144-98.81-144-98.81V1317Z"/><path id="box_-_base_-_shadow_1-2" data-name="box - base - shadow 1-2" class="cls-103" d="M615,1317l296-57s-155,8-203,14c-65.78,8.22-93-45-93-45v88Z"/><path id="box_-_base_-_shadow_2" data-name="box - base - shadow 2" class="cls-104" d="M150,1054v201l465,62s-86-133-282-132C212,1185.62,150,1054,150,1054Z"/><path id="box_-_base_-_shadow_2-2" data-name="box - base - shadow 2-2" class="cls-105" d="M150,1163v92l234,32s-53-44.5-117-41C164.95,1251.58,150,1163,150,1163Z"/></g><path id="box_-_right_-_highlight" data-name="box - right - highlight" class="cls-106" d="M1099,1182.5V1035l-292.5,40.5s3.5,67,134.5,54.5C1063.52,1118.31,1099,1182.5,1099,1182.5Z"/><polygon id="box_-_outline" data-name="box - outline" class="cls-51" points="150 1054 150 1255 615 1317 1099 1226 1099 1035 615 1102.19 150 1054"/><line id="vertical" class="cls-51" x1="615" y1="1317" x2="615" y2="1102.58"/><path class="cls-63" d="M100,100H366.72v88.42H206.31v43H344v82.14H206.31V445H100V100Z"/><g class="cls-107"><path class="cls-1" d="M344.43,732.58a63.26,63.26,0,0,1-4.84,25.1,58.41,58.41,0,0,1-32.32,31.83,60.27,60.27,0,0,1-22.89,4.43A62,62,0,0,1,260,789.26a57.05,57.05,0,0,1-19-12.88,59.22,59.22,0,0,1-12.47-19.44A64.73,64.73,0,0,1,224,732.58a63.17,63.17,0,0,1,4.84-25.1,58.18,58.18,0,0,1,32.4-31.83,61.29,61.29,0,0,1,23.13-4.43,60.27,60.27,0,0,1,22.89,4.43,58.4,58.4,0,0,1,32.32,31.83A63.26,63.26,0,0,1,344.43,732.58Zm-13.12,0a56.57,56.57,0,0,0-3.61-20.51,48.25,48.25,0,0,0-10-16.08,45.17,45.17,0,0,0-14.93-10.42,45.78,45.78,0,0,0-18.38-3.69,46.76,46.76,0,0,0-18.62,3.69,44.93,44.93,0,0,0-15,10.42,48.19,48.19,0,0,0-10,16.08,56.49,56.49,0,0,0-3.61,20.51,58,58,0,0,0,3.28,19.69,48.16,48.16,0,0,0,9.43,16.08,44.9,44.9,0,0,0,14.85,10.91,46.37,46.37,0,0,0,19.69,4,45.78,45.78,0,0,0,18.38-3.69,45.1,45.1,0,0,0,14.93-10.42,48.38,48.38,0,0,0,10-16A56.38,56.38,0,0,0,331.3,732.58Zm-15.92,11.81a31,31,0,0,1-10.17,18.54,26.61,26.61,0,0,1-8.61,5,30.37,30.37,0,0,1-10.25,1.72,35.32,35.32,0,0,1-14.27-2.79,32.15,32.15,0,0,1-11-7.79A34.64,34.64,0,0,1,254,747.26a42.85,42.85,0,0,1-2.46-14.68,39.88,39.88,0,0,1,2.38-13.86,32.08,32.08,0,0,1,6.81-11.16,32.76,32.76,0,0,1,10.83-7.47A35.8,35.8,0,0,1,286,697.3a30.73,30.73,0,0,1,19.44,6.32q8.12,6.32,9.76,18.46H304.07a17.36,17.36,0,0,0-6.15-10.17A18.24,18.24,0,0,0,286,708a19.69,19.69,0,0,0-15.83,7.22,22.52,22.52,0,0,0-4.1,7.79,32.29,32.29,0,0,0-1.4,9.6,34.13,34.13,0,0,0,1.48,10.17,25.32,25.32,0,0,0,4.35,8.37,21.66,21.66,0,0,0,6.89,5.74,18.76,18.76,0,0,0,8.94,2.13,17.94,17.94,0,0,0,12.14-4.1,16.11,16.11,0,0,0,5.58-10.5h11.32Z"/><path class="cls-1" d="M407.92,674H459.6q12.47,0,20.34,3.61a32.13,32.13,0,0,1,12.14,9,30.7,30.7,0,0,1,5.82,11.81,50.24,50.24,0,0,1,1.56,11.81A49.23,49.23,0,0,1,497.91,722a30.74,30.74,0,0,1-5.82,11.73,31.42,31.42,0,0,1-12.14,8.94q-7.88,3.53-20.34,3.53H428.43v45H407.92V674Zm20.51,55.46h30a26.79,26.79,0,0,0,7.06-1,20.28,20.28,0,0,0,6.64-3.2,16.39,16.39,0,0,0,4.92-5.91A20.28,20.28,0,0,0,479,710.1a24,24,0,0,0-1.64-9.52,15.23,15.23,0,0,0-4.43-6,15.79,15.79,0,0,0-6.4-3,34.76,34.76,0,0,0-7.71-.82H428.43v38.72Z"/><path class="cls-1" d="M529.33,753.58a32.58,32.58,0,0,0,1.39,9.52,23.43,23.43,0,0,0,4.18,8,20.15,20.15,0,0,0,7.06,5.5,23.25,23.25,0,0,0,10.17,2.05q8.2,0,13.21-3.53a20.84,20.84,0,0,0,7.46-10.58h17.72A35.16,35.16,0,0,1,576.75,786a37.52,37.52,0,0,1-11.4,5.58,46,46,0,0,1-13.21,1.89,44.92,44.92,0,0,1-17.72-3.28,36.59,36.59,0,0,1-13-9.19,39,39,0,0,1-8-14.11,57.35,57.35,0,0,1-2.71-18,51,51,0,0,1,2.87-17.14,43.81,43.81,0,0,1,8.2-14.27A38.48,38.48,0,0,1,551.64,704a38,38,0,0,1,18,4.18,39.44,39.44,0,0,1,13.21,11.08,44.88,44.88,0,0,1,7.63,15.83,48.6,48.6,0,0,1,1.23,18.46H529.33ZM573,741.27a30.27,30.27,0,0,0-1.89-8.53,22.84,22.84,0,0,0-4.27-7.14,21.18,21.18,0,0,0-6.56-4.92,19.36,19.36,0,0,0-8.61-1.89,22.47,22.47,0,0,0-8.94,1.72,20.44,20.44,0,0,0-6.89,4.76,23.6,23.6,0,0,0-4.59,7.14,24.94,24.94,0,0,0-1.89,8.86H573Z"/><path class="cls-1" d="M620.56,753.58a32.53,32.53,0,0,0,1.39,9.52,23.36,23.36,0,0,0,4.19,8,20.14,20.14,0,0,0,7.05,5.5,23.25,23.25,0,0,0,10.17,2.05q8.2,0,13.21-3.53A20.86,20.86,0,0,0,664,764.57h17.72A35.19,35.19,0,0,1,668,786a37.5,37.5,0,0,1-11.4,5.58,46,46,0,0,1-13.21,1.89,44.92,44.92,0,0,1-17.72-3.28,36.59,36.59,0,0,1-13-9.19,39,39,0,0,1-8-14.11,57.31,57.31,0,0,1-2.71-18,51,51,0,0,1,2.87-17.14,43.84,43.84,0,0,1,8.2-14.27A38.49,38.49,0,0,1,642.87,704a38,38,0,0,1,18,4.18A39.46,39.46,0,0,1,674,719.29a44.89,44.89,0,0,1,7.63,15.83,48.57,48.57,0,0,1,1.23,18.46H620.56Zm43.64-12.31a30.22,30.22,0,0,0-1.89-8.53A22.77,22.77,0,0,0,658,725.6a21.17,21.17,0,0,0-6.56-4.92,19.35,19.35,0,0,0-8.61-1.89,22.48,22.48,0,0,0-8.94,1.72,20.4,20.4,0,0,0-6.89,4.76,23.54,23.54,0,0,0-4.59,7.14,24.82,24.82,0,0,0-1.89,8.86H664.2Z"/><path class="cls-1" d="M697.67,674h18.71v66.61l33.8-34.29h23L740.65,737.5l35.6,53.65H753.45L727.53,750,716.37,760.8v30.35H697.67V674Z"/><path class="cls-1" d="M785.77,674h18.7v17.72h-18.7V674Zm0,32.32h18.7v84.82h-18.7V706.33Z"/><path class="cls-1" d="M824.82,706.33h17.72V718.8l0.33,0.33A31.39,31.39,0,0,1,854,708a29.74,29.74,0,0,1,15.26-4q13.94,0,22,7.22t8,21.66v58.25H880.6V737.83q-0.33-10-4.27-14.52T864,718.8a20.31,20.31,0,0,0-8.53,1.72,18.47,18.47,0,0,0-6.4,4.76,22.34,22.34,0,0,0-4.1,7.14,25.45,25.45,0,0,0-1.48,8.7v50h-18.7V706.33Z"/><path class="cls-1" d="M997.42,786.72q0,19.2-10.75,28.63t-30.93,9.43a64.79,64.79,0,0,1-12.88-1.31A38.33,38.33,0,0,1,931.05,819a28.46,28.46,0,0,1-8.94-8.2,24.92,24.92,0,0,1-4.27-12.47h18.7a15,15,0,0,0,2.79,6.4,14.37,14.37,0,0,0,4.68,3.86,17.84,17.84,0,0,0,6,1.81,56,56,0,0,0,6.89.41q11.32,0,16.57-5.58t5.25-16.08v-13h-0.33a28.45,28.45,0,0,1-10.75,11A28.85,28.85,0,0,1,953,791.15q-10.17,0-17.31-3.53a32.93,32.93,0,0,1-11.81-9.68A40.2,40.2,0,0,1,917,763.75a66.94,66.94,0,0,1-2.13-17.23,50.07,50.07,0,0,1,2.62-16.24,41.4,41.4,0,0,1,7.55-13.54,36.16,36.16,0,0,1,12.06-9.27A36.7,36.7,0,0,1,953.29,704a32.59,32.59,0,0,1,14.77,3.36A22.85,22.85,0,0,1,978.39,718h0.33V706.33h18.7v80.39Zm-41.51-10.34a19.86,19.86,0,0,0,17.64-9.27,29.64,29.64,0,0,0,3.94-9.52,47.61,47.61,0,0,0,1.23-10.75,41.9,41.9,0,0,0-1.31-10.5,28.29,28.29,0,0,0-4-9,19.44,19.44,0,0,0-7.06-6.24,22.05,22.05,0,0,0-10.42-2.3,19.69,19.69,0,0,0-10.5,2.62,21,21,0,0,0-6.89,6.81,29.32,29.32,0,0,0-3.77,9.52,50,50,0,0,0-1.15,10.58,40.1,40.1,0,0,0,1.31,10.25,28.24,28.24,0,0,0,4,8.94,21.46,21.46,0,0,0,6.89,6.4A19.56,19.56,0,0,0,955.91,776.38Z"/><path class="cls-1" d="M1064.52,674h51.68q12.47,0,20.34,3.61a32.13,32.13,0,0,1,12.14,9,30.7,30.7,0,0,1,5.82,11.81,50.24,50.24,0,0,1,1.56,11.81,49.23,49.23,0,0,1-1.56,11.73,30.74,30.74,0,0,1-5.82,11.73,31.42,31.42,0,0,1-12.14,8.94q-7.88,3.53-20.34,3.53H1085v45h-20.51V674ZM1085,729.46h30a26.79,26.79,0,0,0,7.06-1,20.27,20.27,0,0,0,6.64-3.2,16.39,16.39,0,0,0,4.92-5.91,20.28,20.28,0,0,0,1.89-9.27,24,24,0,0,0-1.64-9.52,15.23,15.23,0,0,0-4.43-6,15.79,15.79,0,0,0-6.4-3,34.76,34.76,0,0,0-7.71-.82H1085v38.72Z"/><path class="cls-1" d="M1171.33,706.33h17.56v16.41h0.33a18.94,18.94,0,0,1,3.2-6.73,31.15,31.15,0,0,1,5.74-6,29,29,0,0,1,7.46-4.35A22.37,22.37,0,0,1,1214,704a41.06,41.06,0,0,1,4.51.16l2.54,0.33v18q-2-.33-4-0.57a33.8,33.8,0,0,0-4-.25,21.52,21.52,0,0,0-8.94,1.89,20.52,20.52,0,0,0-7.3,5.58,27.33,27.33,0,0,0-4.92,9.11,39.41,39.41,0,0,0-1.8,12.47v40.36h-18.71V706.33Z"/><path class="cls-1" d="M1240.73,753.58a32.51,32.51,0,0,0,1.39,9.52,23.36,23.36,0,0,0,4.19,8,20.14,20.14,0,0,0,7.05,5.5,23.25,23.25,0,0,0,10.17,2.05q8.2,0,13.21-3.53a20.86,20.86,0,0,0,7.46-10.58h17.72A35.19,35.19,0,0,1,1288.15,786a37.51,37.51,0,0,1-11.4,5.58,46,46,0,0,1-13.21,1.89,44.92,44.92,0,0,1-17.72-3.28,36.6,36.6,0,0,1-13-9.19,39,39,0,0,1-8-14.11,57.31,57.31,0,0,1-2.71-18,51,51,0,0,1,2.87-17.14,43.84,43.84,0,0,1,8.2-14.27A38.49,38.49,0,0,1,1263,704a38,38,0,0,1,18,4.18,39.46,39.46,0,0,1,13.21,11.08,44.89,44.89,0,0,1,7.63,15.83,48.57,48.57,0,0,1,1.23,18.46h-62.35Zm43.64-12.31a30.22,30.22,0,0,0-1.89-8.53,22.77,22.77,0,0,0-4.27-7.14,21.17,21.17,0,0,0-6.56-4.92,19.35,19.35,0,0,0-8.61-1.89,22.48,22.48,0,0,0-8.94,1.72,20.4,20.4,0,0,0-6.89,4.76,23.53,23.53,0,0,0-4.59,7.14,24.81,24.81,0,0,0-1.89,8.86h43.64Z"/><path class="cls-1" d="M1331.46,763.91q0.82,8.21,6.23,11.48a24.52,24.52,0,0,0,13,3.28,49.94,49.94,0,0,0,6-.41,25.94,25.94,0,0,0,6.32-1.56,11.87,11.87,0,0,0,4.84-3.36,8.09,8.09,0,0,0,1.72-5.82,8.28,8.28,0,0,0-2.63-5.91,18.23,18.23,0,0,0-6.32-3.69,61.47,61.47,0,0,0-8.78-2.38q-4.92-1-10-2.13a93.13,93.13,0,0,1-10.09-2.79,32.45,32.45,0,0,1-8.69-4.43,20.44,20.44,0,0,1-6.15-7.14,22.78,22.78,0,0,1-2.3-10.75,19.28,19.28,0,0,1,3.36-11.57,25.78,25.78,0,0,1,8.53-7.55,37.22,37.22,0,0,1,11.48-4A67.63,67.63,0,0,1,1350,704a55.27,55.27,0,0,1,12.55,1.39,34.16,34.16,0,0,1,10.83,4.51,26.52,26.52,0,0,1,8,8.12,28.15,28.15,0,0,1,4,12.06h-19.52q-1.31-6.73-6.15-9a25.56,25.56,0,0,0-11.08-2.3,39.84,39.84,0,0,0-4.68.33,21.76,21.76,0,0,0-5.08,1.23,10.68,10.68,0,0,0-4,2.63,6.27,6.27,0,0,0-1.64,4.51,7.14,7.14,0,0,0,2.38,5.58,18.78,18.78,0,0,0,6.23,3.53,61.15,61.15,0,0,0,8.78,2.38q4.92,1,10.17,2.13,5.08,1.15,10,2.79a32.37,32.37,0,0,1,8.78,4.43,21.61,21.61,0,0,1,6.23,7.06,21.32,21.32,0,0,1,2.38,10.5,22.82,22.82,0,0,1-3.45,12.8,27.21,27.21,0,0,1-8.94,8.53,40.67,40.67,0,0,1-12.22,4.76,61.87,61.87,0,0,1-13.29,1.48,57.86,57.86,0,0,1-14.85-1.8,34.57,34.57,0,0,1-11.81-5.5,26.52,26.52,0,0,1-7.88-9.19,29.19,29.19,0,0,1-3-13h18.7Z"/><path class="cls-1" d="M1416.62,763.91q0.82,8.21,6.23,11.48a24.51,24.51,0,0,0,13,3.28,49.93,49.93,0,0,0,6-.41,26,26,0,0,0,6.32-1.56,11.87,11.87,0,0,0,4.84-3.36,8.09,8.09,0,0,0,1.72-5.82,8.27,8.27,0,0,0-2.62-5.91,18.26,18.26,0,0,0-6.32-3.69,61.48,61.48,0,0,0-8.78-2.38q-4.92-1-10-2.13a92.77,92.77,0,0,1-10.09-2.79,32.41,32.41,0,0,1-8.7-4.43,20.44,20.44,0,0,1-6.15-7.14,22.78,22.78,0,0,1-2.3-10.75,19.28,19.28,0,0,1,3.36-11.57,25.78,25.78,0,0,1,8.53-7.55,37.23,37.23,0,0,1,11.49-4,67.59,67.59,0,0,1,12.06-1.15,55.29,55.29,0,0,1,12.55,1.39,34.15,34.15,0,0,1,10.83,4.51,26.52,26.52,0,0,1,8,8.12,28.15,28.15,0,0,1,4,12.06h-19.52q-1.32-6.73-6.15-9a25.57,25.57,0,0,0-11.08-2.3,39.81,39.81,0,0,0-4.67.33,21.76,21.76,0,0,0-5.09,1.23,10.72,10.72,0,0,0-4,2.63,6.28,6.28,0,0,0-1.64,4.51,7.13,7.13,0,0,0,2.38,5.58,18.76,18.76,0,0,0,6.23,3.53,61,61,0,0,0,8.78,2.38q4.92,1,10.17,2.13,5.08,1.15,10,2.79a32.33,32.33,0,0,1,8.78,4.43,21.57,21.57,0,0,1,6.23,7.06,21.32,21.32,0,0,1,2.38,10.5,22.82,22.82,0,0,1-3.44,12.8,27.24,27.24,0,0,1-8.94,8.53,40.61,40.61,0,0,1-12.22,4.76,61.87,61.87,0,0,1-13.29,1.48,57.83,57.83,0,0,1-14.85-1.8,34.57,34.57,0,0,1-11.81-5.5,26.5,26.5,0,0,1-7.88-9.19,29.19,29.19,0,0,1-3-13h18.71Z"/><path class="cls-1" d="M1535.9,674h20.51v99.43H1616v17.72H1535.9V674Z"/><path class="cls-1" d="M1630.07,674h20.51v99.43h59.56v17.72h-80.07V674Z"/><path class="cls-1" d="M1803.33,711.25a41.74,41.74,0,0,0-3.61-9.35,25.93,25.93,0,0,0-5.91-7.38,26.3,26.3,0,0,0-8.45-4.84,33.49,33.49,0,0,0-11.24-1.72,32.85,32.85,0,0,0-16.16,3.77,31.72,31.72,0,0,0-11.08,10.09,45.49,45.49,0,0,0-6.32,14.36,66.65,66.65,0,0,0,0,32.81,45.44,45.44,0,0,0,6.32,14.36A31.66,31.66,0,0,0,1758,773.43a32.81,32.81,0,0,0,16.16,3.77,29.15,29.15,0,0,0,12.14-2.38,27,27,0,0,0,9-6.56,30.88,30.88,0,0,0,5.91-9.76,46.86,46.86,0,0,0,2.79-12h20a55.55,55.55,0,0,1-4.51,19.2,47.08,47.08,0,0,1-10.42,15,46,46,0,0,1-15.42,9.76,53.45,53.45,0,0,1-19.52,3.44,55.26,55.26,0,0,1-23.54-4.84,51.72,51.72,0,0,1-17.64-13.21,59,59,0,0,1-11.07-19.52,74.8,74.8,0,0,1,0-47.42,59,59,0,0,1,11.07-19.52,52.66,52.66,0,0,1,17.64-13.29,54.45,54.45,0,0,1,23.54-4.92,62.07,62.07,0,0,1,18.54,2.71A48,48,0,0,1,1808,681.8a40.93,40.93,0,0,1,10.75,12.55,43.72,43.72,0,0,1,5.08,16.9h-20.51Z"/></g></svg>