<svg id="CROP_copy" data-name="CROP copy" xmlns="http://www.w3.org/2000/svg" xmlns:xlink="http://www.w3.org/1999/xlink" viewBox="0 0 2048 1496"><defs><style>.cls-1,.cls-11,.cls-14,.cls-18,.cls-23,.cls-24,.cls-49,.cls-52,.cls-57,.cls-7,.cls-8{fill:none;}.cls-2{clip-path:url(#clip-path);}.cls-20,.cls-22,.cls-25,.cls-28,.cls-29,.cls-3,.cls-35,.cls-36,.cls-39{fill:#fff;}.cls-4{fill:#929043;}.cls-22,.cls-4,.cls-43{opacity:0.8;}.cls-5{fill:#b3dfe6;}.cls-10,.cls-11,.cls-20,.cls-46,.cls-5,.cls-53,.cls-6,.cls-61{opacity:0.7;}.cls-6{fill:url(#linear-gradient);}.cls-7{stroke:#a9b240;}.cls-11,.cls-12,.cls-13,.cls-14,.cls-18,.cls-23,.cls-24,.cls-49,.cls-52,.cls-57,.cls-7,.cls-8{stroke-linecap:round;stroke-linejoin:round;}.cls-11,.cls-12,.cls-13,.cls-7,.cls-8{stroke-width:6px;}.cls-17,.cls-39,.cls-41,.cls-44,.cls-7{opacity:0.2;}.cls-11,.cls-8{stroke:#a89b9d;}.cls-9{fill:#ded4cb;}.cls-10,.cls-27{fill:#e8d4aa;}.cls-12{fill:#55924e;}.cls-12,.cls-13,.cls-14{stroke:#5b784d;}.cls-13{fill:#66b245;}.cls-14{stroke-width:8px;}.cls-15{fill:#7f5786;}.cls-16,.cls-44,.cls-46,.cls-48,.cls-54,.cls-56{fill:#634564;}.cls-16,.cls-29,.cls-33{opacity:0.6;}.cls-17,.cls-34,.cls-37,.cls-38,.cls-45{fill:#fcbfe6;}.cls-18,.cls-49,.cls-57{stroke:#634564;}.cls-18,.cls-23,.cls-24,.cls-52{stroke-width:3px;}.cls-19{fill:#ffe800;}.cls-21{fill:#feedbb;}.cls-23{stroke:#e1cba4;}.cls-24{stroke:#ffda48;}.cls-25,.cls-31,.cls-37,.cls-47,.cls-48{opacity:0.5;}.cls-26{fill:#e1cba4;}.cls-26,.cls-38,.cls-42{opacity:0.4;}.cls-28{opacity:0.35;}.cls-30,.cls-47{fill:#925d9e;}.cls-31,.cls-32,.cls-33,.cls-40,.cls-41,.cls-42,.cls-43,.cls-51,.cls-53{fill:#775579;}.cls-34,.cls-40,.cls-54,.cls-55{opacity:0.3;}.cls-35{opacity:0.05;}.cls-36,.cls-45,.cls-58,.cls-59{opacity:0.1;}.cls-49{stroke-width:5px;}.cls-50{fill:#bd89c9;}.cls-51{opacity:0.9;}.cls-52{stroke:#775579;}.cls-55{fill:url(#radial-gradient);}.cls-57{stroke-width:4px;}.cls-58{fill:url(#radial-gradient-2);}.cls-59{fill:url(#radial-gradient-3);}.cls-60{fill:#61578b;}</style><clipPath id="clip-path"><rect class="cls-1" width="2048" height="1496"/></clipPath><linearGradient id="linear-gradient" x1="1024" y1="1516" x2="1024" y2="-20" gradientUnits="userSpaceOnUse"><stop offset="0" stop-color="#feedbb"/><stop offset="0.08" stop-color="#feeec0"/><stop offset="0.17" stop-color="#fef2ce"/><stop offset="0.27" stop-color="#fff8e4"/><stop offset="0.36" stop-color="#fff"/><stop offset="0.43" stop-color="#eef8f9"/><stop offset="0.56" stop-color="#d4edf1"/><stop offset="0.7" stop-color="#c2e5eb"/><stop offset="0.84" stop-color="#b7e1e7"/><stop offset="1" stop-color="#b3dfe6"/></linearGradient><radialGradient id="radial-gradient" cx="1426.2" cy="575.86" r="34.11" gradientUnits="userSpaceOnUse"><stop offset="0" stop-color="#fff"/><stop offset="0.37" stop-color="#fdffff"/><stop offset="0.51" stop-color="#f6fdfe"/><stop offset="0.6" stop-color="#ebfafd"/><stop offset="0.68" stop-color="#daf5fb"/><stop offset="0.75" stop-color="#c4eff9"/><stop offset="0.8" stop-color="#a8e8f6"/><stop offset="0.86" stop-color="#88e0f2"/><stop offset="0.91" stop-color="#62d6ee"/><stop offset="0.95" stop-color="#37caea"/><stop offset="0.99" stop-color="#09bee5"/><stop offset="1" stop-color="#00bce4"/></radialGradient><radialGradient id="radial-gradient-2" cx="1521.77" cy="582.57" r="56.08" xlink:href="#radial-gradient"/><radialGradient id="radial-gradient-3" cx="1521.77" cy="582.57" r="56.08" gradientUnits="userSpaceOnUse"><stop offset="0" stop-color="#fff"/><stop offset="0.08" stop-color="#f6fdfe"/><stop offset="0.22" stop-color="#def6fb"/><stop offset="0.4" stop-color="#b6ecf7"/><stop offset="0.6" stop-color="#7fddf1"/><stop offset="0.83" stop-color="#39cbea"/><stop offset="1" stop-color="#00bce4"/></radialGradient></defs><title>5-gorilla</title><g class="cls-2"><rect id="WH" class="cls-3" y="-20" width="2048" height="1536"/><rect id="ground" class="cls-4" y="1004" width="2048" height="512"/><rect id="SKY" class="cls-5" y="-20" width="2048" height="1536"/><rect id="SKY-2" data-name="SKY" class="cls-6" y="-20" width="2048" height="1536"/><line id="horizon" class="cls-7" x1="-17" y1="1004" x2="2067" y2="1005.3"/></g><g class="cls-2"><path class="cls-8" d="M1681.28,97.51c-0.07-1.47,226.85,0,226.85,0"/><line class="cls-8" x1="1691.66" y1="337.07" x2="1913.61" y2="337.07"/><line class="cls-8" x1="1915.01" y1="363.54" x2="1787" y2="363.54"/><line class="cls-8" x1="1700.19" y1="584.66" x2="1926.13" y2="584.66"/><line class="cls-8" x1="1924.59" y1="554.74" x2="1699.33" y2="554.74"/><path class="cls-8" d="M1705.32,722.71c0-4.18,178.68,0,178.68,0"/><path class="cls-9" d="M1673-69s50,926,26,1178l264,2s-78-946-48-1176Z"/><path class="cls-10" d="M1673-69s50,926,26,1178l264,2s-78-946-48-1176Z"/><path class="cls-8" d="M1673-69s50,926,26,1178l264,2s-78-946-48-1176Z"/><path id="TREE-2" data-name="TREE" class="cls-9" d="M891-69s58,801.39,28,1113.7h182.77S1029,207,1057-69H891Z"/><path id="TREE-3" data-name="TREE" class="cls-10" d="M891-69s58,801.39,28,1113.7h182.77S1029,207,1057-69H891Z"/><path id="lines" class="cls-11" d="M891-69s58,801.39,28,1113.7h182.77S1029,207,1057-69H891Z"/><path class="cls-8" d="M1673-69s50,926,26,1178l264,2s-78-946-48-1176Z"/></g><path class="cls-8" d="M1681.28,97.51c-0.07-1.47,226.85,0,226.85,0"/><line class="cls-8" x1="1691.66" y1="337.07" x2="1913.61" y2="337.07"/><line class="cls-8" x1="1915.01" y1="363.54" x2="1787" y2="363.54"/><line class="cls-8" x1="1700.19" y1="584.66" x2="1926.13" y2="584.66"/><line class="cls-8" x1="1924.59" y1="554.74" x2="1699.33" y2="554.74"/><path class="cls-8" d="M1705.32,722.71c0-4.18,178.68,0,178.68,0"/><g class="cls-2"><path id="leaf" class="cls-12" d="M197.24,1082s-73.64-165.69,25.57-371c0,0,104.33,180.28,39.89,371H197.24Z"/><path id="leaf-2" data-name="leaf" class="cls-13" d="M245.31,1081.14s-28.68-145,104.33-246.71c0,0,13.3,141.37-47,246.71H245.31Z"/><path id="leaf-3" data-name="leaf" class="cls-13" d="M150.32,1081.14s-53.54-99.95-3.45-235.91c0,0,88.08,47.72,57.57,235.91H150.32Z"/><line id="bottom_line" data-name="bottom line" class="cls-14" x1="92.65" y1="1081.39" x2="500.65" y2="1082.69"/><path id="leaf-4" data-name="leaf" class="cls-12" d="M1989.7,1110S2103,855,1950.34,539c0,0-160.58,277.48-61.4,571H1989.7Z"/><path id="leaf-5" data-name="leaf" class="cls-13" d="M1915.7,1108.61s44.14-223.12-160.58-379.74c0,0-20.47,217.59,72.42,379.74h88.16Z"/><path id="leaf-6" data-name="leaf" class="cls-13" d="M2061.91,1108.61s82.41-153.84,5.32-363.11c0,0-135.58,73.45-88.61,363.11h83.3Z"/><line id="bottom_line-2" data-name="bottom line" class="cls-14" x1="2150.69" y1="1109" x2="1522.69" y2="1111"/></g><g id="RIGHT_HAND_copy" data-name="RIGHT HAND copy"><path id="BASE" class="cls-15" d="M1331.3,931.88l14.54-3.87c-16.58-1.31-43.07-5-53.14-14.2s-19.7-24.74-24.74-25.2-23.69-9.62-25.59,19.7c-1.19,18.41-6.69,29.41-11.19,35.39-12.44,6.6-25.88,12.1-25.88,12.1-10.8,3.67-35.53,12.9-21.49,38.18,2.76,5,6.52,28.15,29.78,17.67a30,30,0,0,0,1.25,3.37c4,19.05,12.9,57.8,42.28,33,0.6-.51,1.19-1,1.78-1.55h0s17.6,28.06,31.52,5.87c9.2-14.66,19.7-10.1,24.13-44.59,2.44-19-20.48-11.57-20.48-11.57h0c1.88-4.41,2.94-7.79,3.07-9.51,0.21-2.85.66-9.78-1.34-15.7l5.43-9A129.78,129.78,0,0,1,1331.3,931.88Z"/><path class="cls-16" d="M1223.67,1044.16c2.89,5.16,7.59,9.63,13.38,10.82a19.53,19.53,0,0,0,12.7-2.11,38.33,38.33,0,0,0,10.19-8.17,74.87,74.87,0,0,0,14.39-22.31c1.08-2.59,1.93-5.79.21-8s-5.13-2.14-7.55-.82-4.15,3.57-6.1,5.53a30.47,30.47,0,0,1-38.88,3.57,9.81,9.81,0,0,0-2.74-1.55,2.75,2.75,0,0,0-2.9.7c-1.45,1.82.75,3.36,1.45,4.84a24.42,24.42,0,0,1,1.21,4.67A50.94,50.94,0,0,0,1223.67,1044.16Z"/><path class="cls-16" d="M1188.42,1002.51c1.81,3.77,3.82,7.76,7.46,9.8,5,2.8,11.26,1,16.53-1.28a112.68,112.68,0,0,0,48.37-40,49.31,49.31,0,0,1-38.15-1.32c-2.53-1.18-5.29-2.62-8-1.81-3.47,1.05-4.74,5.16-6.74,8.2a15.15,15.15,0,0,1-15,6.43c-2.68-.49-5.24-1.72-8-1.71-1.58,0-4.31.84-5,2.52s0.86,3.49,1.58,4.94C1183.92,993,1186.14,997.76,1188.42,1002.51Z"/><path class="cls-17" d="M1247.84,891.77a18.46,18.46,0,0,1,17.14-4.29c7.49,2,12.8,8.51,17.42,14.74s9.48,12.92,16.71,15.72c2.87,1.11,6.43,1.92,7.54,4.79s-1.56,6.41-4.72,6.91-6.29-1.17-8.63-3.35-4.13-4.88-6.38-7.15-5.21-4.15-8.4-4-6,2.35-8.2,4.78-4,5.22-6.54,7.21a14.89,14.89,0,0,1-18.32-.52c-5-4.39-5.25-10.46-3.82-16.44C1243.25,903.47,1242.11,897.17,1247.84,891.77Z"/><g id="LINES-2" data-name="LINES"><path class="cls-18" d="M1345.84,928c-16.58-1.31-43.07-5-53.14-14.2s-19.7-24.74-24.74-25.2-23.69-9.62-25.59,19.7-14.73,39.86-17,41.23-21.53,15.36,0,21.65,39.71,5.68,48.26-23.94"/><path class="cls-18" d="M1214.08,1011.43c3.63,17.07,11.65,63.09,43,36.57,23.43-19.81,39.49-54.32,40-61.34s2.48-38.79-34.27-19.24c-3.43,1.82.37,5.5-12.76,17.67s2.14,1.88-28.4,22-34.82-7.64-37.87-13.13c-14-25.28,10.69-34.51,21.49-38.18L1230,944.58"/><path class="cls-18" d="M1258.89,1046.45s17.6,28.06,31.52,5.87c9.2-14.66,19.7-10.1,24.13-44.59,2.44-19-20.48-11.57-20.48-11.57"/></g></g><g id="BANANA_copy" data-name="BANANA copy"><path class="cls-19" d="M1232.65,879.16a53.91,53.91,0,0,1,.32-24.85,21.4,21.4,0,0,1,3.38-7.84,9.82,9.82,0,0,1,7.23-4.11c3.52-.11,6.6,2.16,9.38,4.33l15.39,12c5.47,4.27,10.7,9.3,16.17,13.57,5.72,4.47,13.47,8.07,19.18,12.54-4.46,2.71-12.16,1.54-16.57-1.24s-7.84-6.84-11.84-10.18-9.05-6.07-14.21-5.32c-4.17.6-7.76,3.44-10.19,6.88s-3.85,7.48-5.17,11.48c-0.81,2.45-2.18,5.38-4.76,5.46-1.84.06-2.66-2-3.74-3.53-2.53-3.49-3.74-4-4.41-8.25Z"/><path id="HL" class="cls-20" d="M1248.85,843.73c-2.31-2.43-6.49-2.21-9.24-.28s-4.33,5.11-5.46,8.28c-0.85,2.4-1.44,5.28.08,7.32a5.92,5.92,0,0,0,5.73,1.87,21,21,0,0,0,5.86-2.35,13,13,0,0,1,6-1.78,20.59,20.59,0,0,1,4.78,1.06,7.56,7.56,0,0,0,4.82.05c1.51-.62,2.64-2.4,2.05-3.92a5,5,0,0,0-2.15-2.13c-4.09-2.64-8.13-5.38-12.22-8Z"/><path class="cls-21" d="M1271.45,860.13a49.93,49.93,0,0,0,11.32,3.6c3.92,0.59,8.14.17,11.48-2s5.31-5.45,6.75-9c1.21-3,2-6.11,3.72-8.82s4.53-5,7.73-4.92c3.84,0.11,6.74,3.49,8.61,6.85a32.21,32.21,0,0,1,4.31,16.75,23.46,23.46,0,0,1-6.65,15.75,18.51,18.51,0,0,1-16,5.19c-4.57-.86-8.54-3.59-12.26-6.37C1283.49,872,1277.3,866,1271,860.08Z"/><path id="HL-2" data-name="HL" class="cls-22" d="M1246.92,843.06a7.79,7.79,0,0,0-9.57,3.05,4.21,4.21,0,0,0-.39,4,3.86,3.86,0,0,0,3.4,1.78,11.38,11.38,0,0,0,3.9-.9l6.07-2.18a4.74,4.74,0,0,0,1.54-.78,1.61,1.61,0,0,0,.59-1.54,2.4,2.4,0,0,0-1.42-1.33l-4.63-2.36"/><path id="HL-3" data-name="HL" class="cls-20" d="M1302.72,849.31a17.22,17.22,0,0,1,4.05-7.26,8.67,8.67,0,0,1,7.65-2.56c3,0.65,5.22,3.25,6.77,5.92a31.24,31.24,0,0,1,1.79,27.25,8.88,8.88,0,0,1-1.69,2.83,3.34,3.34,0,0,1-5.59-.59,8.88,8.88,0,0,1-1.06-3.11c-0.47-2.52-.63-5.09-1.16-7.59a13.75,13.75,0,0,0-3.25-6.85,7.12,7.12,0,0,0-7-2.12,3.11,3.11,0,0,1-1.77.29,1.71,1.71,0,0,1-1-2,6.38,6.38,0,0,1,1.14-2.14,3.62,3.62,0,0,0,.84-2.29Z"/><path id="peel_lines" data-name="peel lines" class="cls-23" d="M1268.59,859.32c4.94,2,15.78,5.06,20.21,4.78,7.33-.46,13.29-11,14.2-16.26s12.37-17.87,20.16,1.37-3.67,35.28-17.64,34.59a8.69,8.69,0,0,1-1.89-.32"/><path id="peel_lines-2" data-name="peel lines" class="cls-24" d="M1309.37,883.83C1290,894.67,1278.39,875,1276,873c-23.09-19.24-33.61,21.07-33.61,21.07-6.48-11-9.23-8.43-9.92-17.87s0-44.67,19.24-31.15a142.14,142.14,0,0,1,15.25,13.2l22.64,17.22s12.6,10.23,18.55,8.09"/><path id="peel_solid" data-name="peel solid" class="cls-19" d="M1177.7,918.3c-7.77-1.64-17.64-4.95-25,9.71s10.77,17.41,16,20.62,7.15,4.57,10.1,3.89,17.7-11.63,17.7-11.63S1186.43,920.14,1177.7,918.3Z"/><path id="peel_line" data-name="peel line" class="cls-24" d="M1177.7,918.3c-7.77-1.64-17.64-4.95-25,9.71s10.77,17.41,16,20.62,7.15,4.57,10.1,3.89,17.7-11.63,17.7-11.63S1186.43,920.14,1177.7,918.3Z"/><path id="banana_meat_shape" data-name="banana meat shape" class="cls-21" d="M1199.47,945.42c-2.83-9.16-29.1-36.65-41.62-46.12,0,0,26.88,3.05,47-37.57,0,0,20.91,4.92,40.32,37.26C1259.86,923.43,1199.47,945.42,1199.47,945.42Z"/><path id="HL-4" data-name="HL" class="cls-25" d="M1245.28,900.18a11.54,11.54,0,0,1,1.7,5.88c-0.14,2.06-1.69,4.17-3.75,4.21-3.12.06-4.51-4-7.22-5.56-2.52-1.46-5.79-.47-8.21,1.16s-4.43,3.87-7,5.19-6.2,1.44-8-.83c-2-2.47-.83-6.13.52-9s2.8-6.32,1.19-9.06c-1.92-3.28-6.76-3.14-9.78-5.45-1.91-1.46-2.92-3.77-3.87-6-1.41-3.3-2.84-6.85-2.17-10.38,0.86-4.48,6.21-8.4,10.81-7.17s10.06,6.36,13.74,9.42A88.69,88.69,0,0,1,1245.28,900.18Z"/><path id="HL-5" data-name="HL" class="cls-22" d="M1215.69,867.36a84.09,84.09,0,0,1,21.59,18.3,12.45,12.45,0,0,1,2.2,3.34,4.66,4.66,0,0,1-.07,3.89,7,7,0,0,1-3,2.5l-5.1,2.76a13.44,13.44,0,0,1-3.89,1.61,4.55,4.55,0,0,1-4-1,5.33,5.33,0,0,1-1.22-4.36,41,41,0,0,0,.54-4.65c-0.1-3.73-2.85-6.8-5.47-9.46s-5.43-5.63-5.71-9.35a4.27,4.27,0,0,1,1.17-3.56,2.28,2.28,0,0,1,3.37.34"/><path id="SH" class="cls-26" d="M1194.71,937.47c1.59,2.26,3.14,6.81,5.84,7.37,2.09,0.43,4.45-2.48,6.42-3.31l10.59-4.47c2.31-1,5-2.53,4.94-5a4.18,4.18,0,0,0-2.34-3.35,10.77,10.77,0,0,0-4.13-1c-4.33-.41-8.73-0.32-12.95-1.38s-8.36-3.57-10-7.58c-1.18-2.84-1.07-6.28-3.08-8.61-4.08-4.76-13-1-17.47-5.44-2.39-2.36-3-6.69-6.23-7.62a4,4,0,0,0-4.92,3.88c0.15,3.25,4.16,4.9,6.25,6.84,3.22,3,6.55,5.85,9.66,9A159,159,0,0,1,1194.71,937.47Z"/><path id="banana_meat_line" data-name="banana meat line" class="cls-23" d="M1199.47,945.42c-2.83-9.16-29.1-36.65-41.62-46.12,0,0,26.88,3.05,47-37.57,0,0,20.91,4.92,40.32,37.26C1259.86,923.43,1199.47,945.42,1199.47,945.42Z"/><path id="banana_meat" data-name="banana meat" class="cls-21" d="M1204.89,861.73c3.65-4.81-17.2,34.64-45.07,37.61-8.92,1-14.15-24.69,6.2-20.81C1170.83,879.45,1188.78,883,1204.89,861.73Z"/><path id="banana_meat-2" data-name="banana meat" class="cls-25" d="M1204.89,861.73c3.65-4.81-17.2,34.64-45.07,37.61-8.92,1-14.15-24.69,6.2-20.81C1170.83,879.45,1188.78,883,1204.89,861.73Z"/><path id="banana_meat_line-2" data-name="banana meat line" class="cls-23" d="M1204.89,861.73c3.65-4.81-17.2,34.64-45.07,37.61-8.92,1-14.15-24.69,6.2-20.81C1170.83,879.45,1188.78,883,1204.89,861.73Z"/><path id="fix_line" data-name="fix line" class="cls-23" d="M1241.22,924.91a21.08,21.08,0,0,0,4.35-25"/><g id="LEFT_PEEL_copy" data-name="LEFT PEEL copy"><path id="peel_solid-2" data-name="peel solid" class="cls-27" d="M1240.47,918.85c-7.7-4.1-17.18,16-29.32,20.16-14.34,4.87-20,.53-22.91-3.21-4.58-6-17.41-4.81-8.7,18.58,8.42,22.62,18.78,10.74,19.93,36.4,1.26,28.21-16.26,41.23-16.26,41.23s-18.55,23.14,11.22,13.74,53.37-41,46-64.14-8.93-27.49-8.25-37.11a27.84,27.84,0,0,1,7.79-18.1C1242,924.19,1243.91,920.68,1240.47,918.85Z"/><path id="HL-6" data-name="HL" class="cls-28" d="M1233.77,960.87c-2.94-13.46-2.75-28.18,9.62-38-3.06,2-3.44-10.77-13.74.69a148.62,148.62,0,0,1-16.49,15.12c-4.58,1.37-7.26,1.86-7.79,2.06-2.7-.19-5.87,1-8.64.67-3.71-.4-6.57-4.83-9.33-6.65s-6.77-2.37-9.18-.11-2.18,5.83-1.64,9a66.29,66.29,0,0,0,4.74,15.73,17.39,17.39,0,0,0,5.84,7.08c5.47,3.9,8.75,5.85,12.49,4.54,5.23-1.83,0-9.25,4.69-10.22s16.73,7.05,20,14.84c1.49,3.49.91,7.5,0,11.18-1.17,4.6-2.88,9.2-1.67,14a8.68,8.68,0,0,0,3.74,5.38c5.36,3.28,11.22-1.59,13.2-6.91,2.31-6.2,1.43-13.15-.4-19.51S1235.18,967.34,1233.77,960.87Zm-30.62-15.37"/><path id="HL-7" data-name="HL" class="cls-29" d="M1243.5,919.93c-2.23,1.78-2.43-2.14-4.92-1.21-6.25,2.35-12.72,11.13-21.07,17.18-1.8,1.31-6,1.13-5.82,6.51a8.35,8.35,0,0,0,1.74,4.24c1.57,2.34,5.72,3.64,7.29,6,2,3,1.47,7.06,3.49,10.08,1.67,2.49,4.23,5.32,7.08,4.4,1.92-.62,2.94-2.82,2.95-4.84a21.23,21.23,0,0,0-1.34-5.89C1228.73,942.16,1236.66,931.52,1243.5,919.93Z"/><path id="peel_line-2" data-name="peel line" class="cls-23" d="M1240.47,918.85c-7.7-4.1-17.18,16-29.32,20.16-14.34,4.87-20,.53-22.91-3.21-4.58-6-17.41-4.81-8.7,18.58,8.42,22.62,18.78,10.74,19.93,36.4,1.26,28.21-16.26,41.23-16.26,41.23s-18.55,23.14,11.22,13.74,53.37-41,46-64.14-8.93-27.49-8.25-37.11a27.84,27.84,0,0,1,7.79-18.1C1242,924.19,1243.91,920.68,1240.47,918.85Z"/></g></g><g id="BODY_copy" data-name="BODY copy"><path id="base-2" data-name="base" class="cls-30" d="M1376.08,881.28c10.24-8.76,9.16-25.66,23.37-36.19,0,0-52.18-36.28-70.55-93.23-2.29-7.1-2.29-9.85-7.56-10.54s-7.1,7.1-14-3-13.31-24.11,0-33l11-8s5.27-3.44,7.33,0c0,0-5.83-8.61,16.26-28.86,2.75-2.52,22.68-24.28,25.2-28.18,0,0,6.18-10.31,11.68-8.7,0,0-58-53.37,11.45-45.59,0,0-13-29.09,16.34-38.41,0,0-28.91-12.64-11.45-46,3.36-6.41,19.85-44.59,33.29-15,0,0,8.25-31.46,30.08-29.47,0,0,2.75-21.23,13.52-21.46,0,0-.53-9.09-6-15.12-4.12-4.58-8.94-11,7.1-19,3.21-1.6,9.51-5.61,0-15.12-4.58-4.58-28.91-28.64-4.58-25.66,5.48,0.67,8.92,3.24,12.37,4.81s19.7,8,10.31-11.68-20.38-28.47-22.91-32.53-11-25.2,10.54-20.39c0,0,17.72,4.62,28.4,44.67,0.92,3.44,19.24,61.39,55.44,81.78s40.09,34.36,50.4,54.75,14.2,20.16,20.39,23.59,24.05,22.91,20.62,42.61c0,0,39.63-64.83,55.66-1.6,2.21,8.73,5.27,25.89,3.18,39.4-2,12.89-3.18,18.33-10.28,20.16L1678,609.14s253.4,160.22,218.08,383.92c-2.75,17.41,4.58,95.29-44,105.83,0,0,17.41,123.7-58.64,170.43,0,0-11.42,31.91-14.2,44.44-0.92,4.12,1.83,7.56-3,14.43,0,0,13.52,14.2,10.77,21.3,0,0,7.95,5,14,2.29,2.06-.92,14-13.29,27.95,7.79s-15.81,33.44-15.81,33.44l-38,2.52s-18.33,4.81-23.37-1.6c0,0-16.26.46-19.7-9.62,0,0-73.94,40.64-98.73-8.93-2.52-5-5.73-43.52,54.06-49.94,0,0-7.56-7.1-6.18-14.89,0,0-119.88,68-295.2,8.09,0,0-16,21.94-68.42,12.83-14-2.44-96.1,27.76-124,9.16-1.83-1.22-4.89-1.83-11-.31s-33.29,3.05-38.48-18c-2.75-9.77,3.05-13.13-5.5-18s-17.71-15.58-9.47-27.49-26-41.84-12.83-60.17c0,0-23.91-8.57-27.49-33.6-0.31-2.14-6.41-4.87-7-9.16-0.31-2.14-16.51-34.65,20.46-48.87,4-1.53,67.81-49.78,162.79-19.24C1265.06,1105.77,1227.18,1008.64,1376.08,881.28Z"/><g id="EAR_copy" data-name="EAR copy"><path id="ear_SH" data-name="ear SH" class="cls-31" d="M1668.72,555.48c-4.34,2.07,32.18-38.15,29.21,6.24C1697.93,561.73,1696.55,542.18,1668.72,555.48Z"/><path id="ear_SH-2" data-name="ear SH" class="cls-32" d="M1673.45,550.09c-3.37,1.39,26.1-25.19,23.79,4.65C1697.24,554.74,1695.06,541.14,1673.45,550.09Z"/><path id="ear_SH-3" data-name="ear SH" class="cls-33" d="M1711.9,553.71c0.69,5,2.75,34.13-.23,42.84s-7.56,10.31-13.74,10.54-18.55,1.37-18.55,1.37,17.64-5,24.05-18.33S1711.9,553.71,1711.9,553.71Z"/><path id="ear_HL" data-name="ear HL" class="cls-34" d="M1664.25,534.92s29.55-39.4,44.21,6.18c0,0-7.1-11-19.24-12.37S1664.25,534.92,1664.25,534.92Z"/><path id="ear_HL-2" data-name="ear HL" class="cls-17" d="M1639.28,563.56s25.89,15.12,23.82,43.75c0,0-6.8-16.49-22.68-19.47C1617.69,583.58,1639.28,563.56,1639.28,563.56Z"/></g><g id="HEAD_copy" data-name="HEAD copy"><path id="head_SH" data-name="head SH" class="cls-33" d="M1521.08,378.24c-0.69-.23,13.06,31.38,44.21,50.62s34.59,27.95,38.25,33-5.73,17.64-25.66-.69-29.32-29.78-43.07-33.44-23.82-17.64-20.85-33S1521.08,378.24,1521.08,378.24Z"/><path id="head_SH-2" data-name="head SH" class="cls-33" d="M1478.25,364.49s-16.72-7.56-19.47-1.83,5.5,14.43,5.5,14.43l11,11s3.44,4.35,3.44,7.1-5.27,6.64-5.27,6.64S1462.9,406.19,1462,411s0.23,6.18,3.89,9.39,6.41,15.58,6.41,15.58,10.31-3,14.89,4.81c0,0-12.37-14.2-11.45-24.51s5.73-10.08,8.48-17-3.67-13.52-8.48-23.14S1478.25,364.49,1478.25,364.49Z"/><path id="head_SH-3" data-name="head SH" class="cls-33" d="M1485.58,438.71c-5.27-3-12.6-7.56-20.85,1.15,0,0-6.41,8.7-5.73,17.18,0,0,10.31,1.37,12.6,3.67,0,0-3-10.67.23-15.81C1476,438.26,1485.58,438.71,1485.58,438.71Z"/><path id="head_SH-4" data-name="head SH" class="cls-33" d="M1428.46,486.67c7.86-21.15,20.46-36.73,41.31-26.88,0,0-14.08,2-17.64,12.83-4.12,12.6,10.54,22.45-.23,22.68a36.92,36.92,0,0,1-15.35-3.21A33.69,33.69,0,0,1,1428.46,486.67Z"/><path id="head_HL" data-name="head HL" class="cls-35" d="M1535.74,401.6c2.06,4.58,19.47,23.59,26.57,26.34s22,12.37,23.59,14.43-6.18,13.52-15.12,3-24.51-27.95-32.76-29.78-16.49-12.14-9.85-12.83S1535.74,401.6,1535.74,401.6Z"/><path id="head_HL-2" data-name="head HL" class="cls-36" d="M1560.1,426.19s16.19,8.55,19.24,11.15,2.44,12.68-2.29,8.4-8.33-11.34-11.45-12.22C1558,431.38,1560.1,426.19,1560.1,426.19Z"/><path id="head_HL-3" data-name="head HL" class="cls-37" d="M1463.74,458.57c-2.14.15-9.47-5.35-21.23,5s-5.84,22,3.51,4.58c2.07-3.85,3.54-6.66,9-6.11C1458.43,462.42,1463.74,458.57,1463.74,458.57Z"/><path id="head_HL-4" data-name="head HL" class="cls-37" d="M1460.38,448.33s3.44-18,20-12.22c0,0-8.9.2-10.73,5.46C1464.25,457.11,1460.38,448.33,1460.38,448.33Z"/><path id="head_HL-5" data-name="head HL" class="cls-38" d="M1473.89,401.38s-18.25,8.1-8.86,17.33c0,0,3.72,4.09,4,6,0.46,2.69,5,1.76,2.9-2.9-3-6.68-6.41-7.18.53-13C1478.18,404.13,1473.89,401.38,1473.89,401.38Z"/><path id="head_HL-6" data-name="head HL" class="cls-37" d="M1469.39,361s-18.17-4.89-7.71,12.6l6.64,8.25S1465,374.12,1465,370A11.12,11.12,0,0,1,1469.39,361Z"/><path id="head_HL-7" data-name="head HL" class="cls-34" d="M1473.44,327.73l-6-7.56s-11.11-22.45,9.51-19.7c0,0,12.37,0,25,29.44l9.85,29s-10.19-26.8-22.68-32.3S1473.44,327.73,1473.44,327.73Z"/><path id="head_HL-8" data-name="head HL" class="cls-39" d="M1466.68,318.79s-5.5-15.12,1-17.75,17.18-.34,22.56,7.67a120.4,120.4,0,0,1,9.16,15.58c0.23,0.8-11.8-13.17-21.42-12.71S1466.68,318.79,1466.68,318.79Z"/></g><g id="RT_LEG_BODY_MISC_copy" data-name="RT LEG / BODY MISC copy"><path id="body_SH" data-name="body SH" class="cls-40" d="M1678,609.14s160,163.57,134.69,261.14c-18.33,70.55,80.63,140.19,83.38,122.78C1931.39,769.36,1678,609.14,1678,609.14Z"/><path id="body_SH-2" data-name="body SH" class="cls-31" d="M1831.32,756.36s30.27,89.19,21.69,130.11,45.86,88,46.73,70.55C1904.93,852.88,1831.32,756.36,1831.32,756.36Z"/><path id="arm_SH" data-name="arm SH" class="cls-41" d="M1791.92,1016.58s27.49,26.88,36,43.68l6.11,22.91s4.58,28.1,29.93,10.69c0,0,15.88-3.36,27.49-44.29l2.75-25.66s-20.33-5.87-39.09,18.94c-18,23.82-11-49.53-58.95-41.54C1781.54,1003.76,1791.92,1016.58,1791.92,1016.58Z"/><path id="leg_SH" data-name="leg SH" class="cls-42" d="M1793.14,1270.4s16.49-65.06,10.08-122.17c0,0-1.59-46.87-34.51-83.69-38.79-43.37,46.12-23.82,46.12-23.82l13.13,19.55s5.5,26.57,9.16,30.54,2.75,10.38,15,8.86c2.79-.35,15,130.11-58.95,169.21"/><path id="leg_SH-2" data-name="leg SH" class="cls-43" d="M1793.64,1270.09s16.49-65.06,10.08-122.17c0,0,1.51-36.56-15.37-62.31-28.53-43.53,19.19-51.09,24.8-47.6,3.31,2.06,12.61,15.72,13.29,19.66,4.86,28.33,16.71,47,26.15,41.69,2.45-1.39,15,130.11-58.95,169.21"/></g><g id="BACK_LEG_copy" data-name="BACK LEG copy"><path id="leg_SH-3" data-name="leg SH" class="cls-41" d="M1116.31,1216.64s-23.92-8.58-27.49-33.6c-0.3-2.13-6.41-4.87-7-9.16-0.3-2.13-16.51-34.64,20.47-48.87,4-1.53,67.81-49.78,162.79-19.24,0,0,19.55,91.32,53.76,147.52,1.93,3.16-7.48,34.74-66.58,13.44C1216,1253.67,1147.77,1197.09,1116.31,1216.64Z"/><path id="leg_SH-4" data-name="leg SH" class="cls-42" d="M1116.31,1216.64s-23.92-8.58-27.49-33.6c-0.3-2.13-6.41-4.87-7-9.16-0.3-2.13-16.51-34.64,20.47-48.87,4-1.53,67.81-49.78,162.79-19.24,0,0,19.55,91.32,53.76,147.52C1321.92,1258.39,1128.84,1039.49,1116.31,1216.64Z"/><path id="leg_SH-5" data-name="leg SH" class="cls-33" d="M1088.82,1183c-0.51,2.09-6.41-4.87-7-9.16-0.3-2.13-16.51-34.64,20.47-48.87,4-1.53,67.81-49.78,162.79-19.24a359.42,359.42,0,0,0,11,44.9C1277.82,1156.37,1115.4,1074.92,1088.82,1183Z"/><path id="leg_SH-6" data-name="leg SH" class="cls-44" d="M1102.27,1125c4-1.53,67.81-49.78,162.79-19.24a359.42,359.42,0,0,0,11,44.9c0.72,2.32-21-35-59.86-38.48C1159.28,1107.08,1080.29,1133.46,1102.27,1125Z"/><path id="HL-8" data-name="HL" class="cls-45" d="M1152.85,1102.33c-18,6.49-35.38,13.56-52.1,22.84-9.17,5.09-18.87,11.55-21.51,21.7-1.07,4.11-.07,9.58,4,10.77,2.59,0.75,5.34-.61,7.36-2.39s3.64-4,5.85-5.55,5.34-2.26,7.54-.71c2,1.4,2.53,4.18,2,6.56s-1.8,4.48-2.9,6.64c-1.85,3.62-3.18,7.68-2.64,11.7s3.36,7.94,7.34,8.76c3.57,0.74,7.3-1.14,9.64-3.94s3.52-6.37,4.4-9.9c1.46-5.92,2.21-12,3.67-17.93s3.73-11.81,7.77-16.37,10.13-7.64,16.18-6.91c3.19,0.38,6.23,1.78,9.44,1.81,5.43,0.05,10.44-4.19,11.78-9.44a15.16,15.16,0,0,0-4.84-14.69c-4.07-3.59-6.38-4.14-11.76-3.38Z"/><path id="HL-9" data-name="HL" class="cls-36" d="M1148.24,1103.22a221.86,221.86,0,0,0-32.71,14.34c-5.75,3.19-11.85,7.25-13.51,13.62-0.67,2.58,0,6,2.52,6.76,1.62,0.47,16.62,5.65,15-6.72-1-8,20.25-16,24.05-15.58,2,0.24,6.42,2.94,8.44,3,3.41,0,9.08-3.43,10.08-4.35,3-2.75-.43-8.28-3-10.54s-6.75-1.26-10.12-.78Z"/></g><g id="RIGHT_FOOT_copy" data-name="RIGHT FOOT copy"><path id="right_foot_shape" data-name="right foot shape" class="cls-32" d="M1389.37,1317s-19.36,23.62-71.78,14.51c-14-2.44-96.1,27.76-124,9.16-1.83-1.22-4.89-1.83-11-.31s-33.29,3.05-38.48-18c-2.75-9.77,3.05-13.13-5.5-18s-17.71-15.58-9.47-27.49-26-41.84-12.83-60.17c0,0,40.32-55.89,78.8,4.58,0,0,6.41,14.2,42.61,19.7s42.15,12.83,58.64,14.66,25.66-.46,28.86-2.75C1325.23,1252.83,1326,1262.76,1389.37,1317Z"/><g id="toes_copy" data-name="toes copy"><path class="cls-32" d="M1146.09,1305.17c-5.25,8.62-2.86,20.63,4.29,27.77s18.06,9.67,28,8.1c6.34-1,12.73-3.76,16.42-9,5.4-7.68,3.41-18.79-2.4-26.16a31.49,31.49,0,0,0-23.29-11.8c-9-.31-17.16,4.2-23.2,10.85Z"/><path class="cls-32" d="M1134.32,1271.33a17.4,17.4,0,0,0-8.77,16.4c0.73,8.18,7.76,15.06,15.82,16.67s16.63-1.54,22.6-7.19a24,24,0,0,0,7.61-13.85c0.73-5.32-1-11.09-5.1-14.58s-10.17-4.34-15.56-3.34-10.18,5.56-15.66,5.56Z"/><path class="cls-32" d="M1175,1200.15c-9.64-5.4-21.27-7.75-31.74-4.22-6.59,2.22-12.49,6.14-17.82,10.6-3.63,3-7.1,6.46-9.15,10.73-2.77,5.77-2.64,12.6-1,18.78s4.78,11.86,7.87,17.48c2.95,5.37,6.37,11.16,12.12,13.25,3.79,1.38,8,.9,12,0.3q10.92-1.64,21.66-4.23c5.13-1.24,11.07-1.8,15.52-4.65s8.55-1.22,12.52-15c2.75-9.5-2.25-14.93-2.44-18S1184.59,1205.55,1175,1200.15Z"/></g><g id="toes_SH_copy" data-name="toes SH copy"><path class="cls-46" d="M1146.09,1305.17c-5.25,8.62-2.86,20.63,4.29,27.77s18.06,9.67,28,8.1c6.34-1,12.73-3.76,16.42-9,3-4.29-16.08,4-30.41-2.11C1153.11,1325.09,1146.09,1305.17,1146.09,1305.17Z"/><path class="cls-46" d="M1125.55,1287.73c0.73,8.18,7.65,15.76,15.82,16.67,1.86,0.21,7.69-1.25,13.66-6.9,3.9-3.69-10.54,3.21-15.35-4.35S1125,1281.2,1125.55,1287.73Z"/><path class="cls-46" d="M1115.28,1236c1.68,6.18,4.78,11.86,7.87,17.48,2.95,5.37,6.37,11.16,12.12,13.25,3.79,1.38,8,.9,12,0.3q10.92-1.64,21.66-4.23c5.13-1.24,11.07-1.8,15.52-4.65,2.36-1.51-20.13,2.86-39.25-3.28C1128.26,1249.46,1114.5,1233.13,1115.28,1236Z"/></g><g id="toes_HL_copy" data-name="toes HL copy"><path class="cls-47" d="M1146.09,1305.17c-5.25,8.62,29.66-4,27.64,5.85-3.05,15,17.41,26.25,21.1,21,5.4-7.68,3.41-18.79-2.4-26.16a31.49,31.49,0,0,0-23.29-11.8c-9-.31-17.16,4.2-23.2,10.85Z"/><path class="cls-47" d="M1134.32,1271.33c-2.94,1.61-3,22.59,13.15,11.9,8.56-5.65,23.75,2.74,24.11.14,0.73-5.32-1-11.09-5.1-14.58s-10.17-4.34-15.56-3.34-10.18,5.56-15.66,5.56Z"/><path class="cls-47" d="M1175,1200.15c-9.64-5.4-21.27-7.75-31.74-4.22-6.59,2.22-12.49,6.14-17.82,10.6-1.63,1.37-4.5,25.69,40.7,14.39,21.92-5.48,25,47.65,30.85,22.3,2.21-9.64-2.25-14.93-2.44-18S1184.59,1205.55,1175,1200.15Z"/></g><path id="right_foot_OL" data-name="right foot OL" class="cls-18" d="M1389.37,1317s-19.36,23.62-71.78,14.51c-14-2.44-96.1,27.76-124,9.16-1.83-1.22-4.89-1.83-11-.31s-33.29,3.05-38.48-18c-2.75-9.77,3.05-13.13-5.5-18s-17.71-15.58-9.47-27.49-26-41.84-12.83-60.17c0,0,40.32-55.89,78.8,4.58,0,0,6.41,14.2,42.61,19.7s42.15,12.83,58.64,14.66,25.66-.46,28.86-2.75C1325.23,1252.83,1326,1262.76,1389.37,1317Z"/><path id="under_toe_line" data-name="under toe line" class="cls-18" d="M1193.28,1218.78s21.69,41.84-28.1,45.51c0,0,16.19,19.55-3.05,29.93,0,0,55.59.92,28.1,45.51"/><path class="cls-48" d="M1213.42,1250.35c-5.56,2.73-11.34,5.62-15.09,10.55s-4.76,12.54-.55,17.1,11.62,4.44,16.14,8.61c5.84,5.38,4.25,14.84,2,22.44s-4.46,16.75.74,22.75c5.57,6.43,16.36,4.72,23.16-.39s11.31-12.71,17.65-18.38a41.77,41.77,0,0,1,40.2-8.35c14.36,4.77,24.34,20.74,39.39,22.27,8.64,0.88,26.13-1.13,37.35-8.89,4.7-3.25,6.68-17.51,3.88-20.5l-26.52-28.29c-2.87-3.06-5.8-6.17-9.49-8.17-6.83-3.71-15.24-3.05-22.68-.84s-14.42,5.84-21.9,7.93a56.82,56.82,0,0,1-46.29-7.42c-5.73-3.84-10.73-8.73-16.65-12.27S1213.42,1250.35,1213.42,1250.35Z"/></g><path id="belly_edge_SH" data-name="belly edge SH" class="cls-16" d="M1264.75,1104.85c7.92,34.68,20.55,83.22,54.35,149.67l6.13-1.46,11.45,2.52-26.57-257.48s-16.47,57.11-30.7,55.44c-23.37-2.75-.46-52.69-0.46-52.69S1251.47,1046.67,1264.75,1104.85Z"/><path id="belly_edge" data-name="belly edge" class="cls-18" d="M1264.75,1104.85c5.73,35.1,20.55,83.22,54.35,149.67"/><path id="outline" class="cls-49" d="M1376.08,881.28c10.24-8.76,9.16-25.66,23.37-36.19,0,0-52.18-36.28-70.55-93.23-2.29-7.1-2.29-9.85-7.56-10.54s-7.1,7.1-14-3-13.31-24.11,0-33l11-8s5.27-3.44,7.33,0c0,0-5.83-8.61,16.26-28.86,2.75-2.52,22.68-24.28,25.2-28.18,0,0,6.18-10.31,11.68-8.7,0,0-58-53.37,11.45-45.59,0,0-13-29.09,16.34-38.41,0,0-28.91-12.64-11.45-46,3.36-6.41,19.85-44.59,33.29-15,0,0,8.25-31.46,30.08-29.47,0,0,2.75-21.23,13.52-21.46,0,0-.53-9.09-6-15.12-4.12-4.58-8.94-11,7.1-19,3.21-1.6,9.51-5.61,0-15.12-4.58-4.58-28.91-28.64-4.58-25.66,5.48,0.67,8.92,3.24,12.37,4.81s19.7,8,10.31-11.68-20.38-28.47-22.91-32.53-11-25.2,10.54-20.39c0,0,17.72,4.62,28.4,44.67,0.92,3.44,19.24,61.39,55.44,81.78s40.09,34.36,50.4,54.75,14.2,20.16,20.39,23.59,24.05,22.91,20.62,42.61c0,0,39.63-64.83,55.66-1.6,2.21,8.73,5.27,25.89,3.18,39.4-2,12.89-3.18,18.33-10.28,20.16L1678,609.14s253.4,160.22,218.08,383.92c-2.75,17.41,4.58,95.29-44,105.83,0,0,17.41,123.7-58.64,170.43,0,0-11.42,31.91-14.2,44.44-0.92,4.12,1.83,7.56-3,14.43,0,0,13.52,14.2,10.77,21.3,0,0,7.95,5,14,2.29,2.06-.92,14-13.29,27.95,7.79s-15.81,33.44-15.81,33.44l-38,2.52s-18.33,4.81-23.37-1.6c0,0-16.26.46-19.7-9.62,0,0-73.94,40.64-98.73-8.93-2.52-5-5.73-43.52,54.06-49.94,0,0-7.56-7.1-6.18-14.89,0,0-119.88,68-295.2,8.09,0,0-16,21.94-68.42,12.83-14-2.44-96.1,27.76-124,9.16-1.83-1.22-4.89-1.83-11-.31s-33.29,3.05-38.48-18c-2.75-9.77,3.05-13.13-5.5-18s-17.71-15.58-9.47-27.49-26-41.84-12.83-60.17c0,0-23.91-8.57-27.49-33.6-0.31-2.14-6.41-4.87-7-9.16-0.31-2.14-16.51-34.65,20.46-48.87,4-1.53,67.81-49.78,162.79-19.24C1265.06,1105.77,1227.18,1008.64,1376.08,881.28Z"/><g id="CHEST_copy" data-name="CHEST copy"><path id="chest_lighter_base" data-name="chest lighter base" class="cls-50" d="M1286.8,1111.28c0,65.5,27.91,239.75,228.55,231.79,0,0,114.88.13,184.42-38.46,0,0,5.46-79.37-27.28-136.83-29.68-52.1-97.52-80.87-88.88-110.95,23.82-82.94-30.24-126.17-68.26-134.31C1294.46,875.24,1286.8,1067.29,1286.8,1111.28Z"/><path id="chest_HL" data-name="chest HL" class="cls-17" d="M1415,1129.64c47.52-89.41,164.18-56.84,168.64-72.38,23.82-82.94-30.24-126.17-68.26-134.31-146.34-31.32-199.1,42.4-218,108.53-5.47,19.1-12.91,121.08,28.3,116.57C1356.43,1144.69,1367.51,1219.05,1415,1129.64Z"/><path id="chest_HL-2" data-name="chest HL" class="cls-17" d="M1515.41,922.95c-107.28-23-164.26,10.53-194.5,56.09-11,16.59,32.72,87.79,98.24,15.68,32.54-35.82,71.28-13.16,92.09-23.52C1546.14,953.81,1539.24,928,1515.41,922.95Z"/><path id="chest_HL-3" data-name="chest HL" class="cls-36" d="M1467.9,916.1c-57.21-3.81-96.37,11.55-123.16,35.34-5.8,5.15,1.11,42.55,34,19.76,21.34-14.78,46-6.05,60.52-10.74C1500.27,940.84,1482.52,917.07,1467.9,916.1Z"/><path id="chest_SH" data-name="chest SH" class="cls-44" d="M1379.82,1310.44c32.78,21.64,76.74,35,135.54,32.63,0,0,114.88.13,184.42-38.46,0,0-9.82-21.83-9.82-88,0-118.2-88.34-144.53-82.15-57.37,4.21,59.21,37.07,84.89,30.78,94.08-23.82,34.77-58.56,35.78-90.06,22.85C1330.27,1186.63,1335.34,1281.07,1379.82,1310.44Z"/><path id="chest_SH-2" data-name="chest SH" class="cls-44" d="M1403.39,1323.57c29.49,13.67,66.24,21.31,112,19.5,0,0,61.07.07,121.11-14.85,22.31-5.54-85.82-5-117.95-16.28C1374.71,1261.54,1395,1319.66,1403.39,1323.57Z"/><path id="chest_SH-3" data-name="chest SH" class="cls-48" d="M1700.47,1274.12c-8.16-8.9-14.69-23.77-14.69-48.57,0-118.2-84.16-153.44-78-66.28,3.37,47.42,36.53,125.71,85.33,135.16C1705.28,1296.78,1714.07,1288.95,1700.47,1274.12Z"/><path id="chest_lighter_OL" data-name="chest lighter OL" class="cls-18" d="M1286.8,1111.28c0,65.5,27.91,239.75,228.55,231.79,0,0,114.88.13,184.42-38.46,0,0,5.46-79.37-27.28-136.83-29.68-52.1-97.52-80.87-88.88-110.95,23.82-82.94-30.24-126.17-68.26-134.31C1294.46,875.24,1286.8,1067.29,1286.8,1111.28Z"/></g><path id="leg" class="cls-30" d="M1702.71,1192.82c-4.89,0-9.45,3.84-13.33,10.49l-3.45-173.59C1602.25,1111,1692,1337,1692,1337l-0.2-10.22c3.3,4.34,7,6.78,10.87,6.78,14,0,25.37-31.5,25.37-70.36S1716.73,1192.82,1702.71,1192.82Z"/><path id="leg_SH-7" data-name="leg SH" class="cls-41" d="M1803.83,1157.35s6.57,64.1-15.48,128.19c0,0-15.06,27.77-31.56,9.3-15.4-17.24,9.52-54.92,5.5-71.33-6-24.28-27.95-7-36.65-35.28-11.19-36.39,12.37-56.35,36.65-56.35s4.58,32.53,20.62,35.74S1803.83,1157.35,1803.83,1157.35Z"/><path id="leg_SH-8" data-name="leg SH" class="cls-42" d="M1803.84,1206.36c-1.62,22.75-5.78,51-15.48,79.18,0,0-16.2-14.08-11.73-34.54,4.94-22.58,4-31.79,0-48.2C1770.67,1178.52,1805.89,1177.43,1803.84,1206.36Z"/><g id="leg_SH_copy" data-name="leg SH copy"><path class="cls-42" d="M1651.32,1171.07s11.55,122.64,45.46,165.69-2.32-22.57-7.61-51.44-11.31-57,1.65-84.48c22.07-46.84-19.9-91.33-39.51-80.2C1644.07,1124.77,1649.49,1140.6,1651.32,1171.07Z"/><path class="cls-43" d="M1651.32,1171.07s11.55,122.64,45.46,165.69-8-16.28-13.25-45.15-14-58.79-9.2-88.82c5.49-34.36,2.7-84.73-16.91-73.6C1650.17,1133.32,1649.49,1140.6,1651.32,1171.07Z"/><path class="cls-51" d="M1693.69,1136.78c6.79-8.7,5.68-21.24,2-31.63s-9.61-20.06-11.67-30.9c-4.14-21.79,10.39-45.53,31.68-51.77,8.61-2.52,13.35-4.94,21.87-7.72s14.66-9.16,19.85-15.27c-34.18-1.67-64.63,16.38-83.08,45.2-4.89,7.64-8.86,15-10.69,25.35-1.07,6.08,6.08,15.14,10.08,24.43s7.87,24.14,1.22,31.76c-3.82,4.39-7.33,0-13.44,11-5,8.93-6,23.27,6.22,21.52,5-.72,7.84-6.67,11.27-9.8C1683.71,1144.64,1689.7,1141.9,1693.69,1136.78Z"/></g><path id="leg_line" data-name="leg line" class="cls-18" d="M1780.62,1308.27s33.6-83.69,22-160.66"/><path id="knee_HL" data-name="knee HL" class="cls-45" d="M1803.83,1027c-6.11-5.8-38.48-52.53-102.32-10.38,0,0-16.8,5.5-35.43,45.81,0,0,13.44,3.05,27.79-7.33s30.85,25,49.48,11.91-1.83-38.48,13.74-42.45,31.15,0,39.09,6.11S1803.83,1027,1803.83,1027Z"/><path id="knee_HL-2" data-name="knee HL" class="cls-45" d="M1701.51,1016.58s-17.56,8.09-29.93,34.21c0,0,8.66-8.83,26.11-10.54,18.78-1.83,25.66,5,38-3.21,6.74-4.5.46-14.2,14.2-24.28,13-9.51,31.92-2,39.86,4.12S1765.35,974.44,1701.51,1016.58Z"/><path id="leg_line-2" data-name="leg line" class="cls-18" d="M1687.16,1324.76s-84.91-213.8-1.22-295"/><g id="HAND_copy" data-name="HAND copy"><path class="cls-30" d="M1568.93,1077.83s-5.24,12.37-11.88,15.34-13.06,8-4.12,13.74,10.76,6.84,25.77-3"/><path class="cls-52" d="M1699.78,955.82c-6-9.71-15.37-34.68-7.81-57.81"/><path class="cls-30" d="M1762.29,976c-27.49-8.55-139.07-76.75-192,84.45,0,0-6,15.12,3.67,32.07s3.67,23.37,1.37,35.74-2.29,23.37,6.87,27.95,18.33,3.67,22.45,0a18.64,18.64,0,0,1,11.68-5.27c4.35-.46,8.48,1.6,9.62,2.75s9.28,4,17.41-4.12c0,0,1.37-3.21,4.58-2.29s9.16-2.29,11-4.81,2.53-7.56,6.42-10.77,20.15-3.21,9.62-33-19-19.93-1.6-52.46,70.66-59.75,103.54-40.55a98.51,98.51,0,0,1,13.29,9.45v-0.89Z"/></g><path id="hand_SH" data-name="hand SH" class="cls-41" d="M1692.66,1022.39c-6.72,6.41-17.45,19.62-28.56,41.84-0.31.61-3.67,5.19,7,24s7.79,37.11-.61,40.16-8.86,7.79-9,8.25-3.05,9-9.93,10.23l-5.19-.92s-3.44,3.44-3.21,3.05-6.11,7.64-15.73,5c0,0-4-4.58-9.47-4.28,0,0-7.33.76-11.3,4.28a24.36,24.36,0,0,1-18.33,4.43s-17.41-3.51-13.59-27.79,12.22-85.67,51-57.88c17.1,12.25,19.55-26.42,30.85-41.54s26.57-12.83,32.53-13.13S1692.66,1022.39,1692.66,1022.39Z"/><path id="hand_SH-2" data-name="hand SH" class="cls-42" d="M1687.46,1027.58c-6.72,6.41-12.25,14.43-23.37,36.65-0.31.61-3.67,5.19,7,24s7.79,37.11-.61,40.16-8.86,7.79-9,8.25-3.05,9-9.93,10.23l-5.19-.92s-3.44,3.44-3.21,3.05-6.11,7.64-15.73,5c0,0-26.76-23.34-20.92-35.12,15.58-31.46,48.56,6.41,51-73.91,0.29-9.65,16.34-19.55,22.3-19.85S1687.46,1027.58,1687.46,1027.58Z"/><path id="body_shadow" data-name="body shadow" class="cls-44" d="M1382.27,873.49c4.12-9.39,4.58-18.33,19.93-30.7,0,0,184.63,15.58,283.59-60.47,0,0-71.93,141.11-240.53,149.35C1360.78,935.81,1382.27,873.49,1382.27,873.49Z"/><g id="ARM_copy" data-name="ARM copy"><path id="elbow_SH" data-name="elbow SH" class="cls-31" d="M1828,1060.26l6.11,22.91s4.58,28.1,29.93,10.69c0,0,15.88-3.36,27.49-44.29,0,0-6-12.28-24.74,12.52C1848.73,1085.92,1825.82,1045.91,1828,1060.26Z"/><path id="arm_HL" data-name="arm HL" class="cls-45" d="M1601.33,997.34c7.33-9.77,44.59-55.28,103.54-40,0,0,11.61,28.1-14,35.12s-24.74-11-44.29-7.64-25.66,34.51-43.07,42.15S1601.33,997.34,1601.33,997.34Z"/><path id="arm_HL-2" data-name="arm HL" class="cls-36" d="M1631.27,969.24c5.33-4.62,23.21-17.41,65.67-14.36,0,0,1.34,23.28-14,24.1s-12.62-9.24-24.07-9.73-21.41,13.38-32.17,15.56S1631.27,969.24,1631.27,969.24Z"/><path id="thumb" class="cls-53" d="M1568.61,1079.08c-1.15,2.18-6,11.34-13.17,15.58,0,0-12.48,4.47-4.24,11.34,0,0,11,8.16,17.07,4.12,0.34-.23,10.31-5.61,10.31-5.61s-1.49-8.13-4.93-13.4A44,44,0,0,1,1568.61,1079.08Z"/><path id="bicep_SH" data-name="bicep SH" class="cls-40" d="M1691.44,898.38c-0.92,4.89-7.94,21.69,7.94,57.73,0,0,27.49,3.36,62.61,20.16,0,0,7-7.33,11.3-27.18s2.44-41.54-11.91-77-28.4-15.88-44.29-9.16S1691.44,898.38,1691.44,898.38Z"/><path id="bicep_SH-2" data-name="bicep SH" class="cls-40" d="M1691.44,898.38c-0.92,4.89-7.94,21.69,7.94,57.73a164.94,164.94,0,0,1,22,4.84c10.85,3,29.73-4.61,34-24.46s-27-8.69-13.52-44.44c6.41-17-18.33-21.2-28.63-17.64C1697,880,1691.44,898.38,1691.44,898.38Z"/><path id="bicep_SH-3" data-name="bicep SH" class="cls-40" d="M1698.27,955.44a85.93,85.93,0,0,1,11.48,2.52c5.65,1.58,15.49-2.4,17.72-12.74s-24.22-.87-17.17-19.5c3.34-8.83-4.5-13.26-10.18-13.45C1684,911.73,1690,936.67,1698.27,955.44Z"/></g><g id="TOES_copy-2" data-name="TOES copy"><path id="toes_SH" data-name="toes SH" class="cls-30" d="M1732.06,1384.32c-7.74,7.31,19.7,9.62,19.7,9.62,5,6.41,23.37,1.6,23.37,1.6l38-2.52s29.78-12.37,15.81-33.44-25.89-8.7-27.95-7.79c-6,2.68-14-2.29-14-2.29s-7.56-2.52-13.74,3a13.63,13.63,0,0,1-11-2.29s-6.87-12.83-22,2.29-10.73,11.66-10.73,11.66S1740.3,1376.53,1732.06,1384.32Z"/><path id="toes_SH-2" data-name="toes SH" class="cls-44" d="M1732.06,1384.32c-7.74,7.31,19.7,9.62,19.7,9.62,5,6.41,23.37,1.6,23.37,1.6l38-2.52s31.92-15.13-12.37-17.87c-14.86-.92-11.32,2.22-30.85,4.58-30.24,3.65-14.51-42.38-29.63-27.26s-10.73,11.66-10.73,11.66S1740.3,1376.53,1732.06,1384.32Z"/><path id="toes_SH-3" data-name="toes SH" class="cls-54" d="M1732.06,1384.32c-7.74,7.31,19.7,9.62,19.7,9.62,5,6.41,23.37,1.6,23.37,1.6l38-2.52s-25.22-8.62-44.75-6.26c-30.24,3.65-38.83-22.63-38.83-22.63S1740.3,1376.53,1732.06,1384.32Z"/><path id="toes_SH-4" data-name="toes SH" class="cls-17" d="M1801.08,1359.58c16-5,34.51,9.52,27.87,0-14.47-20.74-25.89-8.7-27.95-7.79-6,2.68-14-2.29-14-2.29s-7.56-2.52-13.74,3a13.63,13.63,0,0,1-11-2.29S1763.06,1371.51,1801.08,1359.58Z"/><path id="toes_OL" data-name="toes OL" class="cls-18" d="M1732.06,1384.32c-7.74,7.31,19.7,9.62,19.7,9.62,5,6.41,23.37,1.6,23.37,1.6l38-2.52s29.78-12.37,15.81-33.44-25.89-8.7-27.95-7.79c-6,2.68-14-2.29-14-2.29s-7.56-2.52-13.74,3a13.63,13.63,0,0,1-11-2.29s-6.87-12.83-22,2.29-10.73,11.66-10.73,11.66S1740.3,1376.53,1732.06,1384.32Z"/></g><g id="BIG_TOE_copy" data-name="BIG TOE copy"><path id="big_toe_shape" data-name="big toe shape" class="cls-30" d="M1732.06,1384.32s-73.94,40.64-98.73-8.93c-2.52-5-9.25-41.15,54.06-49.94,14.86-2.06,22,11.53,30.92,25.43C1724.2,1360,1742.59,1372.18,1732.06,1384.32Z"/><path id="big_toe_SH" data-name="big toe SH" class="cls-40" d="M1732.06,1384.32s-73.94,40.64-98.73-8.93c-2.52-5-7.72-37.62,37.8-5.88C1703.55,1392.12,1742.59,1372.18,1732.06,1384.32Z"/><path id="big_toe_SH-2" data-name="big toe SH" class="cls-43" d="M1732.06,1384.32s-73.94,40.64-98.73-8.93c-2.52-5-2.41-15.35,31.54,10.92C1684.69,1401.65,1703,1389.67,1732.06,1384.32Z"/><path id="big_toe_HL" data-name="big toe HL" class="cls-45" d="M1687.39,1325.45c14.82-2.33,22,11.53,30.92,25.43C1724.2,1360,1601,1339,1687.39,1325.45Z"/><path id="big_toe_HL-2" data-name="big toe HL" class="cls-39" d="M1686.47,1326.37c12.37-1.6,16.35,2.69,25.28,16.59,2.32,3.61-2.11,2.13-17.49-6C1687.16,1333.24,1633.94,1333.18,1686.47,1326.37Z"/><path id="big_toe_OL" data-name="big toe OL" class="cls-18" d="M1732.06,1384.32s-73.94,40.64-98.73-8.93c-2.52-5-9.25-41.15,54.06-49.94,14.86-2.06,22,11.53,30.92,25.43C1724.2,1360,1742.59,1372.18,1732.06,1384.32Z"/></g><g id="MISC_lines_copy" data-name="MISC lines copy"><path class="cls-18" d="M1471.22,435.8c4.28-.75,11.15-1.67,15.88,4.75"/><path class="cls-18" d="M1458.55,457.19a34,34,0,0,1,13.29,4"/><path class="cls-18" d="M1636.46,562.26c5.5,1.68,31.31,15.42,25.5,51.92"/><path class="cls-18" d="M1654.17,548.44c-1.37,5-3.78,21.52,0,27.68"/><path class="cls-18" d="M1697.47,570.2c5.5-53.37-25-19.93-29.78-14,0,0,18.33-9.85,19.24,11.68"/><path class="cls-18" d="M1762.29,976c-27.49-8.55-139.07-76.75-192,84.45,0,0-6,15.12,3.67,32.07s3.67,23.37,1.37,35.74-2.29,23.37,6.87,27.95,18.33,3.67,22.45,0a18.64,18.64,0,0,1,11.68-5.27c4.35-.46,8.48,1.6,9.62,2.75s9.28,4,17.41-4.12c0,0,1.37-3.21,4.58-2.29s9.16-2.29,11-4.81,2.53-7.56,6.42-10.77,20.15-3.21,9.62-33-19-19.93-1.6-52.46,70.66-59.75,103.54-40.55c25.89,15.12,47,47.19,50.62,54.52s7.81,46.3,24.51,38.71"/><path class="cls-18" d="M1568.93,1077.83s-5.24,12.37-11.88,15.34-13.06,8-4.12,13.74,10.76,6.84,25.77-3"/><path class="cls-18" d="M1699.78,955.82c-6-9.71-15.37-34.68-7.81-57.81"/></g></g><g id="FACE_copy" data-name="FACE copy"><path id="base-3" data-name="base" class="cls-50" d="M1399.45,845.09s-52.18-36.28-70.55-93.23c-2.29-7.1-2.29-9.85-7.56-10.54s-7.1,7.1-14-3-13.31-24.11,0-33l11-8s5.27-3.44,7.33,0c0,0-5.83-8.61,16.26-28.86,2.75-2.52,22.68-24.28,25.2-28.18,0,0,6.18-10.31,11.68-8.7,0,0-58-53.37,11.45-45.59,0,0-13-29.09,16.34-38.41,0,0-28.91-12.64-11.45-46,3.36-6.41,19.85-44.59,33.29-15,0,0,7.6,24.44,139.58-4.89,8.25-1.83,11.31-9.91,23.82,3.67,1.35,1.47,27,37.28,32.76,45.36,3,4.16,9.85,8.36-.69,25.2,0,0-19.13,28.52-14.89,43.41,0,0,35.88-11.73,38.25,23.94,0.46,6.87,100.51,68.56,28.86,172.26C1658.75,820.81,1492.91,906.48,1399.45,845.09Z"/><g id="right_eye_copy" data-name="right eye copy"><path id="eyeball" class="cls-3" d="M1405.74,547.28c-11.64,4.46-18,13.43-18.36,24.32-0.76,21.2,15.23,31.2,36.63,32.72s39.71-10.68,40.88-27.23c0.53-7.49.07-17-5.43-22.71-1.32-1.37-5.39-.3-7-1.49q-5.59-.16-11.47-0.56A232.36,232.36,0,0,1,1405.74,547.28Z"/><path id="GRADIENT" class="cls-55" d="M1405.74,547.28c-11.64,4.46-18,13.43-18.36,24.32-0.76,21.2,15.23,31.2,36.63,32.72s39.71-10.68,40.88-27.23c0.53-7.49.07-17-5.43-22.71-1.32-1.37-5.39-.3-7-1.49q-5.59-.16-11.47-0.56A232.36,232.36,0,0,1,1405.74,547.28Z"/><path id="purple" class="cls-56" d="M1453.07,588.46c0,11-34.38,21.14-41.61,8.95a17.46,17.46,0,0,1-2.34-8.95c0-11,9.84-19.92,22-19.92,9.25,0,17.17,5.19,20.41,12.53A18.26,18.26,0,0,1,1453.07,588.46Z"/><ellipse id="black" cx="1431.78" cy="588.4" rx="16.8" ry="14.35"/></g><g id="face_HLs_and_SHs_copy" data-name="face HLs and SHs copy"><path id="cheek_shadow_03" data-name="cheek shadow 03" class="cls-41" d="M1399.45,845.09s-52.18-36.28-70.55-93.23c-1-3.22,40.7,67.43,104.91,87,77.29,23.61,177.86-2,152.76,7.13C1527.49,867.62,1452,879.62,1399.45,845.09Z"/><path id="cheek_shadow_01" data-name="cheek shadow 01" class="cls-41" d="M1399.45,845.09s-34.72-86.85,53.76-30.39c55.59,35.47,186.55,9.93,147.45,25.89C1539.93,865.36,1456.3,882.43,1399.45,845.09Z"/><path id="cheek_shadow_02" data-name="cheek shadow 02" class="cls-41" d="M1652.8,724.4c-23.85-17.48,33-58.58,40-43.16,13,28.59,16,67.12-16.67,114.37C1665.2,811.48,1681.2,745.21,1652.8,724.4Z"/><path id="cheek_shadow_04" data-name="cheek shadow 04" class="cls-41" d="M1674.84,715.26c-14.84-7.5,9.95-34.88,17.29-28.53,9.87,8.54,17.06,39.39,4.23,69.49C1692.05,766.34,1692.52,724.19,1674.84,715.26Z"/><path id="cheek_highlight_1" data-name="cheek highlight 1" class="cls-17" d="M1588.2,622.89s6.72-24.75,32.76-25.32,26.34,25.77,26.34,25.77-9.85-8.7-27-9.16S1588.2,622.89,1588.2,622.89Z"/><path id="cheek_highlight_2" data-name="cheek highlight 2" class="cls-34" d="M1594.39,614.15s5.38-16.2,26.22-16.58S1644,612.49,1644,612.49a44.55,44.55,0,0,0-22.81-6.64C1607.44,605.55,1594.39,614.15,1594.39,614.15Z"/><path id="left_face_shadow" data-name="left face shadow" class="cls-41" d="M1367.15,640.3l-25.2,28.18-12.49,14s-7.18,10.28-1.89,18.42,1.78,9.52,1.78,9.52a23.68,23.68,0,0,1,21.13,6.79c9.26,9.55,81.39,21,81.39,21s-43.73-20.08-59.61-42.58S1367.15,640.3,1367.15,640.3Z"/><path id="left_face_shadow_2" data-name="left face shadow 2" class="cls-40" d="M1341.95,668.47l-12.49,14s-7.18,10.28-1.89,18.42,1.78,9.52,1.78,9.52a23.68,23.68,0,0,1,21.13,6.79c3,3.08,12.48,6.35,24,9.37,24.24,6.36-19.62-12.34-28.48-23.94C1336.46,690.1,1341.95,668.47,1341.95,668.47Z"/></g><g id="fill-ins"><path class="cls-50" d="M1390.28,586l0.31,10.08,43.22,26.8C1425.79,600.44,1390.28,586,1390.28,586Z"/><path class="cls-50" d="M1421,605.19l16.66,4-0.46-7.56C1420.52,583,1421,605.19,1421,605.19Z"/><path class="cls-50" d="M1439.53,616l21.3-26.34C1430.83,555.31,1439.53,616,1439.53,616Z"/></g><g id="face_HLs_and_SHs_copy-2" data-name="face HLs and SHs copy"><path id="nose_HL_4" data-name="nose HL 4" class="cls-37" d="M1371,623.57l-13.74-18.78-0.92-12.6,6.64-5,17.18-2.75,8.93,2.06,14.66,6.41A13.56,13.56,0,0,1,1393,597c-6.87-.46-9.39-6.64-15.35-6.87s-11.91,1.37-13.06,10.54S1371,623.57,1371,623.57Z"/><path id="bottom_lip_HL" data-name="bottom lip HL" class="cls-34" d="M1540.25,725.82c-10.69,3.36-77,31.46-179.59-4l-13.13-5.8s-2.14-4.28-6.11-5.19-13.13-.61-14.66.31-18.07,15.32,0,14a113.41,113.41,0,0,1,51.92,8.86c17.33,7.48,18,14.09,24,18.48,13.06,9.62,37.21,17.69,77,.46,25.2-10.92,64.13-21.87,73.07-21.76,19.7,0.23,35.2-14.58,22.37-14s-18,2.14-18,2.14Z"/><path id="bottom_lip_HL-2" data-name="bottom lip HL" class="cls-39" d="M1496.11,736c-15.12,3.51-56.81,5.34-107.89-4.27,0,0-7.33,1.42,7.33,6.41,12.89,4.38,10.63,8.6,26.57,12.11,12.14,2.67,31.15,1.78,48.79-3.21C1479.71,744.52,1505.93,733.69,1496.11,736Z"/><path id="forehead_SH" data-name="forehead SH" class="cls-41" d="M1397.92,495.83c-2.75,5.8-25,44,15.27,53.45,44.29,10.38,111.48-.92,119.42-2.75s-69.94-3.05-96.82-12.52S1397.92,495.83,1397.92,495.83Z"/><path id="forehead_SH-2" data-name="forehead SH" class="cls-41" d="M1391.66,509c-1.86,3.94-6.64,32.3,17.75,38.75,29.83,7.89,75.59,5.78,81,4.54S1439,548,1420.75,541.57,1391.66,509,1391.66,509Z"/><path id="forhead_HL" data-name="forhead HL" class="cls-17" d="M1443.43,494.61s34.82,7.33,110-8.55l16.19-4.28,8.86-4,6.72,1.22,4.89,5.5,11.3,15s2.22,18.66-15.27,6.41c-3.05-2.14-1.53-8.86-10.38-12.22-11.49-4.36-34.82,14.36-50.09,16.8s-31.76-7.33-42.15-8.25-24.43,6.72-32.07,5.19S1443.43,494.61,1443.43,494.61Z"/><path id="forehead_HL" data-name="forehead HL" class="cls-39" d="M1490.62,494.84s47.88-6.18,69.18-11c0,0-19.93,16.72-36.19,18.78S1490.62,494.84,1490.62,494.84Z"/><path id="forehead_HL-2" data-name="forehead HL" class="cls-37" d="M1400.59,492.32s17.48-32.9,26.34-6.17c0,0-3-4.41-11.91-2.64S1400.59,492.32,1400.59,492.32Z"/></g><path id="outline-2" data-name="outline" class="cls-57" d="M1399.45,845.09s-52.18-36.28-70.55-93.23c-2.29-7.1-2.29-9.85-7.56-10.54s-7.1,7.1-14-3-13.31-24.11,0-33l11-8s5.27-3.44,7.33,0c0,0-5.83-8.61,16.26-28.86,2.75-2.52,22.68-24.28,25.2-28.18,0,0,6.18-10.31,11.68-8.7,0,0-58-53.37,11.45-45.59,0,0-13-29.09,16.34-38.41,0,0-28.91-12.64-11.45-46,3.36-6.41,19.85-44.59,33.29-15,0,0,7.6,24.44,139.58-4.89,8.25-1.83,11.31-9.91,23.82,3.67,1.35,1.47,27,37.28,32.76,45.36,3,4.16,9.85,8.36-.69,25.2,0,0-19.13,28.52-14.89,43.41,0,0,35.88-11.73,38.25,23.94,0.46,6.87,100.51,68.56,28.86,172.26C1658.75,820.81,1492.91,906.48,1399.45,845.09Z"/><g id="left_eye_copy" data-name="left eye copy"><path id="BASE-4" data-name="BASE" class="cls-3" d="M1461.71,553.07a50.2,50.2,0,0,0-4.08,19.8c0,31.12,28.72,56.35,64.14,56.35s64.14-25.23,64.14-56.35c0-14.14-5.94-27-15.73-36.94-14.37,5.19-33.45,9.94-54.63,13.21C1495.39,552.24,1476.64,553.5,1461.71,553.07Z"/><path id="GRADIENT-2" data-name="GRADIENT" class="cls-58" d="M1461.71,553.07a50.2,50.2,0,0,0-4.08,19.8c0,31.12,28.72,56.35,64.14,56.35s64.14-25.23,64.14-56.35c0-14.14-5.94-27-15.73-36.94-14.37,5.19-33.45,9.94-54.63,13.21C1495.39,552.24,1476.64,553.5,1461.71,553.07Z"/><path id="GRADIENT-3" data-name="GRADIENT" class="cls-59" d="M1461.71,553.07a50.2,50.2,0,0,0-4.08,19.8c0,31.12,28.72,56.35,64.14,56.35s64.14-25.23,64.14-56.35c0-14.14-5.94-27-15.73-36.94-14.37,5.19-33.45,9.94-54.63,13.21C1495.39,552.24,1476.64,553.5,1461.71,553.07Z"/><ellipse id="purple-2" data-name="purple" class="cls-56" cx="1523.99" cy="584.66" rx="21.62" ry="18.6"/><ellipse id="black-2" data-name="black" cx="1523.96" cy="585.61" rx="15.84" ry="13.51"/><path id="outline-3" data-name="outline" class="cls-57" d="M1569.81,535.52c10,9.94,16.1,23,16.1,37.34,0,31.12-28.72,56.35-64.14,56.35s-64.14-25.23-64.14-56.35a50.16,50.16,0,0,1,3.66-18.82"/></g><path id="fill-ins-2" data-name="fill-ins" class="cls-50" d="M1463.36,613.5c12.14-6,60.7-24.51,71-27.49s20.62-11.45,27.72,6.87,16.72,33.22,1.15,41-22.68,11.45-30.24,16.72"/><g id="NOSE_copy" data-name="NOSE copy"><path id="right_nostril" data-name="right nostril" class="cls-31" d="M1474,642.31s104.88-77,68.15-10.49C1542.16,631.82,1540.26,620,1474,642.31Z"/><path id="right_nostril_2" data-name="right nostril 2" class="cls-31" d="M1496.72,626.73s68.34-46.22,51.31-5.76C1548,621,1544.55,612.63,1496.72,626.73Z"/><path id="right_nostril_3" data-name="right nostril 3" class="cls-32" d="M1506.19,620.89s51.09-32.83,44.2-6.71C1550.39,614.18,1538.87,607.16,1506.19,620.89Z"/><path id="left_nostril_1" data-name="left nostril 1" class="cls-31" d="M1424.55,640s-65.62-73.78-46.73-21.49C1377.81,618.48,1396.51,615.13,1424.55,640Z"/><path id="left_nostril_2" data-name="left nostril 2" class="cls-32" d="M1402.68,617.37s-34.39-37.09-27.22-4.88C1375.46,612.49,1381.35,603.19,1402.68,617.37Z"/><path id="under_nose_1" data-name="under nose 1" class="cls-41" d="M1416.08,632.51s30.24,37.74,68.43,2.54c6.33-5.84,4.21,35.25-33,37.92C1416.62,675.48,1416.08,632.51,1416.08,632.51Z"/><path id="under_nose_2" data-name="under nose 2" class="cls-41" d="M1427.13,641.9s19.86,18.43,44.93,1.24c4.16-2.85,2.77,17.22-21.67,18.52C1427.48,662.89,1427.13,641.9,1427.13,641.9Z"/><path id="under_nose_3" data-name="under nose 3" class="cls-40" d="M1436.8,646s12.69,12.11,27.39,2c2.44-1.67.57,8.79-13.75,9.55C1437,658.31,1436.8,646,1436.8,646Z"/><path id="nose_highlight_1" data-name="nose highlight 1" class="cls-17" d="M1467,635.25c0,4.93-7.19,8.92-16.07,8.92s-16.07-4-16.07-8.92,5.24-12.37,14.11-12.37c0.56,0,2.76,0,3.3,0C1460.39,623.35,1467,630.64,1467,635.25Z"/><path id="nose_highlight_2" data-name="nose highlight 2" class="cls-37" d="M1460.84,633.39c0,2.5-4.63,4.52-10.34,4.52s-10.34-2-10.34-4.52,3.37-6.27,9.08-6.27c0.36,0,1.77,0,2.12,0C1456.57,627.35,1460.84,631.05,1460.84,633.39Z"/></g><g id="nose_HLs_and_SHs_copy" data-name="nose HLs and SHs copy"><path id="nose_HL_3" data-name="nose HL 3" class="cls-37" d="M1427.62,613s-5-8-6.87-8,0.46-8.93,5-10.77,11.45,7.33,11.45,7.33-5-1.34-8.7.92C1425.1,604.56,1427.62,613,1427.62,613Z"/><path id="nose_HL_2" data-name="nose HL 2" class="cls-37" d="M1438.39,609.83s-2.06-29.87,6.18-30.92,18.33,15.34,18.33,15.34-8.93-4.86-16.72-.93C1439.52,596.68,1438.39,609.83,1438.39,609.83Z"/><path id="nose_HL_2-2" data-name="nose HL 2" class="cls-39" d="M1439.49,596.09s-1.68-16.17,5-16.74,14.93,8.31,14.93,8.31-7.28-2.63-13.63-.5C1440.41,589,1439.49,596.09,1439.49,596.09Z"/><path id="nose_HL_1" data-name="nose HL 1" class="cls-37" d="M1494.76,599.8c4.25-1.65,49.24-17.92,49.24-17.92l7.57-1,6.62,3.75,10.22,23s-5.41-17.08-20.76-16.16-78,36.58-79,21.61C1468.23,607.63,1494.78,599.83,1494.76,599.8Z"/><path id="under_nose_HL" data-name="under nose HL" class="cls-17" d="M1441.9,666.26s-13.44,27.63-6.72,56c0,0,4.89-11.6,18.94-2.32s33,5.51,19.85-6.67-28.4-18-28.4-27.83,4.28-12.47,8.55-17.4S1450.15,658.72,1441.9,666.26Z"/></g><g id="lines_copy" data-name="lines copy"><path class="cls-57" d="M1406.62,547.6S1492,568.83,1586.83,529"/><path class="cls-57" d="M1390.28,586s35.51,14.43,43.52,36.88"/><path class="cls-57" d="M1421,605.19s-0.52-22.16,16.21-3.6"/><path class="cls-57" d="M1439.53,616s-8.47-59,20.08-27.72"/><path class="cls-57" d="M1463.36,613.5c12.14-6,60.7-24.51,71-27.49s20.62-11.45,27.72,6.87,16.72,33.22,1.15,41-22.68,11.45-30.24,16.72"/><path class="cls-57" d="M1378.6,620.14c-1.83-3.67-12.14-26.34,5.27-19.47s47.19,71.47,88.42,42.84,44.44-29.78,51.77-33.22,43.52-20.16,18.1,21.53"/><path class="cls-57" d="M1609,599.41c-11,6.76-13.52,11.8-20.85,23.48"/><path class="cls-57" d="M1378.26,631.05c4,3.87,13.8,16.42,17.4,17.84"/><path class="cls-57" d="M1443.89,661.66c-2.95,5.35-14,30.55-9.71,62.74"/><path class="cls-57" d="M1325.68,697.34c0.46,0.92,4.47,6.76,3.67,13.06"/><path class="cls-57" d="M1321.33,712.91c4.24-1.26,19.36-5.27,24.63,1.26s92.36,40.78,175.13,17.29c36.3-10.3,50.52-22,77.54-11"/><path class="cls-57" d="M1602.4,710.54c-1.6,2.6-6.18,9.93-1.37,20.93"/><path id="outline-4" data-name="outline" class="cls-57" d="M1472.65,609.1c-9.37-9.8-15-22.44-15-36.23a50.16,50.16,0,0,1,3.66-18.82"/></g><path id="under_lip_1" data-name="under lip 1" class="cls-41" d="M1394.22,750.88c0.72-.89,20.81,13.65,41.38,14.05,22.29,0.44,45.19-13.09,46-9.45,1.6,7-24,25.88-46.61,24.83s-37-16.94-39.17-20.42S1392.71,752.74,1394.22,750.88Z"/><path id="under_lip_2" data-name="under lip 2" class="cls-41" d="M1411.13,759.79c0.43-.37,12.28,5,24.45,5.17,13.19,0.14,26.78-4.93,27.27-3.43,0.93,2.89-14.24,10.75-27.64,10.36s-21.87-6.94-23.15-8.37S1410.24,760.56,1411.13,759.79Z"/></g><path class="cls-60" d="M418.1,418H362.46l-5.1-36.17c-22.72,32-61.67,43.13-92.28,43.13C164.92,425,100,348.49,100,252.5S164.92,80,265.08,80c68.63,0,141.9,36.63,149.78,119.64H328.61c-2.78-28.29-30.6-45.44-65.38-45.44-55.65,0-77,49.15-77,98.31s21.33,98.31,77,98.31c42.66,0,71.41-19.94,76-50.08H279v-64H418.1V418Z"/><g class="cls-61"><path class="cls-3" d="M344.43,732.58a63.27,63.27,0,0,1-4.84,25.1,58.41,58.41,0,0,1-32.32,31.83,60.27,60.27,0,0,1-22.89,4.43A62,62,0,0,1,260,789.26a57.05,57.05,0,0,1-19-12.88,59.22,59.22,0,0,1-12.47-19.44A64.73,64.73,0,0,1,224,732.58a63.17,63.17,0,0,1,4.84-25.1,58.19,58.19,0,0,1,32.4-31.83,61.29,61.29,0,0,1,23.13-4.43,60.27,60.27,0,0,1,22.89,4.43,58.41,58.41,0,0,1,32.32,31.83A63.27,63.27,0,0,1,344.43,732.58Zm-13.12,0a56.57,56.57,0,0,0-3.61-20.51,48.25,48.25,0,0,0-10-16.08,45.16,45.16,0,0,0-14.93-10.42,45.78,45.78,0,0,0-18.38-3.69,46.76,46.76,0,0,0-18.62,3.69,44.92,44.92,0,0,0-15,10.42,48.19,48.19,0,0,0-10,16.08,56.49,56.49,0,0,0-3.61,20.51,58,58,0,0,0,3.28,19.69,48.16,48.16,0,0,0,9.43,16.08,44.91,44.91,0,0,0,14.85,10.91,46.38,46.38,0,0,0,19.69,4,45.78,45.78,0,0,0,18.38-3.69,45.11,45.11,0,0,0,14.93-10.42,48.39,48.39,0,0,0,10-16A56.38,56.38,0,0,0,331.3,732.58Zm-15.92,11.81a31,31,0,0,1-10.17,18.54,26.61,26.61,0,0,1-8.61,5,30.37,30.37,0,0,1-10.25,1.72,35.32,35.32,0,0,1-14.27-2.79,32.15,32.15,0,0,1-11-7.79A34.64,34.64,0,0,1,254,747.26a42.85,42.85,0,0,1-2.46-14.68,39.87,39.87,0,0,1,2.38-13.86,32.07,32.07,0,0,1,6.81-11.16,32.76,32.76,0,0,1,10.83-7.47A35.81,35.81,0,0,1,286,697.3a30.73,30.73,0,0,1,19.44,6.32q8.12,6.32,9.76,18.46H304.07a17.35,17.35,0,0,0-6.15-10.17A18.24,18.24,0,0,0,286,708a19.69,19.69,0,0,0-15.83,7.22,22.53,22.53,0,0,0-4.1,7.79,32.3,32.3,0,0,0-1.4,9.6,34.14,34.14,0,0,0,1.48,10.17,25.32,25.32,0,0,0,4.35,8.37,21.66,21.66,0,0,0,6.89,5.74,18.76,18.76,0,0,0,8.94,2.13,17.94,17.94,0,0,0,12.14-4.1,16.11,16.11,0,0,0,5.58-10.5h11.32Z"/><path class="cls-3" d="M407.92,674H459.6q12.47,0,20.35,3.61a32.13,32.13,0,0,1,12.14,9,30.69,30.69,0,0,1,5.83,11.81,50.23,50.23,0,0,1,1.56,11.81A49.22,49.22,0,0,1,497.91,722a30.74,30.74,0,0,1-5.83,11.73,31.42,31.42,0,0,1-12.14,8.94q-7.88,3.53-20.35,3.53H428.43v45H407.92V674Zm20.51,55.46h30a26.79,26.79,0,0,0,7.06-1,20.27,20.27,0,0,0,6.64-3.2,16.39,16.39,0,0,0,4.92-5.91A20.28,20.28,0,0,0,479,710.1a24,24,0,0,0-1.64-9.52,15.23,15.23,0,0,0-4.43-6,15.79,15.79,0,0,0-6.4-3,34.76,34.76,0,0,0-7.71-.82H428.43v38.72Z"/><path class="cls-3" d="M529.33,753.58a32.58,32.58,0,0,0,1.39,9.52,23.42,23.42,0,0,0,4.18,8,20.14,20.14,0,0,0,7.06,5.5,23.25,23.25,0,0,0,10.17,2.05q8.2,0,13.21-3.53a20.84,20.84,0,0,0,7.46-10.58h17.72A35.16,35.16,0,0,1,576.75,786a37.52,37.52,0,0,1-11.4,5.58,46,46,0,0,1-13.21,1.89,44.91,44.91,0,0,1-17.72-3.28,36.59,36.59,0,0,1-13-9.19,39,39,0,0,1-8-14.11,57.36,57.36,0,0,1-2.71-18,51,51,0,0,1,2.87-17.14,43.81,43.81,0,0,1,8.2-14.27A38.48,38.48,0,0,1,551.64,704a38,38,0,0,1,18,4.18,39.44,39.44,0,0,1,13.21,11.08,44.88,44.88,0,0,1,7.63,15.83,48.61,48.61,0,0,1,1.23,18.46H529.33ZM573,741.27a30.28,30.28,0,0,0-1.89-8.53,22.84,22.84,0,0,0-4.27-7.14,21.18,21.18,0,0,0-6.56-4.92,19.36,19.36,0,0,0-8.61-1.89,22.47,22.47,0,0,0-8.94,1.72,20.44,20.44,0,0,0-6.89,4.76,23.61,23.61,0,0,0-4.59,7.14,24.93,24.93,0,0,0-1.89,8.86H573Z"/><path class="cls-3" d="M620.56,753.58a32.52,32.52,0,0,0,1.39,9.52,23.36,23.36,0,0,0,4.19,8,20.14,20.14,0,0,0,7.05,5.5,23.25,23.25,0,0,0,10.17,2.05q8.2,0,13.21-3.53A20.86,20.86,0,0,0,664,764.57h17.72A35.19,35.19,0,0,1,668,786a37.5,37.5,0,0,1-11.4,5.58,46,46,0,0,1-13.21,1.89,44.91,44.91,0,0,1-17.72-3.28,36.59,36.59,0,0,1-13-9.19,39,39,0,0,1-8-14.11,57.31,57.31,0,0,1-2.71-18,51,51,0,0,1,2.87-17.14,43.84,43.84,0,0,1,8.2-14.27A38.49,38.49,0,0,1,642.87,704a38,38,0,0,1,18,4.18A39.46,39.46,0,0,1,674,719.29a44.89,44.89,0,0,1,7.63,15.83,48.57,48.57,0,0,1,1.23,18.46H620.56Zm43.64-12.31a30.22,30.22,0,0,0-1.89-8.53A22.77,22.77,0,0,0,658,725.6a21.17,21.17,0,0,0-6.56-4.92,19.35,19.35,0,0,0-8.61-1.89,22.48,22.48,0,0,0-8.94,1.72,20.4,20.4,0,0,0-6.89,4.76,23.54,23.54,0,0,0-4.59,7.14,24.82,24.82,0,0,0-1.89,8.86H664.2Z"/><path class="cls-3" d="M697.67,674h18.71v66.61l33.8-34.29h23L740.65,737.5l35.6,53.65H753.45L727.53,750,716.37,760.8v30.35H697.67V674Z"/><path class="cls-3" d="M785.77,674h18.7v17.72h-18.7V674Zm0,32.32h18.7v84.82h-18.7V706.33Z"/><path class="cls-3" d="M824.82,706.33h17.72V718.8l0.33,0.33A31.39,31.39,0,0,1,854,708a29.73,29.73,0,0,1,15.26-4q13.94,0,22,7.22t8,21.66v58.25H880.6V737.83q-0.33-10-4.27-14.52T864,718.8a20.31,20.31,0,0,0-8.53,1.72,18.47,18.47,0,0,0-6.4,4.76,22.33,22.33,0,0,0-4.1,7.14,25.45,25.45,0,0,0-1.48,8.7v50h-18.7V706.33Z"/><path class="cls-3" d="M997.42,786.72q0,19.2-10.75,28.63t-30.93,9.43a64.8,64.8,0,0,1-12.88-1.31A38.33,38.33,0,0,1,931.05,819a28.46,28.46,0,0,1-8.94-8.2,24.92,24.92,0,0,1-4.27-12.47h18.7a15,15,0,0,0,2.79,6.4,14.36,14.36,0,0,0,4.68,3.86,17.84,17.84,0,0,0,6,1.81,55.94,55.94,0,0,0,6.89.41q11.32,0,16.57-5.58t5.25-16.08v-13h-0.33a28.45,28.45,0,0,1-10.75,11A28.85,28.85,0,0,1,953,791.15q-10.17,0-17.31-3.53a32.93,32.93,0,0,1-11.81-9.68A40.19,40.19,0,0,1,917,763.75a66.94,66.94,0,0,1-2.13-17.23,50.08,50.08,0,0,1,2.62-16.24,41.4,41.4,0,0,1,7.55-13.54,36.16,36.16,0,0,1,12.06-9.27A36.7,36.7,0,0,1,953.29,704a32.59,32.59,0,0,1,14.77,3.36A22.85,22.85,0,0,1,978.39,718h0.33V706.33h18.7v80.39Zm-41.51-10.34a19.86,19.86,0,0,0,17.64-9.27,29.64,29.64,0,0,0,3.94-9.52,47.61,47.61,0,0,0,1.23-10.75,41.9,41.9,0,0,0-1.31-10.5,28.29,28.29,0,0,0-4-9,19.44,19.44,0,0,0-7.06-6.24,22.05,22.05,0,0,0-10.42-2.3,19.69,19.69,0,0,0-10.5,2.63,21,21,0,0,0-6.89,6.81,29.32,29.32,0,0,0-3.77,9.52,50,50,0,0,0-1.15,10.58,40.11,40.11,0,0,0,1.31,10.25,28.23,28.23,0,0,0,4,8.94,21.46,21.46,0,0,0,6.89,6.4A19.56,19.56,0,0,0,955.91,776.38Z"/><path class="cls-3" d="M1064.52,674h51.68q12.47,0,20.35,3.61a32.13,32.13,0,0,1,12.14,9,30.69,30.69,0,0,1,5.83,11.81,50.23,50.23,0,0,1,1.56,11.81,49.22,49.22,0,0,1-1.56,11.73,30.74,30.74,0,0,1-5.83,11.73,31.42,31.42,0,0,1-12.14,8.94q-7.88,3.53-20.35,3.53H1085v45h-20.51V674ZM1085,729.46h30a26.79,26.79,0,0,0,7.06-1,20.27,20.27,0,0,0,6.64-3.2,16.39,16.39,0,0,0,4.92-5.91,20.28,20.28,0,0,0,1.89-9.27,24,24,0,0,0-1.64-9.52,15.23,15.23,0,0,0-4.43-6,15.79,15.79,0,0,0-6.4-3,34.76,34.76,0,0,0-7.71-.82H1085v38.72Z"/><path class="cls-3" d="M1171.33,706.33h17.56v16.41h0.33a18.94,18.94,0,0,1,3.2-6.73,31.15,31.15,0,0,1,5.74-6,29,29,0,0,1,7.46-4.35A22.37,22.37,0,0,1,1214,704a41,41,0,0,1,4.51.16l2.54,0.33v18q-2-.33-4-0.57a33.81,33.81,0,0,0-4-.25,21.52,21.52,0,0,0-8.94,1.89,20.53,20.53,0,0,0-7.3,5.58,27.33,27.33,0,0,0-4.92,9.11,39.41,39.41,0,0,0-1.8,12.47v40.36h-18.71V706.33Z"/><path class="cls-3" d="M1240.73,753.58a32.52,32.52,0,0,0,1.39,9.52,23.36,23.36,0,0,0,4.19,8,20.14,20.14,0,0,0,7.05,5.5,23.25,23.25,0,0,0,10.17,2.05q8.2,0,13.21-3.53a20.86,20.86,0,0,0,7.46-10.58h17.72A35.19,35.19,0,0,1,1288.15,786a37.5,37.5,0,0,1-11.4,5.58,46,46,0,0,1-13.21,1.89,44.91,44.91,0,0,1-17.72-3.28,36.59,36.59,0,0,1-13-9.19,39,39,0,0,1-8-14.11,57.31,57.31,0,0,1-2.71-18,51,51,0,0,1,2.87-17.14,43.84,43.84,0,0,1,8.2-14.27A38.49,38.49,0,0,1,1263,704a38,38,0,0,1,18,4.18,39.46,39.46,0,0,1,13.21,11.08,44.89,44.89,0,0,1,7.63,15.83,48.57,48.57,0,0,1,1.23,18.46h-62.35Zm43.64-12.31a30.22,30.22,0,0,0-1.89-8.53,22.77,22.77,0,0,0-4.27-7.14,21.17,21.17,0,0,0-6.56-4.92,19.35,19.35,0,0,0-8.61-1.89,22.48,22.48,0,0,0-8.94,1.72,20.4,20.4,0,0,0-6.89,4.76,23.54,23.54,0,0,0-4.59,7.14,24.82,24.82,0,0,0-1.89,8.86h43.64Z"/><path class="cls-3" d="M1331.46,763.91q0.82,8.21,6.23,11.48a24.52,24.52,0,0,0,13,3.28,50,50,0,0,0,6-.41,26,26,0,0,0,6.32-1.56,11.87,11.87,0,0,0,4.84-3.36,8.09,8.09,0,0,0,1.72-5.82,8.28,8.28,0,0,0-2.63-5.91,18.23,18.23,0,0,0-6.32-3.69,61.5,61.5,0,0,0-8.78-2.38q-4.92-1-10-2.13a93.21,93.21,0,0,1-10.09-2.79,32.45,32.45,0,0,1-8.69-4.43,20.44,20.44,0,0,1-6.15-7.14,22.78,22.78,0,0,1-2.3-10.75,19.28,19.28,0,0,1,3.36-11.57,25.78,25.78,0,0,1,8.53-7.55,37.21,37.21,0,0,1,11.48-4A67.63,67.63,0,0,1,1350,704a55.26,55.26,0,0,1,12.55,1.39,34.16,34.16,0,0,1,10.83,4.51,26.52,26.52,0,0,1,8,8.12,28.15,28.15,0,0,1,4,12.06h-19.52q-1.31-6.73-6.15-9a25.56,25.56,0,0,0-11.08-2.3,39.81,39.81,0,0,0-4.68.33,21.74,21.74,0,0,0-5.08,1.23,10.68,10.68,0,0,0-4,2.63,6.27,6.27,0,0,0-1.64,4.51,7.14,7.14,0,0,0,2.38,5.58,18.78,18.78,0,0,0,6.23,3.53,61.15,61.15,0,0,0,8.78,2.38q4.92,1,10.17,2.13,5.08,1.15,10,2.79a32.37,32.37,0,0,1,8.78,4.43,21.61,21.61,0,0,1,6.23,7.06,21.32,21.32,0,0,1,2.38,10.5,22.82,22.82,0,0,1-3.45,12.8,27.21,27.21,0,0,1-8.94,8.53,40.67,40.67,0,0,1-12.22,4.76,61.86,61.86,0,0,1-13.29,1.48,57.86,57.86,0,0,1-14.85-1.8,34.57,34.57,0,0,1-11.81-5.5,26.52,26.52,0,0,1-7.88-9.19,29.19,29.19,0,0,1-3-13h18.7Z"/><path class="cls-3" d="M1416.62,763.91q0.82,8.21,6.23,11.48a24.52,24.52,0,0,0,13,3.28,50,50,0,0,0,6-.41,26,26,0,0,0,6.32-1.56,11.87,11.87,0,0,0,4.84-3.36,8.09,8.09,0,0,0,1.72-5.82,8.27,8.27,0,0,0-2.62-5.91,18.26,18.26,0,0,0-6.32-3.69,61.5,61.5,0,0,0-8.78-2.38q-4.92-1-10-2.13a92.87,92.87,0,0,1-10.09-2.79,32.41,32.41,0,0,1-8.7-4.43,20.44,20.44,0,0,1-6.15-7.14,22.78,22.78,0,0,1-2.3-10.75,19.28,19.28,0,0,1,3.36-11.57,25.78,25.78,0,0,1,8.53-7.55,37.23,37.23,0,0,1,11.49-4,67.6,67.6,0,0,1,12.06-1.15,55.28,55.28,0,0,1,12.55,1.39,34.15,34.15,0,0,1,10.83,4.51,26.52,26.52,0,0,1,8,8.12,28.15,28.15,0,0,1,4,12.06h-19.52q-1.32-6.73-6.15-9a25.56,25.56,0,0,0-11.08-2.3,39.78,39.78,0,0,0-4.68.33,21.75,21.75,0,0,0-5.09,1.23,10.72,10.72,0,0,0-4,2.63,6.28,6.28,0,0,0-1.64,4.51,7.13,7.13,0,0,0,2.38,5.58,18.76,18.76,0,0,0,6.23,3.53,61,61,0,0,0,8.78,2.38q4.92,1,10.17,2.13,5.08,1.15,10,2.79a32.33,32.33,0,0,1,8.78,4.43,21.57,21.57,0,0,1,6.23,7.06,21.32,21.32,0,0,1,2.38,10.5,22.82,22.82,0,0,1-3.44,12.8,27.24,27.24,0,0,1-8.94,8.53,40.6,40.6,0,0,1-12.22,4.76,61.86,61.86,0,0,1-13.29,1.48,57.83,57.83,0,0,1-14.85-1.8,34.57,34.57,0,0,1-11.81-5.5,26.5,26.5,0,0,1-7.88-9.19,29.19,29.19,0,0,1-3-13h18.71Z"/><path class="cls-3" d="M1535.9,674h20.51v99.43H1616v17.72H1535.9V674Z"/><path class="cls-3" d="M1630.07,674h20.51v99.43h59.56v17.72h-80.07V674Z"/><path class="cls-3" d="M1803.33,711.25a41.74,41.74,0,0,0-3.61-9.35,25.93,25.93,0,0,0-5.91-7.38,26.3,26.3,0,0,0-8.45-4.84,33.49,33.49,0,0,0-11.24-1.72,32.85,32.85,0,0,0-16.16,3.77,31.71,31.71,0,0,0-11.08,10.09,45.49,45.49,0,0,0-6.32,14.36,66.65,66.65,0,0,0,0,32.81,45.43,45.43,0,0,0,6.32,14.36A31.66,31.66,0,0,0,1758,773.43a32.81,32.81,0,0,0,16.16,3.77,29.15,29.15,0,0,0,12.14-2.38,27,27,0,0,0,9-6.56,30.88,30.88,0,0,0,5.91-9.76,46.87,46.87,0,0,0,2.79-12h20a55.55,55.55,0,0,1-4.51,19.2,47.08,47.08,0,0,1-10.42,15,46,46,0,0,1-15.42,9.76,53.45,53.45,0,0,1-19.52,3.44,55.26,55.26,0,0,1-23.54-4.84,51.71,51.71,0,0,1-17.64-13.21,59,59,0,0,1-11.08-19.52,74.81,74.81,0,0,1,0-47.42,59,59,0,0,1,11.08-19.52,52.66,52.66,0,0,1,17.64-13.29,54.45,54.45,0,0,1,23.54-4.92,62.07,62.07,0,0,1,18.54,2.71A48,48,0,0,1,1808,681.8a40.93,40.93,0,0,1,10.75,12.55,43.72,43.72,0,0,1,5.08,16.9h-20.51Z"/></g></svg>