<svg id="BG" xmlns="http://www.w3.org/2000/svg" viewBox="0 0 2048 1496"><defs><style>.cls-1{fill:#fff;}.cls-2{fill:#ffcb05;}.cls-3{fill:#8b713c;}.cls-4{fill:#fcf3b9;}.cls-5{fill:none;stroke:#000;stroke-linecap:round;stroke-linejoin:round;stroke-width:14.55px;}.cls-6{fill:#231f20;}</style></defs><title>6-peekingpress-logo</title><rect class="cls-1" width="2048" height="1496"/><g id="Peeking_Press_copy" data-name="Peeking Press® copy"><path class="cls-2" d="M1424,648c0-220.91-179.08-400-400-400S624,427.08,624,648c0,140.41,72.36,263.91,181.82,335.28V684.36h0c0-120.5,97.68-218.18,218.18-218.18s218.18,97.68,218.18,218.18h0V983.28C1351.64,911.91,1424,788.41,1424,648Z"/><circle class="cls-3" cx="1205.82" cy="557.09" r="90.91" transform="translate(-40.74 1015.81) rotate(-45)"/><circle class="cls-3" cx="1128.68" cy="634.23" r="90.91" transform="translate(-117.89 983.86) rotate(-45)"/><rect class="cls-3" x="1112.7" y="504.75" width="109.09" height="181.82" transform="translate(-79.32 999.83) rotate(-45)"/><circle class="cls-4" cx="1205.82" cy="557.09" r="36.36" transform="translate(-40.76 1015.77) rotate(-45)"/><circle class="cls-4" cx="1128.68" cy="634.23" r="36.36" transform="translate(-117.87 983.9) rotate(-45)"/><rect class="cls-4" x="1112.7" y="559.3" width="109.09" height="72.73" transform="translate(-79.3 999.88) rotate(-45)"/><circle class="cls-3" cx="842.18" cy="557.09" r="90.91" transform="translate(-147.25 758.69) rotate(-45)"/><circle class="cls-3" cx="919.32" cy="634.23" r="90.91" transform="translate(-179.21 835.82) rotate(-45)"/><rect class="cls-3" x="789.84" y="541.11" width="181.82" height="109.09" transform="translate(-163.23 797.25) rotate(-45)"/><circle class="cls-4" cx="842.18" cy="557.09" r="36.36" transform="translate(-147.24 758.75) rotate(-45)"/><circle class="cls-4" cx="919.32" cy="634.23" r="36.36" transform="translate(-179.21 835.78) rotate(-45)"/><rect class="cls-4" x="844.39" y="541.11" width="72.73" height="109.09" transform="translate(-163.24 797.21) rotate(-45)"/><path class="cls-3" d="M1024,466.18c-120.5,0-218.18,97.68-218.18,218.18h0V983.28a398.32,398.32,0,0,0,90.91,44V848a127.27,127.27,0,1,1,254.55,0v179.31a398.31,398.31,0,0,0,90.91-44V684.36h0C1242.18,563.86,1144.5,466.18,1024,466.18Z"/><path class="cls-4" d="M1024,720.73A127.27,127.27,0,0,0,896.73,848v179.31a401.86,401.86,0,0,0,254.55,0V848A127.27,127.27,0,0,0,1024,720.73Z"/><circle id="BG-2" data-name="BG" class="cls-1" cx="947.64" cy="658.91" r="29.09"/><circle id="BG-3" data-name="BG" cx="947.64" cy="658.91" r="14.55"/><circle id="BG-4" data-name="BG" class="cls-1" cx="1100.36" cy="658.91" r="29.09"/><circle id="BG-5" data-name="BG" cx="1100.36" cy="658.91" r="14.55"/><path d="M1024,884.36a7.27,7.27,0,0,1-7.27-7.27V753.45a7.27,7.27,0,1,1,14.55,0V877.09A7.27,7.27,0,0,1,1024,884.36Z"/><path class="cls-5" d="M980.36,869.82s11.4,13.57,43.41,13.57,43.86-13.57,43.86-13.57"/><path d="M1024,709.82c28,0,32.73,7.43,32.73,7.43l-16.37,21.7L1024,760.73,1007.63,739l-16.36-21.74S996,709.82,1024,709.82Z"/><path d="M1024,771.64a10.91,10.91,0,0,1-8.72-4.35l-32.72-43.48a10.91,10.91,0,0,1-.47-12.45c6.94-10.83,29.24-12.45,41.91-12.45s35,1.62,41.92,12.45a10.91,10.91,0,0,1-.48,12.45l-16.37,21.7-16.36,21.76a10.91,10.91,0,0,1-8.72,4.36h0Zm-15.62-49.81L1024,742.58l15.62-20.75A111.79,111.79,0,0,0,1008.37,721.82Zm40.42,2.83h0Zm-49.59,0h0Z"/></g><g id="_copy" data-name="® copy"><path d="M1398.39,1048a25.54,25.54,0,1,1,25.61-25.61A25.37,25.37,0,0,1,1398.39,1048Zm0.14-48.55a23,23,0,1,0,22.79,22.93A22.78,22.78,0,0,0,1398.53,999.45Zm5.65,25.54,7.2,10.09h-6.07l-6.49-9.24h-5.57v9.24h-5.08v-26.74h11.92c6.21,0,10.3,3.18,10.3,8.54A8,8,0,0,1,1404.17,1025Zm-4.3-12.07h-6.63v8.47h6.63c3.32,0,5.29-1.62,5.29-4.23S1403.18,1012.93,1399.87,1012.93Z"/></g><path class="cls-6" d="M559.27,1216H542.18v30.67H519.69V1144.38h41.77c24.39,0,39.14,14.46,39.14,35.35V1180C600.61,1203.68,582.2,1216,559.27,1216Zm18.55-35.78c0-10.08-7-15.48-18.26-15.48H542.18v31.26H560c11.25,0,17.82-6.72,17.82-15.48v-0.29Z"/><path class="cls-6" d="M682.73,1215.22H628.25c2.19,10.08,9.2,15.34,19.13,15.34,7.45,0,12.85-2.34,19-8l12.71,11.25c-7.3,9.06-17.82,14.61-32,14.61-23.52,0-40.9-16.5-40.9-40.46v-0.29c0-22.35,15.92-40.75,38.71-40.75,26.15,0,38.12,20.3,38.12,42.5v0.29C683,1211.86,682.87,1213.18,682.73,1215.22ZM644.9,1184.7c-9.2,0-15.19,6.57-16.94,16.65H661.4C660.09,1191.41,654.24,1184.7,644.9,1184.7Z"/><path class="cls-6" d="M771.5,1215.22H717c2.19,10.08,9.2,15.34,19.13,15.34,7.45,0,12.85-2.34,19-8l12.71,11.25c-7.3,9.06-17.82,14.61-32,14.61-23.52,0-40.9-16.5-40.9-40.46v-0.29c0-22.35,15.92-40.75,38.71-40.75,26.15,0,38.12,20.3,38.12,42.5v0.29C771.8,1211.86,771.65,1213.18,771.5,1215.22Zm-37.83-30.53c-9.2,0-15.19,6.57-16.94,16.65h33.45C748.86,1191.41,743,1184.7,733.67,1184.7Z"/><path class="cls-6" d="M838.7,1246.63l-20.45-32-7.74,8.18v23.81H788.3V1140h22.2v56.82l26-28.48h26.58l-29.8,30.82,30.82,47.47H838.7Z"/><path class="cls-6" d="M875.21,1159.72V1140h23.37v19.72H875.21Zm0.58,86.91v-78.29H898v78.29H875.8Z"/><path class="cls-6" d="M968.4,1246.63V1203c0-10.52-5-15.92-13.44-15.92s-13.88,5.41-13.88,15.92v43.67h-22.2v-78.29h22.2v11.1c5.11-6.57,11.68-12.56,22.93-12.56,16.8,0,26.58,11.1,26.58,29.07v50.68H968.4Z"/><path class="cls-6" d="M1041.49,1270.29a74.3,74.3,0,0,1-34.62-8.18l7.6-16.65a51.09,51.09,0,0,0,26.44,7.16c15.19,0,22.35-7.3,22.35-21.33v-3.8c-6.57,7.89-13.73,12.71-25.56,12.71-18.26,0-34.76-13.29-34.76-36.52v-0.29c0-23.37,16.8-36.52,34.76-36.52,12.12,0,19.28,5.11,25.27,11.68v-10.22h22.2V1229C1085.16,1258.46,1070.55,1270.29,1041.49,1270.29Zm21.76-66.9c0-10.66-8.33-18.11-19.13-18.11s-19,7.45-19,18.11v0.29c0,10.81,8.18,18.11,19,18.11s19.13-7.45,19.13-18.11v-0.29Z"/><path class="cls-6" d="M1195,1216h-17.09v30.67h-22.49V1144.38h41.77c24.39,0,39.15,14.46,39.15,35.35V1180C1236.31,1203.68,1217.91,1216,1195,1216Zm18.55-35.78c0-10.08-7-15.48-18.26-15.48h-17.38v31.26h17.82c11.25,0,17.82-6.72,17.82-15.48v-0.29Z"/><path class="cls-6" d="M1296.64,1190.1c-14.75,0-23.81,8.91-23.81,27.61v28.92h-22.2v-78.29h22.2v15.78c4.53-10.81,11.83-17.82,25-17.24v23.22h-1.17Z"/><path class="cls-6" d="M1382.25,1215.22h-54.48c2.19,10.08,9.2,15.34,19.13,15.34,7.45,0,12.85-2.34,19-8l12.71,11.25c-7.3,9.06-17.82,14.61-32,14.61-23.52,0-40.9-16.5-40.9-40.46v-0.29c0-22.35,15.92-40.75,38.71-40.75,26.15,0,38.12,20.3,38.12,42.5v0.29C1382.54,1211.86,1382.39,1213.18,1382.25,1215.22Zm-37.83-30.53c-9.2,0-15.19,6.57-16.94,16.65h33.45C1359.61,1191.41,1353.77,1184.7,1344.42,1184.7Z"/><path class="cls-6" d="M1426.51,1248.09a54.84,54.84,0,0,1-33.6-11.83l9.49-14.61c8.47,6.13,17.38,9.35,24.68,9.35,6.43,0,9.35-2.34,9.35-5.84v-0.29c0-4.82-7.59-6.43-16.21-9.06-11-3.21-23.37-8.33-23.37-23.52V1192c0-15.92,12.85-24.83,28.63-24.83a54.18,54.18,0,0,1,29.21,9.06l-8.47,15.34c-7.74-4.53-15.48-7.3-21.18-7.3-5.41,0-8.18,2.34-8.18,5.41V1190c0,4.38,7.45,6.43,15.92,9.35,11,3.65,23.66,8.91,23.66,23.22v0.29C1456.45,1240.2,1443.45,1248.09,1426.51,1248.09Z"/><path class="cls-6" d="M1498.37,1248.09a54.84,54.84,0,0,1-33.59-11.83l9.49-14.61c8.47,6.13,17.38,9.35,24.68,9.35,6.43,0,9.35-2.34,9.35-5.84v-0.29c0-4.82-7.59-6.43-16.21-9.06-11-3.21-23.37-8.33-23.37-23.52V1192c0-15.92,12.85-24.83,28.63-24.83a54.19,54.19,0,0,1,29.21,9.06l-8.47,15.34c-7.74-4.53-15.48-7.3-21.18-7.3-5.4,0-8.18,2.34-8.18,5.41V1190c0,4.38,7.45,6.43,15.92,9.35,11,3.65,23.66,8.91,23.66,23.22v0.29C1528.31,1240.2,1515.31,1248.09,1498.37,1248.09Z"/></svg>